<svg width="20" height="20" viewBox="0 0 20 20" fill="none" xmlns="http://www.w3.org/2000/svg">
<g clip-path="url(#clip0)">
<path d="M2.3353 4.00013H14.0024C14.1864 4.00013 14.3357 3.85088 14.3357 3.66679C14.3357 3.4827 14.1864 3.33344 14.0024 3.33344H2.3353C2.15121 3.33344 2.00195 3.4827 2.00195 3.66679C2.00195 3.85088 2.15121 4.00013 2.3353 4.00013Z" fill="#B0B8C3"/>
<path d="M2.3353 6.66689H14.0024C14.1864 6.66689 14.3357 6.51763 14.3357 6.33354C14.3357 6.14945 14.1864 6.0002 14.0024 6.0002H2.3353C2.15121 6.0002 2.00195 6.14945 2.00195 6.33354C2.00195 6.51763 2.15121 6.66689 2.3353 6.66689Z" fill="#B0B8C3"/>
<path d="M2.3353 9.33364H14.0024C14.1864 9.33364 14.3357 9.18439 14.3357 9.0003C14.3357 8.81621 14.1864 8.66695 14.0024 8.66695H2.3353C2.15121 8.66695 2.00195 8.81621 2.00195 9.0003C2.00195 9.18439 2.15121 9.33364 2.3353 9.33364Z" fill="#B0B8C3"/>
<path d="M18.3359 11.7697V0.333344C18.3359 0.149255 18.1866 0 18.0026 0H0.335298C0.151208 0 0.00195312 0.149255 0.00195312 0.333344V18.0006C0.00195312 18.1847 0.151208 18.3339 0.335298 18.3339H11.769C12.043 18.6616 12.3602 18.9505 12.712 19.1926C14.8414 20.6406 17.7414 20.0882 19.1893 17.9588C20.5335 15.982 20.1649 13.3089 18.3359 11.7697ZM0.668642 17.6673V0.666689H17.6692V11.2927C17.5679 11.234 17.4644 11.1792 17.3589 11.1284L17.3309 11.116C17.2049 11.056 17.0762 11.0037 16.9462 10.9557C16.9102 10.9424 16.8742 10.9294 16.8378 10.917C16.6978 10.8694 16.5565 10.826 16.4135 10.7927C13.9016 10.2008 11.3854 11.7573 10.7935 14.2693C10.7113 14.6182 10.6695 14.9754 10.669 15.3338C10.669 15.4538 10.6746 15.5732 10.6836 15.6915C10.6863 15.7282 10.6906 15.7645 10.6943 15.8009C10.7023 15.8842 10.7123 15.9675 10.725 16.0489C10.731 16.0885 10.7373 16.1279 10.7443 16.1672C10.7593 16.2515 10.7776 16.3339 10.797 16.4182C10.8043 16.4499 10.811 16.4822 10.819 16.5136C10.8483 16.6269 10.8813 16.7389 10.919 16.8492C10.9243 16.8642 10.9306 16.8792 10.936 16.8942C10.9695 16.9894 11.0064 17.0832 11.0467 17.1759C11.0613 17.2092 11.077 17.2426 11.0927 17.2759C11.126 17.3506 11.1633 17.4249 11.202 17.4979C11.22 17.5313 11.238 17.5646 11.257 17.5999C11.2693 17.6219 11.2803 17.6446 11.293 17.6666L0.668642 17.6673ZM19.0801 16.7294C18.4977 18.2938 17.0051 19.3321 15.3358 19.334C14.5337 19.3358 13.7498 19.0946 13.0874 18.6423C12.7448 18.4076 12.4402 18.1217 12.1844 17.7946C11.4738 16.8887 11.1902 15.7196 11.4067 14.5888C11.8181 12.4182 13.9112 10.9922 16.0818 11.4037C16.1415 11.415 16.201 11.4277 16.2602 11.4417C16.4186 11.4795 16.5745 11.5273 16.7268 11.5851C18.7972 12.3558 19.8508 14.659 19.0801 16.7294Z" fill="#B0B8C3"/>
<path d="M18.0028 14.6672C18.1869 14.6672 18.3361 14.5179 18.3361 14.3338C18.3361 14.1497 18.1869 14.0005 18.0028 14.0005H16.6694V12.6671C16.6694 12.483 16.5202 12.3337 16.3361 12.3337C16.152 12.3337 16.0027 12.483 16.0027 12.6671V14.0005H14.6693V12.6671C14.6693 12.483 14.5201 12.3337 14.336 12.3337C14.1519 12.3337 14.0027 12.483 14.0027 12.6671V14.0005H12.6693C12.4852 14.0005 12.3359 14.1497 12.3359 14.3338C12.3359 14.5179 12.4852 14.6672 12.6693 14.6672H14.0027V16.0005H12.6693C12.4852 16.0005 12.3359 16.1498 12.3359 16.3339C12.3359 16.518 12.4852 16.6672 12.6693 16.6672H14.0027V18.0006C14.0027 18.1847 14.1519 18.3339 14.336 18.3339C14.5201 18.3339 14.6693 18.1847 14.6693 18.0006V16.6672H16.0027V18.0006C16.0027 18.1847 16.152 18.3339 16.3361 18.3339C16.5202 18.3339 16.6694 18.1847 16.6694 18.0006V16.6672H18.0028C18.1869 16.6672 18.3361 16.518 18.3361 16.3339C18.3361 16.1498 18.1869 16.0005 18.0028 16.0005H16.6694V14.6672H18.0028ZM16.0027 16.0005H14.6693V14.6672H16.0027V16.0005Z" fill="#B0B8C3"/>
<path d="M11.0023 11.6671C11.0023 11.483 10.853 11.3337 10.6689 11.3337H2.3353C2.15121 11.3337 2.00195 11.483 2.00195 11.6671C2.00195 11.8511 2.15121 12.0004 2.3353 12.0004H10.6689C10.853 12.0004 11.0023 11.8511 11.0023 11.6671Z" fill="#B0B8C3"/>
</g>
<defs>
<clipPath id="clip0">
<rect width="20" height="20" fill="white"/>
</clipPath>
</defs>
</svg>
