<svg width="40" height="40" viewBox="0 0 40 40" fill="none" xmlns="http://www.w3.org/2000/svg">
<circle cx="20" cy="20" r="19.5" fill="#E9FBF9" stroke="#3EDDCB"/>
<path d="M26.1667 29C27.7315 29 29 27.7315 29 26.1667C29 24.6019 27.7315 23.3333 26.1667 23.3333C24.6019 23.3333 23.3333 24.6019 23.3333 26.1667C23.3333 27.7315 24.6019 29 26.1667 29Z" stroke="#26D8C4" stroke-linecap="round" stroke-linejoin="round"/>
<path d="M14.8333 17.6667C16.3981 17.6667 17.6667 16.3981 17.6667 14.8333C17.6667 13.2685 16.3981 12 14.8333 12C13.2685 12 12 13.2685 12 14.8333C12 16.3981 13.2685 17.6667 14.8333 17.6667Z" stroke="#26D8C4" stroke-linecap="round" stroke-linejoin="round"/>
<path d="M21.4445 14.8333H24.2778C24.7788 14.8333 25.2592 15.0323 25.6134 15.3866C25.9677 15.7408 26.1667 16.2213 26.1667 16.7222V23.3333" stroke="#26D8C4" stroke-linecap="round" stroke-linejoin="round"/>
<path d="M14.8333 17.6667V29" stroke="#26D8C4" stroke-linecap="round" stroke-linejoin="round"/>
</svg>
