<?xml version="1.0" encoding="utf-8"?>
<!-- Generator: Adobe Illustrator 24.0.1, SVG Export Plug-In . SVG Version: 6.00 Build 0)  -->
<svg version="1.1" id="Layer_1" xmlns="http://www.w3.org/2000/svg" xmlns:xlink="http://www.w3.org/1999/xlink" x="0px" y="0px"
	 viewBox="0 0 22 22" style="enable-background:new 0 0 22 22;" xml:space="preserve">
<style type="text/css">
	.st0{fill:none;stroke:#161616;stroke-miterlimit:10;}
	.st1{fill:#161616;}
</style>
<g>
	<g>
		<g>
			<g>
				<path class="st0" d="M17.1,16.2l-2.4-2.4c-0.8-0.8-2.3-0.5-2.7,0.6c-0.2,0.8-1.1,1.2-1.9,1c-1.7-0.4-4-2.7-4.4-4.4
					c-0.2-0.8,0.2-1.6,1-1.9c1.1-0.3,1.4-1.8,0.6-2.7L5,4.1c-0.7-0.6-1.7-0.6-2.3,0L1.1,5.7c-1.6,1.7,0.2,6.2,4.2,10.2
					s8.5,5.9,10.2,4.2l1.6-1.6C17.7,17.8,17.7,16.8,17.1,16.2z"/>
			</g>
		</g>
	</g>
	<g>
		<path class="st1" d="M19.5,18h-1v-1.2h1c0.6,0,1.1-0.5,1.1-1.1V4.2c0-0.6-0.5-1.1-1.1-1.1h-6.8c-0.6,0-1.1,0.5-1.1,1.1v9.1h-1.2
			V4.2c0-1.3,1-2.3,2.3-2.3h6.8c1.3,0,2.3,1,2.3,2.3v11.5C21.9,16.9,20.8,18,19.5,18z"/>
	</g>
	<g>
		<rect x="13.6" y="5.3" class="st1" width="5.3" height="1.2"/>
	</g>
	<g>
		<rect x="13.6" y="8.3" class="st1" width="5.3" height="1.2"/>
	</g>
	<g>
		<rect x="13.6" y="11.4" class="st1" width="5.3" height="1.2"/>
	</g>
</g>
</svg>
