<?xml version="1.0" encoding="utf-8"?>
<!-- Generator: Adobe Illustrator 24.0.1, SVG Export Plug-In . SVG Version: 6.00 Build 0)  -->
<svg version="1.1" id="Layer_1" xmlns="http://www.w3.org/2000/svg" xmlns:xlink="http://www.w3.org/1999/xlink" x="0px" y="0px"
	 viewBox="0 0 436.7 498" style="enable-background:new 0 0 436.7 498;" xml:space="preserve">
<style type="text/css">
	.stw0{fill:#FFFFFF;}
	.st1{fill:#EA5B21;}
</style>
<g>
	<g>
		<g>
			<path class="stw0" d="M52,429.1c0,4.9-0.7,9.2-2.1,12.9c-1.4,3.7-3.4,6.7-6,9.2c-2.6,2.4-5.7,4.3-9.4,5.4
				c-3.7,1.2-7.7,1.8-12.2,1.8c-2,0-4.2-0.1-6.9-0.3c-2.6-0.2-5.1-0.6-7.3-1.4c-2.8-0.9-4.2-2.6-4.2-4.9v-45.8c0-1,0.3-1.8,0.9-2.4
				c0.6-0.6,1.4-1,2.4-1.3c2.1-0.7,4.4-1.1,6.9-1.3s4.9-0.3,7.3-0.3c4.5,0,8.6,0.6,12.4,1.7c3.7,1.2,7,2.9,9.6,5.3s4.8,5.3,6.2,8.9
				C51.2,420.2,52,424.4,52,429.1z M41.9,429.2c0-3.6-0.5-6.7-1.6-9.3c-1-2.6-2.5-4.7-4.3-6.4c-1.8-1.6-4-2.9-6.4-3.7
				c-2.4-0.8-5.1-1.2-7.9-1.2c-3.2,0-5.9,0.2-8,0.6v40.3c1.2,0.3,2.6,0.5,4.1,0.6c1.5,0.1,3,0.1,4.5,0.1c6.3,0,11.2-1.8,14.5-5.4
				C40.2,441.5,41.9,436.2,41.9,429.2z"/>
			<path class="stw0" d="M62.1,401.4c0-1.6,0.5-2.9,1.6-4c1.1-1.1,2.5-1.6,4.2-1.6c1.7,0,3.1,0.5,4.1,1.6c1,1.1,1.6,2.4,1.6,4
				c0,1.6-0.5,2.9-1.6,4c-1,1.1-2.4,1.6-4.1,1.6c-1.7,0-3.1-0.5-4.2-1.6C62.7,404.3,62.1,403,62.1,401.4z M72.7,457.2
				c-0.4,0.2-1,0.4-1.8,0.5c-0.8,0.2-1.6,0.2-2.6,0.2c-1.8,0-3.1-0.3-3.9-1c-0.9-0.7-1.3-1.8-1.3-3.4v-38.7c0.5-0.1,1.1-0.3,1.9-0.5
				c0.8-0.2,1.6-0.3,2.6-0.3c1.8,0,3.1,0.3,3.9,1c0.8,0.7,1.2,1.8,1.2,3.5V457.2z"/>
			<path class="stw0" d="M101.7,413.3c5.7,0,10.2,1.2,13.5,3.7c3.4,2.5,5,6.4,5,11.7V450c0,1.4-0.3,2.5-1,3.2
				c-0.6,0.8-1.5,1.5-2.6,2.1c-1.6,0.9-3.6,1.7-6.1,2.4c-2.5,0.7-5.4,1-8.7,1c-5.9,0-10.5-1.2-13.9-3.5c-3.3-2.3-5-5.7-5-10.2
				c0-4,1.3-7.1,3.9-9.2c2.6-2.1,6.3-3.4,11.2-3.9l12.7-1.3v-2c0-2.7-0.9-4.6-2.6-5.9c-1.7-1.2-4.2-1.8-7.3-1.8c-2.4,0-4.8,0.3-7,1
				c-2.3,0.7-4.3,1.4-6,2.3c-0.6-0.5-1.1-1.1-1.6-1.8c-0.4-0.7-0.6-1.5-0.6-2.3c0-1,0.3-1.9,0.8-2.6c0.5-0.7,1.3-1.2,2.4-1.7
				c1.7-0.9,3.7-1.5,5.9-1.9C96.9,413.5,99.3,413.3,101.7,413.3z M101.9,451.3c2.1,0,4-0.2,5.6-0.6c1.6-0.4,2.7-0.9,3.4-1.4v-11.6
				l-10,1c-2.8,0.3-4.9,0.9-6.3,1.9c-1.4,0.9-2.1,2.4-2.1,4.3c0,2,0.8,3.6,2.3,4.7C96.3,450.7,98.6,451.3,101.9,451.3z"/>
			<path class="stw0" d="M138.4,457.9c-1.8,0-3.1-0.3-3.9-1c-0.9-0.7-1.3-1.8-1.3-3.4V398c0.4-0.1,1-0.3,1.8-0.5
				c0.8-0.2,1.6-0.3,2.6-0.3c1.8,0,3.1,0.3,3.9,1c0.9,0.7,1.3,1.8,1.3,3.4v55.5c-0.5,0.2-1.1,0.4-1.9,0.5
				C140.1,457.8,139.3,457.9,138.4,457.9z"/>
			<path class="stw0" d="M206.9,422.9c-1.5-1.2-3.5-1.9-6.1-1.9c-1.7,0-3.3,0.3-4.9,1c-1.6,0.6-3,1.5-4.3,2.6c0.1,0.5,0.2,1,0.3,1.6
				c0.1,0.6,0.1,1.1,0.1,1.6v29.4c-0.4,0.2-1,0.4-1.8,0.5c-0.8,0.2-1.6,0.2-2.5,0.2c-1.8,0-3.1-0.3-3.9-1c-0.9-0.7-1.3-1.8-1.3-3.4
				v-24.8c0-2.7-0.8-4.6-2.3-5.9c-1.5-1.2-3.6-1.9-6.1-1.9c-1.7,0-3.3,0.3-4.8,0.8c-1.5,0.6-2.8,1.2-3.8,1.8v33.6
				c-0.4,0.2-1,0.4-1.8,0.5c-0.8,0.2-1.6,0.2-2.5,0.2c-1.8,0-3.1-0.3-3.9-1c-0.9-0.7-1.3-1.8-1.3-3.4v-30.2c0-1.4,0.3-2.5,0.8-3.4
				c0.5-0.9,1.5-1.7,2.7-2.6c1.8-1.2,4-2.1,6.7-2.9c2.7-0.8,5.4-1.2,8.1-1.2c2.9,0,5.4,0.4,7.7,1.2c2.3,0.8,4.2,1.9,5.6,3.5
				c1.7-1.3,3.7-2.5,6.1-3.3c2.3-0.9,5.1-1.3,8.2-1.3c2.4,0,4.6,0.3,6.7,0.9c2.1,0.6,3.9,1.5,5.3,2.7c1.5,1.3,2.7,2.8,3.5,4.7
				c0.9,1.9,1.3,4.1,1.3,6.8v28.8c-0.5,0.2-1.1,0.4-1.9,0.5s-1.6,0.2-2.5,0.2c-1.8,0-3.1-0.3-3.9-1c-0.9-0.7-1.3-1.8-1.3-3.4v-24.8
				C209.1,426.1,208.4,424.1,206.9,422.9z"/>
			<path class="stw0" d="M247.2,413.3c5.7,0,10.2,1.2,13.5,3.7c3.4,2.5,5,6.4,5,11.7V450c0,1.4-0.3,2.5-1,3.2
				c-0.6,0.8-1.5,1.5-2.6,2.1c-1.6,0.9-3.6,1.7-6.1,2.4c-2.5,0.7-5.4,1-8.7,1c-5.9,0-10.5-1.2-13.9-3.5c-3.3-2.3-5-5.7-5-10.2
				c0-4,1.3-7.1,3.9-9.2c2.6-2.1,6.3-3.4,11.2-3.9l12.7-1.3v-2c0-2.7-0.9-4.6-2.6-5.9c-1.7-1.2-4.2-1.8-7.3-1.8c-2.4,0-4.8,0.3-7,1
				c-2.3,0.7-4.3,1.4-6,2.3c-0.6-0.5-1.1-1.1-1.6-1.8c-0.4-0.7-0.6-1.5-0.6-2.3c0-1,0.3-1.9,0.8-2.6c0.5-0.7,1.3-1.2,2.4-1.7
				c1.7-0.9,3.7-1.5,5.9-1.9C242.5,413.5,244.8,413.3,247.2,413.3z M247.4,451.3c2.1,0,4-0.2,5.6-0.6c1.6-0.4,2.7-0.9,3.4-1.4v-11.6
				l-10,1c-2.8,0.3-4.9,0.9-6.3,1.9c-1.4,0.9-2.1,2.4-2.1,4.3c0,2,0.8,3.6,2.3,4.7C241.8,450.7,244.2,451.3,247.4,451.3z"/>
			<path class="stw0" d="M304.4,423.1c-1.7-1.4-3.9-2.1-6.8-2.1c-2.1,0-4,0.3-5.7,0.8c-1.7,0.6-3.1,1.2-4.3,1.8v33.6
				c-0.4,0.2-1,0.4-1.8,0.5c-0.8,0.2-1.6,0.2-2.5,0.2c-1.8,0-3.1-0.3-3.9-1c-0.9-0.7-1.3-1.8-1.3-3.4v-30.2c0-1.4,0.3-2.5,0.8-3.4
				c0.5-0.9,1.5-1.7,2.7-2.6c1.7-1,3.9-2,6.7-2.8c2.7-0.9,5.9-1.3,9.3-1.3c5.9,0,10.5,1.3,13.9,4c3.4,2.7,5,6.7,5,12v27.9
				c-0.4,0.2-1,0.4-1.8,0.5c-0.8,0.2-1.6,0.2-2.6,0.2c-1.8,0-3.1-0.3-3.9-1c-0.9-0.7-1.3-1.8-1.3-3.4v-23.9
				C306.9,426.7,306.1,424.5,304.4,423.1z"/>
			<path class="stw0" d="M340.7,449.5c1.3,0.9,3.1,1.4,5.4,1.4c1,0,2.1-0.2,3.3-0.5c1.2-0.3,2.2-0.7,3-1.1c0.4,0.5,0.8,1,1.1,1.6
				c0.3,0.6,0.5,1.3,0.5,2.2c0,1.6-0.8,2.9-2.4,3.9c-1.6,1-4.1,1.6-7.4,1.6c-4.6,0-8.2-1-10.9-3.1c-2.7-2-4.1-5.4-4.1-10.1v-42.7
				c0.4-0.1,1-0.3,1.8-0.5c0.8-0.2,1.6-0.3,2.6-0.3c1.8,0,3.1,0.3,3.9,1c0.8,0.7,1.2,1.8,1.2,3.4v9.1h14.2c0.2,0.4,0.5,0.9,0.7,1.6
				c0.2,0.7,0.3,1.4,0.3,2.1c0,2.6-1.1,3.9-3.4,3.9h-11.8v21.8C338.8,447,339.4,448.6,340.7,449.5z"/>
			<path class="stw0" d="M373.3,457.2c-0.4,0.2-1,0.4-1.8,0.5c-0.8,0.2-1.6,0.2-2.5,0.2c-1.8,0-3.1-0.3-3.9-1
				c-0.9-0.7-1.3-1.8-1.3-3.4v-30c0-1.5,0.3-2.8,0.9-3.7s1.6-1.8,2.9-2.7c1.8-1.1,4-2,6.8-2.7c2.7-0.7,5.8-1.1,9.1-1.1
				c5.4,0,8,1.5,8,4.6c0,0.7-0.1,1.4-0.4,2.1c-0.2,0.6-0.5,1.2-0.8,1.7c-0.6-0.1-1.4-0.2-2.3-0.4c-0.9-0.1-1.9-0.2-2.9-0.2
				c-2.4,0-4.7,0.3-6.7,0.8c-2,0.5-3.7,1.2-5.1,2V457.2z"/>
			<path class="stw0" d="M414.6,413.3c5.7,0,10.2,1.2,13.5,3.7c3.4,2.5,5,6.4,5,11.7V450c0,1.4-0.3,2.5-1,3.2
				c-0.6,0.8-1.5,1.5-2.6,2.1c-1.6,0.9-3.6,1.7-6.1,2.4c-2.5,0.7-5.4,1-8.7,1c-5.9,0-10.5-1.2-13.9-3.5c-3.3-2.3-5-5.7-5-10.2
				c0-4,1.3-7.1,3.9-9.2c2.6-2.1,6.3-3.4,11.2-3.9l12.7-1.3v-2c0-2.7-0.9-4.6-2.6-5.9c-1.7-1.2-4.2-1.8-7.3-1.8c-2.4,0-4.8,0.3-7,1
				c-2.3,0.7-4.3,1.4-6,2.3c-0.6-0.5-1.1-1.1-1.6-1.8c-0.4-0.7-0.6-1.5-0.6-2.3c0-1,0.3-1.9,0.8-2.6c0.5-0.7,1.3-1.2,2.4-1.7
				c1.7-0.9,3.7-1.5,5.9-1.9C409.9,413.5,412.2,413.3,414.6,413.3z M414.8,451.3c2.1,0,4-0.2,5.6-0.6c1.6-0.4,2.7-0.9,3.4-1.4v-11.6
				l-10,1c-2.8,0.3-4.9,0.9-6.3,1.9c-1.4,0.9-2.1,2.4-2.1,4.3c0,2,0.8,3.6,2.3,4.7C409.2,450.7,411.6,451.3,414.8,451.3z"/>
		</g>
	</g>
	<g>
		<path class="stw0" d="M7.7,487v4.6c-0.1,0-0.2,0.1-0.3,0.1c-0.1,0-0.3,0.1-0.5,0.1c-0.6,0-0.9-0.3-0.9-0.8v-11.4
			c0-0.2,0.1-0.4,0.2-0.5s0.3-0.2,0.5-0.3c0.4-0.1,0.9-0.2,1.5-0.3c0.6-0.1,1.2-0.1,1.7-0.1c1.8,0,3.2,0.4,4,1.2
			c0.8,0.8,1.3,1.8,1.3,3.1c0,1.3-0.4,2.4-1.3,3.2c-0.9,0.8-2.2,1.2-4,1.2H7.7z M9.7,485.5c1.1,0,2-0.2,2.7-0.7
			c0.6-0.5,0.9-1.2,0.9-2.2c0-1-0.3-1.7-0.9-2.1c-0.6-0.5-1.5-0.7-2.6-0.7c-0.4,0-0.8,0-1.2,0.1c-0.4,0-0.7,0.1-1,0.1v5.5H9.7z"/>
		<path class="stw0" d="M26.6,486.7c0,0.8-0.1,1.5-0.3,2.2c-0.2,0.6-0.6,1.2-1,1.7s-0.9,0.8-1.5,1.1c-0.6,0.2-1.3,0.4-2,0.4
			s-1.4-0.1-2-0.4c-0.6-0.2-1.1-0.6-1.5-1.1c-0.4-0.5-0.8-1-1-1.7c-0.2-0.6-0.3-1.4-0.3-2.2c0-0.8,0.1-1.5,0.4-2.2
			c0.2-0.6,0.6-1.2,1-1.7c0.4-0.5,0.9-0.8,1.5-1.1c0.6-0.2,1.3-0.4,2-0.4c0.7,0,1.4,0.1,2,0.4c0.6,0.2,1.1,0.6,1.5,1.1s0.8,1,1,1.7
			C26.5,485.2,26.6,485.9,26.6,486.7z M21.7,482.9c-1,0-1.7,0.3-2.3,1s-0.8,1.6-0.8,2.8c0,1.2,0.3,2.2,0.8,2.8c0.6,0.7,1.3,1,2.3,1
			s1.8-0.3,2.3-1c0.5-0.7,0.8-1.6,0.8-2.8s-0.3-2.1-0.8-2.8C23.5,483.2,22.7,482.9,21.7,482.9z"/>
		<path class="stw0" d="M35.4,484.3c-0.2,0.7-0.4,1.4-0.6,2c-0.2,0.7-0.4,1.3-0.6,2c-0.2,0.6-0.4,1.2-0.6,1.8
			c-0.2,0.6-0.4,1.1-0.6,1.5c-0.1,0.1-0.2,0.1-0.4,0.2c-0.1,0-0.3,0.1-0.6,0.1c-0.2,0-0.4,0-0.6-0.1c-0.2-0.1-0.3-0.2-0.4-0.4
			c-0.2-0.4-0.4-0.9-0.6-1.7c-0.2-0.8-0.5-1.6-0.7-2.5c-0.3-0.9-0.5-1.8-0.7-2.8c-0.2-0.9-0.4-1.7-0.5-2.4c0.1-0.1,0.2-0.2,0.4-0.3
			c0.2-0.1,0.3-0.1,0.5-0.1c0.3,0,0.5,0.1,0.6,0.2c0.1,0.2,0.2,0.4,0.3,0.7c0.1,0.6,0.3,1.3,0.5,2.1c0.2,0.8,0.3,1.5,0.5,2.2
			c0.2,0.7,0.3,1.4,0.5,2c0.2,0.6,0.3,1,0.3,1.3h0.1c0.1-0.3,0.2-0.6,0.4-1.2c0.2-0.5,0.4-1.1,0.6-1.8c0.2-0.7,0.5-1.4,0.7-2.2
			c0.3-0.8,0.5-1.5,0.8-2.3c0.3-0.1,0.6-0.2,0.9-0.2c0.5,0,0.9,0.2,1,0.6c0.3,0.7,0.5,1.5,0.7,2.2c0.2,0.7,0.5,1.4,0.7,2.1
			s0.4,1.2,0.5,1.7c0.1,0.5,0.3,0.9,0.3,1.1h0.1c0.3-1.3,0.7-2.7,1.1-4.1c0.4-1.4,0.7-2.9,0.9-4.3c0.2-0.1,0.4-0.2,0.7-0.2
			c0.2,0,0.4,0.1,0.6,0.2c0.1,0.1,0.2,0.3,0.2,0.5c0,0.2,0,0.5-0.1,0.9c-0.1,0.5-0.2,1-0.4,1.6c-0.2,0.6-0.3,1.2-0.5,1.9
			c-0.2,0.7-0.4,1.3-0.6,2c-0.2,0.6-0.4,1.2-0.6,1.7c-0.2,0.5-0.3,0.9-0.5,1.2c-0.1,0.1-0.2,0.1-0.4,0.2c-0.2,0-0.4,0.1-0.6,0.1
			c-0.3,0-0.5,0-0.7-0.1c-0.2-0.1-0.3-0.2-0.4-0.3c-0.2-0.4-0.3-0.8-0.5-1.4c-0.2-0.5-0.4-1.1-0.6-1.7c-0.2-0.6-0.4-1.3-0.6-2
			C35.8,485.6,35.6,484.9,35.4,484.3z"/>
		<path class="stw0" d="M45.8,487.7c0.4,1.9,1.6,2.8,3.7,2.8c0.6,0,1.1-0.1,1.6-0.3c0.5-0.2,0.9-0.4,1.2-0.6c0.3,0.2,0.5,0.5,0.5,0.8
			c0,0.2-0.1,0.4-0.3,0.6c-0.2,0.2-0.4,0.4-0.7,0.5c-0.3,0.1-0.7,0.3-1.1,0.3c-0.4,0.1-0.8,0.1-1.3,0.1c-1.7,0-3-0.5-3.9-1.4
			s-1.5-2.2-1.5-4c0-0.8,0.1-1.5,0.4-2.2c0.2-0.6,0.6-1.2,1-1.6c0.4-0.4,0.9-0.8,1.5-1c0.6-0.2,1.2-0.4,1.9-0.4
			c0.6,0,1.2,0.1,1.8,0.3c0.5,0.2,1,0.5,1.4,0.9c0.4,0.4,0.7,0.9,0.9,1.4c0.2,0.5,0.3,1.1,0.3,1.8c0,0.3-0.1,0.5-0.2,0.7
			c-0.1,0.1-0.3,0.2-0.6,0.2L45.8,487.7z M48.8,482.8c-0.9,0-1.6,0.3-2.2,0.9c-0.6,0.6-0.9,1.5-0.9,2.6l5.9-0.8
			c-0.1-0.8-0.3-1.4-0.8-1.9C50.3,483.1,49.6,482.8,48.8,482.8z"/>
		<path class="stw0" d="M57.5,491.6c-0.1,0-0.2,0.1-0.3,0.1c-0.1,0-0.3,0.1-0.5,0.1c-0.6,0-0.9-0.3-0.9-0.8v-7.3
			c0-0.3,0.1-0.6,0.2-0.8s0.3-0.4,0.6-0.6c0.4-0.2,0.9-0.5,1.5-0.6c0.6-0.2,1.4-0.3,2.2-0.3c1.1,0,1.7,0.3,1.7,0.9
			c0,0.1,0,0.3-0.1,0.4c0,0.1-0.1,0.2-0.2,0.3c-0.1,0-0.3-0.1-0.6-0.1s-0.5,0-0.7,0c-0.7,0-1.2,0.1-1.7,0.2
			c-0.5,0.1-0.9,0.3-1.2,0.5V491.6z"/>
		<path class="stw0" d="M65,487.7c0.4,1.9,1.6,2.8,3.7,2.8c0.6,0,1.1-0.1,1.6-0.3c0.5-0.2,0.9-0.4,1.2-0.6c0.3,0.2,0.5,0.5,0.5,0.8
			c0,0.2-0.1,0.4-0.3,0.6c-0.2,0.2-0.4,0.4-0.7,0.5c-0.3,0.1-0.7,0.3-1.1,0.3c-0.4,0.1-0.8,0.1-1.3,0.1c-1.7,0-3-0.5-3.9-1.4
			c-1-0.9-1.5-2.2-1.5-4c0-0.8,0.1-1.5,0.4-2.2c0.2-0.6,0.6-1.2,1-1.6c0.4-0.4,0.9-0.8,1.5-1c0.6-0.2,1.2-0.4,1.9-0.4
			c0.6,0,1.2,0.1,1.8,0.3c0.5,0.2,1,0.5,1.4,0.9c0.4,0.4,0.7,0.9,0.9,1.4c0.2,0.5,0.3,1.1,0.3,1.8c0,0.3-0.1,0.5-0.2,0.7
			c-0.1,0.1-0.3,0.2-0.6,0.2L65,487.7z M67.9,482.8c-0.9,0-1.6,0.3-2.2,0.9c-0.6,0.6-0.9,1.5-0.9,2.6l5.9-0.8
			c-0.1-0.8-0.3-1.4-0.8-1.9C69.5,483.1,68.8,482.8,67.9,482.8z"/>
		<path class="stw0" d="M83.4,490c0,0.3-0.1,0.5-0.2,0.7c-0.1,0.2-0.3,0.3-0.6,0.5c-0.3,0.2-0.7,0.4-1.2,0.5s-1.1,0.2-1.8,0.2
			c-0.8,0-1.5-0.1-2.1-0.3s-1.2-0.5-1.7-0.9c-0.5-0.4-0.8-1-1.1-1.6c-0.3-0.7-0.4-1.4-0.4-2.4c0-0.9,0.1-1.7,0.4-2.4
			c0.3-0.7,0.6-1.2,1-1.6c0.4-0.4,1-0.7,1.5-0.9c0.6-0.2,1.2-0.3,1.9-0.3c0.5,0,0.9,0.1,1.3,0.2c0.4,0.1,0.8,0.3,1.1,0.4v-4.3
			c0.1,0,0.2-0.1,0.3-0.1c0.2,0,0.3-0.1,0.5-0.1c0.6,0,0.9,0.3,0.9,0.8V490z M81.7,483.6c-0.3-0.2-0.6-0.4-1-0.5
			c-0.4-0.1-0.8-0.2-1.3-0.2c-0.4,0-0.9,0.1-1.3,0.2c-0.4,0.1-0.7,0.4-1,0.7c-0.3,0.3-0.5,0.7-0.7,1.2c-0.2,0.5-0.3,1.1-0.3,1.8
			c0,1.3,0.3,2.3,0.9,2.9s1.5,0.9,2.5,0.9c0.5,0,0.9-0.1,1.2-0.2c0.3-0.1,0.6-0.2,0.9-0.4V483.6z"/>
		<path class="stw0" d="M95.4,481.4c0.7,0,1.3,0.1,1.8,0.3c0.6,0.2,1.1,0.5,1.5,1c0.4,0.4,0.8,1,1,1.6c0.2,0.7,0.4,1.4,0.4,2.3
			c0,0.9-0.1,1.7-0.4,2.3c-0.2,0.7-0.6,1.2-1,1.6c-0.4,0.4-1,0.7-1.6,1c-0.6,0.2-1.3,0.3-2,0.3c-0.7,0-1.3-0.1-1.9-0.2
			s-1-0.4-1.4-0.6c-0.3-0.2-0.5-0.4-0.6-0.5c-0.1-0.2-0.2-0.4-0.2-0.7v-12.1c0.1,0,0.2-0.1,0.3-0.1c0.2,0,0.3-0.1,0.5-0.1
			c0.6,0,0.9,0.3,0.9,0.8v3.8c0.3-0.2,0.7-0.4,1.1-0.5C94.3,481.5,94.8,481.4,95.4,481.4z M95.1,482.9c-0.5,0-1,0.1-1.4,0.3
			c-0.4,0.2-0.8,0.4-1,0.6v6.1c0.2,0.2,0.5,0.3,0.9,0.5s0.9,0.2,1.4,0.2c0.5,0,0.9-0.1,1.3-0.2s0.7-0.4,1-0.7s0.5-0.7,0.7-1.2
			c0.2-0.5,0.2-1,0.2-1.7c0-0.7-0.1-1.2-0.2-1.7c-0.2-0.5-0.4-0.9-0.7-1.2c-0.3-0.3-0.6-0.5-1-0.7S95.6,482.9,95.1,482.9z"/>
		<path class="stw0" d="M104.5,489.4c-0.2-0.3-0.4-0.8-0.6-1.3c-0.2-0.5-0.5-1.1-0.8-1.8s-0.5-1.4-0.8-2.1c-0.3-0.7-0.5-1.5-0.8-2.2
			c0.1-0.1,0.2-0.3,0.4-0.3c0.2-0.1,0.3-0.1,0.5-0.1c0.2,0,0.4,0.1,0.6,0.2c0.2,0.1,0.3,0.3,0.4,0.6c0.4,1.2,0.9,2.4,1.3,3.6
			s1,2.4,1.6,3.7h0.1c0.2-0.4,0.5-1,0.7-1.6c0.2-0.6,0.5-1.3,0.7-2c0.2-0.7,0.5-1.4,0.7-2.2c0.2-0.7,0.4-1.4,0.5-2.1
			c0.1,0,0.2-0.1,0.3-0.1c0.1,0,0.3-0.1,0.4-0.1c0.2,0,0.4,0.1,0.6,0.2c0.2,0.1,0.2,0.3,0.2,0.5c0,0.3-0.1,0.8-0.3,1.6
			c-0.2,0.8-0.5,1.6-0.8,2.6c-0.3,0.9-0.7,1.9-1.1,2.9s-0.8,1.9-1.3,2.7c-0.7,1.2-1.3,2.2-1.8,2.8s-1,1-1.5,1
			c-0.3,0-0.6-0.1-0.8-0.3c-0.2-0.2-0.3-0.4-0.3-0.6c0.2-0.2,0.5-0.5,0.8-0.8c0.3-0.3,0.6-0.7,0.9-1c0.3-0.4,0.6-0.7,0.8-1.1
			c0.3-0.4,0.5-0.8,0.6-1.1c-0.2-0.1-0.5-0.2-0.7-0.4C105,490.3,104.8,489.9,104.5,489.4z"/>
		<path class="stw0" d="M127.2,480c0,0.2-0.1,0.4-0.2,0.5c-0.1,0.1-0.3,0.3-0.4,0.3c-0.4-0.3-0.8-0.5-1.3-0.7c-0.5-0.2-1.2-0.3-2-0.3
			c-0.7,0-1.3,0.1-1.8,0.3s-1,0.6-1.5,1c-0.4,0.4-0.7,1-1,1.7c-0.2,0.7-0.4,1.4-0.4,2.3c0,0.9,0.1,1.7,0.3,2.3s0.5,1.2,1,1.7
			s0.9,0.8,1.5,1c0.6,0.2,1.2,0.3,1.9,0.3c0.7,0,1.4-0.1,1.9-0.3s1-0.5,1.4-0.7c0.1,0.1,0.3,0.2,0.4,0.3c0.1,0.2,0.2,0.3,0.2,0.5
			c0,0.3-0.2,0.6-0.5,0.8c-0.3,0.2-0.8,0.4-1.4,0.6s-1.3,0.3-2.2,0.3c-0.9,0-1.7-0.1-2.5-0.4c-0.8-0.3-1.4-0.7-2-1.3
			c-0.6-0.6-1-1.3-1.3-2.1c-0.3-0.8-0.5-1.8-0.5-3s0.2-2.1,0.5-3c0.3-0.9,0.8-1.6,1.4-2.1c0.6-0.6,1.2-1,2-1.3
			c0.8-0.3,1.6-0.4,2.4-0.4c0.6,0,1.1,0.1,1.6,0.2c0.5,0.1,0.9,0.2,1.3,0.4c0.4,0.2,0.6,0.4,0.8,0.6
			C127.1,479.6,127.2,479.8,127.2,480z"/>
		<path class="stw0" d="M138.7,486.7c0,0.8-0.1,1.5-0.3,2.2c-0.2,0.6-0.6,1.2-1,1.7s-0.9,0.8-1.5,1.1c-0.6,0.2-1.3,0.4-2,0.4
			s-1.4-0.1-2-0.4c-0.6-0.2-1.1-0.6-1.5-1.1c-0.4-0.5-0.8-1-1-1.7c-0.2-0.6-0.3-1.4-0.3-2.2c0-0.8,0.1-1.5,0.4-2.2
			c0.2-0.6,0.6-1.2,1-1.7c0.4-0.5,0.9-0.8,1.5-1.1c0.6-0.2,1.3-0.4,2-0.4c0.7,0,1.4,0.1,2,0.4c0.6,0.2,1.1,0.6,1.5,1.1s0.8,1,1,1.7
			C138.5,485.2,138.7,485.9,138.7,486.7z M133.8,482.9c-1,0-1.7,0.3-2.3,1s-0.8,1.6-0.8,2.8c0,1.2,0.3,2.2,0.8,2.8
			c0.6,0.7,1.3,1,2.3,1s1.8-0.3,2.3-1c0.5-0.7,0.8-1.6,0.8-2.8s-0.3-2.1-0.8-2.8C135.5,483.2,134.7,482.9,133.8,482.9z"/>
		<path class="stw0" d="M142.9,491.7c-0.1,0-0.3,0.1-0.5,0.1c-0.6,0-0.9-0.3-0.9-0.8v-13.3c0.1,0,0.2-0.1,0.3-0.1s0.3-0.1,0.5-0.1
			c0.6,0,0.9,0.3,0.9,0.8v13.3C143.1,491.6,143,491.7,142.9,491.7z"/>
		<path class="stw0" d="M148.2,491.7c-0.1,0-0.3,0.1-0.5,0.1c-0.6,0-0.9-0.3-0.9-0.8v-13.3c0.1,0,0.2-0.1,0.3-0.1s0.3-0.1,0.5-0.1
			c0.6,0,0.9,0.3,0.9,0.8v13.3C148.5,491.6,148.4,491.7,148.2,491.7z"/>
		<path class="stw0" d="M155.5,481.4c1.2,0,2.2,0.3,3,0.8c0.7,0.6,1.1,1.4,1.1,2.6v5.1c0,0.3-0.1,0.6-0.2,0.7
			c-0.1,0.2-0.3,0.3-0.5,0.5c-0.3,0.2-0.8,0.4-1.4,0.5s-1.2,0.2-1.9,0.2c-1.3,0-2.4-0.3-3.1-0.8c-0.7-0.5-1.1-1.3-1.1-2.3
			c0-0.9,0.3-1.7,0.9-2.1c0.6-0.5,1.5-0.8,2.6-0.9l3.1-0.3v-0.6c0-0.7-0.2-1.2-0.6-1.6c-0.4-0.3-1-0.5-1.7-0.5
			c-0.6,0-1.2,0.1-1.7,0.3s-1,0.4-1.4,0.6c-0.1-0.1-0.2-0.2-0.3-0.3s-0.1-0.3-0.1-0.4c0-0.2,0-0.4,0.2-0.5c0.1-0.1,0.3-0.3,0.5-0.4
			c0.4-0.2,0.8-0.4,1.3-0.5C154.4,481.5,154.9,481.4,155.5,481.4z M155.5,490.5c0.6,0,1.1-0.1,1.5-0.2c0.4-0.1,0.7-0.2,0.8-0.4v-3.1
			l-2.7,0.3c-0.7,0.1-1.3,0.2-1.7,0.5c-0.4,0.3-0.5,0.7-0.5,1.2c0,0.5,0.2,1,0.6,1.3C154,490.4,154.7,490.5,155.5,490.5z"/>
		<path class="stw0" d="M167.1,481.4c0.7,0,1.3,0.1,1.8,0.3c0.6,0.2,1.1,0.5,1.5,1c0.4,0.4,0.8,1,1,1.6c0.2,0.7,0.4,1.4,0.4,2.3
			c0,0.9-0.1,1.7-0.4,2.3c-0.2,0.7-0.6,1.2-1,1.6c-0.4,0.4-1,0.7-1.6,1c-0.6,0.2-1.3,0.3-2,0.3c-0.7,0-1.3-0.1-1.9-0.2
			s-1-0.4-1.4-0.6c-0.3-0.2-0.5-0.4-0.6-0.5c-0.1-0.2-0.2-0.4-0.2-0.7v-12.1c0.1,0,0.2-0.1,0.3-0.1c0.2,0,0.3-0.1,0.5-0.1
			c0.6,0,0.9,0.3,0.9,0.8v3.8c0.3-0.2,0.7-0.4,1.1-0.5C166,481.5,166.5,481.4,167.1,481.4z M166.9,482.9c-0.5,0-1,0.1-1.4,0.3
			c-0.4,0.2-0.8,0.4-1,0.6v6.1c0.2,0.2,0.5,0.3,0.9,0.5s0.9,0.2,1.4,0.2c0.5,0,0.9-0.1,1.3-0.2s0.7-0.4,1-0.7s0.5-0.7,0.7-1.2
			c0.2-0.5,0.2-1,0.2-1.7c0-0.7-0.1-1.2-0.2-1.7c-0.2-0.5-0.4-0.9-0.7-1.2c-0.3-0.3-0.6-0.5-1-0.7S167.3,482.9,166.9,482.9z"/>
		<path class="stw0" d="M175.7,487.7c0.4,1.9,1.6,2.8,3.7,2.8c0.6,0,1.1-0.1,1.6-0.3c0.5-0.2,0.9-0.4,1.2-0.6
			c0.3,0.2,0.5,0.5,0.5,0.8c0,0.2-0.1,0.4-0.3,0.6c-0.2,0.2-0.4,0.4-0.7,0.5c-0.3,0.1-0.7,0.3-1.1,0.3c-0.4,0.1-0.8,0.1-1.3,0.1
			c-1.7,0-3-0.5-3.9-1.4s-1.5-2.2-1.5-4c0-0.8,0.1-1.5,0.4-2.2c0.2-0.6,0.6-1.2,1-1.6c0.4-0.4,0.9-0.8,1.5-1
			c0.6-0.2,1.2-0.4,1.9-0.4c0.6,0,1.2,0.1,1.8,0.3c0.5,0.2,1,0.5,1.4,0.9c0.4,0.4,0.7,0.9,0.9,1.4c0.2,0.5,0.3,1.1,0.3,1.8
			c0,0.3-0.1,0.5-0.2,0.7c-0.1,0.1-0.3,0.2-0.6,0.2L175.7,487.7z M178.7,482.8c-0.9,0-1.6,0.3-2.2,0.9c-0.6,0.6-0.9,1.5-0.9,2.6
			l5.9-0.8c-0.1-0.8-0.3-1.4-0.8-1.9C180.2,483.1,179.6,482.8,178.7,482.8z"/>
		<path class="stw0" d="M187.4,491.6c-0.1,0-0.2,0.1-0.3,0.1c-0.1,0-0.3,0.1-0.5,0.1c-0.6,0-0.9-0.3-0.9-0.8v-7.3
			c0-0.3,0.1-0.6,0.2-0.8s0.3-0.4,0.6-0.6c0.4-0.2,0.9-0.5,1.5-0.6c0.6-0.2,1.4-0.3,2.2-0.3c1.1,0,1.7,0.3,1.7,0.9
			c0,0.1,0,0.3-0.1,0.4c0,0.1-0.1,0.2-0.2,0.3c-0.1,0-0.3-0.1-0.6-0.1s-0.5,0-0.7,0c-0.7,0-1.2,0.1-1.7,0.2
			c-0.5,0.1-0.9,0.3-1.2,0.5V491.6z"/>
		<path class="stw0" d="M193.9,481.8c0.1,0,0.2-0.1,0.3-0.1c0.2,0,0.3-0.1,0.5-0.1c0.6,0,0.9,0.3,0.9,0.8v5.5c0,0.9,0.2,1.6,0.7,2
			c0.5,0.4,1.2,0.6,2,0.6c0.6,0,1.1-0.1,1.5-0.2s0.7-0.2,0.9-0.4v-8.2c0.1,0,0.2-0.1,0.3-0.1c0.2,0,0.3-0.1,0.5-0.1
			c0.6,0,0.9,0.3,0.9,0.8v7.5c0,0.3,0,0.5-0.1,0.7c-0.1,0.2-0.3,0.4-0.6,0.5c-0.3,0.2-0.8,0.4-1.4,0.5c-0.6,0.2-1.3,0.3-2.1,0.3
			c-1.4,0-2.5-0.3-3.3-0.9c-0.8-0.6-1.2-1.6-1.2-3V481.8z"/>
		<path class="stw0" d="M212.7,489c0,0.9-0.3,1.6-1,2.2c-0.7,0.5-1.6,0.8-2.9,0.8c-0.5,0-1,0-1.5-0.1c-0.5-0.1-0.8-0.2-1.2-0.4
			c-0.3-0.2-0.6-0.3-0.8-0.5s-0.3-0.4-0.3-0.6c0-0.2,0-0.3,0.1-0.5c0.1-0.2,0.2-0.3,0.4-0.4c0.4,0.3,0.8,0.5,1.4,0.8
			c0.5,0.2,1.1,0.3,1.8,0.3c1.5,0,2.2-0.5,2.2-1.5c0-0.8-0.5-1.3-1.5-1.6l-1.8-0.5c-0.9-0.2-1.5-0.6-1.9-1s-0.6-1-0.6-1.7
			c0-0.4,0.1-0.7,0.2-1.1c0.2-0.3,0.4-0.6,0.7-0.9c0.3-0.3,0.7-0.5,1.2-0.6c0.5-0.2,1-0.2,1.6-0.2c1,0,1.8,0.1,2.4,0.4
			c0.6,0.3,0.9,0.6,0.9,1c0,0.2,0,0.4-0.1,0.5c-0.1,0.1-0.2,0.3-0.4,0.3c-0.3-0.2-0.6-0.4-1.1-0.6c-0.5-0.2-1-0.3-1.7-0.3
			c-0.6,0-1.2,0.1-1.5,0.4c-0.4,0.2-0.6,0.6-0.6,1c0,0.3,0.1,0.6,0.3,0.8s0.6,0.4,1.1,0.5l1.5,0.4c1,0.2,1.7,0.6,2.2,1.1
			C212.5,487.6,212.7,488.2,212.7,489z"/>
		<path class="stw0" d="M224.5,480.1v11.5c-0.1,0-0.2,0.1-0.3,0.1s-0.3,0.1-0.5,0.1c-0.6,0-0.9-0.3-0.9-0.8v-10.9h-4
			c0-0.1-0.1-0.2-0.1-0.3s-0.1-0.3-0.1-0.4c0-0.2,0.1-0.4,0.2-0.6s0.3-0.2,0.5-0.2h9.3c0,0.1,0.1,0.2,0.1,0.3s0.1,0.3,0.1,0.4
			c0,0.2-0.1,0.4-0.2,0.6s-0.3,0.2-0.5,0.2H224.5z"/>
		<path class="stw0" d="M230.7,487.7c0.4,1.9,1.6,2.8,3.7,2.8c0.6,0,1.1-0.1,1.6-0.3c0.5-0.2,0.9-0.4,1.2-0.6
			c0.3,0.2,0.5,0.5,0.5,0.8c0,0.2-0.1,0.4-0.3,0.6c-0.2,0.2-0.4,0.4-0.7,0.5c-0.3,0.1-0.7,0.3-1.1,0.3c-0.4,0.1-0.8,0.1-1.3,0.1
			c-1.7,0-3-0.5-3.9-1.4s-1.5-2.2-1.5-4c0-0.8,0.1-1.5,0.4-2.2c0.2-0.6,0.6-1.2,1-1.6s0.9-0.8,1.5-1c0.6-0.2,1.2-0.4,1.9-0.4
			c0.6,0,1.2,0.1,1.8,0.3c0.5,0.2,1,0.5,1.4,0.9c0.4,0.4,0.7,0.9,0.9,1.4c0.2,0.5,0.3,1.1,0.3,1.8c0,0.3-0.1,0.5-0.2,0.7
			c-0.1,0.1-0.3,0.2-0.6,0.2L230.7,487.7z M233.7,482.8c-0.9,0-1.6,0.3-2.2,0.9s-0.9,1.5-0.9,2.6l5.9-0.8c-0.1-0.8-0.3-1.4-0.8-1.9
			C235.2,483.1,234.5,482.8,233.7,482.8z"/>
		<path class="stw0" d="M245.2,482.9c-0.5,0-0.9,0.1-1.4,0.2c-0.4,0.2-0.8,0.4-1.1,0.7c-0.3,0.3-0.5,0.7-0.7,1.2s-0.3,1-0.3,1.6
			c0,1.2,0.3,2.2,0.9,2.8c0.6,0.7,1.4,1,2.5,1c0.6,0,1.1-0.1,1.5-0.2s0.8-0.4,1.1-0.6c0.2,0.1,0.3,0.2,0.4,0.3
			c0.1,0.1,0.2,0.3,0.2,0.5c0,0.2-0.1,0.4-0.2,0.6c-0.2,0.2-0.4,0.3-0.7,0.5s-0.6,0.2-1,0.3s-0.8,0.1-1.2,0.1
			c-0.7,0-1.4-0.1-2.1-0.3s-1.2-0.5-1.6-1s-0.8-1-1.1-1.6c-0.3-0.7-0.4-1.4-0.4-2.3c0-0.9,0.1-1.6,0.4-2.3s0.6-1.2,1.1-1.6
			s1-0.8,1.6-1c0.6-0.2,1.3-0.3,2-0.3c0.4,0,0.9,0,1.2,0.1c0.4,0.1,0.7,0.2,1,0.3s0.5,0.3,0.6,0.5c0.2,0.2,0.2,0.4,0.2,0.5
			c0,0.2-0.1,0.3-0.2,0.5c-0.1,0.1-0.2,0.2-0.4,0.3c-0.3-0.2-0.7-0.4-1-0.6C246.3,483,245.8,482.9,245.2,482.9z"/>
		<path class="stw0" d="M252.3,491.7c-0.1,0-0.3,0.1-0.5,0.1c-0.6,0-0.9-0.3-0.9-0.8v-13.3c0.1,0,0.2-0.1,0.3-0.1s0.3-0.1,0.5-0.1
			c0.6,0,0.9,0.3,0.9,0.8v3.9c0.3-0.2,0.7-0.4,1.2-0.5c0.5-0.2,1-0.2,1.6-0.2c0.6,0,1.2,0.1,1.6,0.2c0.5,0.2,0.9,0.4,1.3,0.7
			c0.4,0.3,0.6,0.7,0.8,1.2c0.2,0.5,0.3,1.1,0.3,1.7v6.3c-0.1,0-0.2,0.1-0.3,0.1c-0.2,0-0.3,0.1-0.5,0.1c-0.6,0-0.9-0.3-0.9-0.8
			v-5.6c0-0.9-0.2-1.5-0.7-1.9c-0.5-0.4-1.1-0.6-1.9-0.6c-0.5,0-1,0.1-1.4,0.3c-0.4,0.2-0.8,0.4-1.2,0.7v7.8
			C252.6,491.6,252.5,491.7,252.3,491.7z"/>
		<path class="stw0" d="M269,483.4c-0.5-0.4-1.1-0.6-1.8-0.6c-0.6,0-1.1,0.1-1.5,0.2s-0.8,0.3-1.1,0.5v8c-0.1,0-0.2,0.1-0.3,0.1
			c-0.1,0-0.3,0.1-0.5,0.1c-0.6,0-0.9-0.3-0.9-0.8v-7.3c0-0.3,0.1-0.5,0.2-0.7c0.1-0.2,0.3-0.4,0.6-0.6c0.4-0.2,0.9-0.4,1.5-0.6
			c0.6-0.2,1.3-0.3,2.1-0.3c1.3,0,2.3,0.3,3.1,0.9c0.8,0.6,1.1,1.5,1.1,2.8v6.5c-0.1,0-0.2,0.1-0.3,0.1s-0.3,0.1-0.5,0.1
			c-0.6,0-0.9-0.3-0.9-0.8v-5.8C269.6,484.4,269.4,483.8,269,483.4z"/>
		<path class="stw0" d="M283.8,486.7c0,0.8-0.1,1.5-0.3,2.2c-0.2,0.6-0.6,1.2-1,1.7s-0.9,0.8-1.5,1.1c-0.6,0.2-1.3,0.4-2,0.4
			c-0.7,0-1.4-0.1-2-0.4c-0.6-0.2-1.1-0.6-1.5-1.1c-0.4-0.5-0.8-1-1-1.7c-0.2-0.6-0.3-1.4-0.3-2.2c0-0.8,0.1-1.5,0.4-2.2
			c0.2-0.6,0.6-1.2,1-1.7c0.4-0.5,0.9-0.8,1.5-1.1c0.6-0.2,1.3-0.4,2-0.4c0.7,0,1.4,0.1,2,0.4c0.6,0.2,1.1,0.6,1.5,1.1s0.8,1,1,1.7
			C283.7,485.2,283.8,485.9,283.8,486.7z M278.9,482.9c-1,0-1.7,0.3-2.3,1c-0.6,0.7-0.8,1.6-0.8,2.8c0,1.2,0.3,2.2,0.8,2.8
			s1.3,1,2.3,1s1.8-0.3,2.3-1s0.8-1.6,0.8-2.8s-0.3-2.1-0.8-2.8C280.7,483.2,279.9,482.9,278.9,482.9z"/>
		<path class="stw0" d="M288,491.7c-0.1,0-0.3,0.1-0.5,0.1c-0.6,0-0.9-0.3-0.9-0.8v-13.3c0.1,0,0.2-0.1,0.3-0.1s0.3-0.1,0.5-0.1
			c0.6,0,0.9,0.3,0.9,0.8v13.3C288.3,491.6,288.2,491.7,288,491.7z"/>
		<path class="stw0" d="M301,486.7c0,0.8-0.1,1.5-0.3,2.2c-0.2,0.6-0.6,1.2-1,1.7s-0.9,0.8-1.5,1.1c-0.6,0.2-1.3,0.4-2,0.4
			c-0.7,0-1.4-0.1-2-0.4c-0.6-0.2-1.1-0.6-1.5-1.1c-0.4-0.5-0.8-1-1-1.7c-0.2-0.6-0.3-1.4-0.3-2.2c0-0.8,0.1-1.5,0.4-2.2
			c0.2-0.6,0.6-1.2,1-1.7c0.4-0.5,0.9-0.8,1.5-1.1c0.6-0.2,1.3-0.4,2-0.4c0.7,0,1.4,0.1,2,0.4c0.6,0.2,1.1,0.6,1.5,1.1s0.8,1,1,1.7
			C300.9,485.2,301,485.9,301,486.7z M296.1,482.9c-1,0-1.7,0.3-2.3,1c-0.6,0.7-0.8,1.6-0.8,2.8c0,1.2,0.3,2.2,0.8,2.8s1.3,1,2.3,1
			s1.8-0.3,2.3-1s0.8-1.6,0.8-2.8s-0.3-2.1-0.8-2.8C297.8,483.2,297.1,482.9,296.1,482.9z"/>
		<path class="stw0" d="M310.3,490.6c-0.2,0.2-0.6,0.4-1,0.5c-0.4,0.1-0.9,0.2-1.5,0.2c-0.6,0-1.2-0.1-1.8-0.3
			c-0.6-0.2-1.1-0.5-1.5-0.9s-0.8-0.9-1-1.5s-0.4-1.4-0.4-2.3c0-0.8,0.1-1.5,0.4-2.2c0.2-0.6,0.6-1.1,1-1.5c0.4-0.4,1-0.7,1.6-0.9
			c0.6-0.2,1.3-0.3,2-0.3c0.7,0,1.3,0.1,1.8,0.2s1,0.4,1.4,0.6c0.2,0.1,0.4,0.3,0.5,0.5c0.1,0.2,0.2,0.4,0.2,0.7v8.6
			c0,0.7-0.1,1.3-0.4,1.8c-0.2,0.5-0.6,0.9-1,1.2s-0.9,0.5-1.5,0.7c-0.6,0.1-1.2,0.2-1.8,0.2c-0.7,0-1.4-0.1-1.9-0.2s-0.9-0.3-1-0.4
			c-0.4-0.2-0.6-0.6-0.6-0.9c0-0.2,0-0.4,0.1-0.5c0.1-0.1,0.2-0.2,0.4-0.3c0.3,0.2,0.7,0.4,1.3,0.6c0.5,0.2,1.1,0.3,1.8,0.3
			c1,0,1.7-0.2,2.2-0.6c0.5-0.4,0.8-1.1,0.8-2V490.6z M308,489.9c0.6,0,1-0.1,1.4-0.3c0.4-0.2,0.7-0.4,0.9-0.6v-5.6
			c-0.2-0.2-0.5-0.3-0.9-0.4s-0.8-0.2-1.3-0.2c-1,0-1.8,0.3-2.3,0.9c-0.6,0.6-0.9,1.5-0.9,2.6c0,0.6,0.1,1.2,0.2,1.6
			c0.2,0.5,0.4,0.8,0.7,1.1c0.3,0.3,0.6,0.5,1,0.6S307.5,489.9,308,489.9z"/>
		<path class="stw0" d="M315,478.6c0-0.3,0.1-0.6,0.3-0.8c0.2-0.2,0.5-0.3,0.8-0.3c0.3,0,0.6,0.1,0.8,0.3s0.3,0.5,0.3,0.8
			c0,0.3-0.1,0.6-0.3,0.8c-0.2,0.2-0.5,0.3-0.8,0.3c-0.3,0-0.6-0.1-0.8-0.3C315.2,479.1,315,478.9,315,478.6z M317,491.6
			c-0.1,0-0.2,0.1-0.3,0.1s-0.3,0.1-0.5,0.1c-0.6,0-0.9-0.3-0.9-0.8v-9.2c0.1,0,0.2-0.1,0.3-0.1c0.2,0,0.3-0.1,0.5-0.1
			c0.6,0,0.9,0.3,0.9,0.8V491.6z"/>
		<path class="stw0" d="M321.6,487.7c0.4,1.9,1.6,2.8,3.7,2.8c0.6,0,1.1-0.1,1.6-0.3c0.5-0.2,0.9-0.4,1.2-0.6
			c0.3,0.2,0.5,0.5,0.5,0.8c0,0.2-0.1,0.4-0.3,0.6c-0.2,0.2-0.4,0.4-0.7,0.5c-0.3,0.1-0.7,0.3-1.1,0.3c-0.4,0.1-0.8,0.1-1.3,0.1
			c-1.7,0-3-0.5-3.9-1.4s-1.5-2.2-1.5-4c0-0.8,0.1-1.5,0.4-2.2c0.2-0.6,0.6-1.2,1-1.6s0.9-0.8,1.5-1c0.6-0.2,1.2-0.4,1.9-0.4
			c0.6,0,1.2,0.1,1.8,0.3c0.5,0.2,1,0.5,1.4,0.9c0.4,0.4,0.7,0.9,0.9,1.4c0.2,0.5,0.3,1.1,0.3,1.8c0,0.3-0.1,0.5-0.2,0.7
			c-0.1,0.1-0.3,0.2-0.6,0.2L321.6,487.7z M324.6,482.8c-0.9,0-1.6,0.3-2.2,0.9s-0.9,1.5-0.9,2.6l5.9-0.8c-0.1-0.8-0.3-1.4-0.8-1.9
			C326.1,483.1,325.4,482.8,324.6,482.8z"/>
		<path class="stw0" d="M338.7,489c0,0.9-0.3,1.6-1,2.2c-0.7,0.5-1.6,0.8-2.9,0.8c-0.5,0-1,0-1.5-0.1c-0.5-0.1-0.8-0.2-1.2-0.4
			s-0.6-0.3-0.8-0.5s-0.3-0.4-0.3-0.6c0-0.2,0-0.3,0.1-0.5c0.1-0.2,0.2-0.3,0.4-0.4c0.4,0.3,0.8,0.5,1.4,0.8
			c0.5,0.2,1.1,0.3,1.8,0.3c1.5,0,2.2-0.5,2.2-1.5c0-0.8-0.5-1.3-1.5-1.6l-1.8-0.5c-0.9-0.2-1.5-0.6-1.9-1c-0.4-0.4-0.6-1-0.6-1.7
			c0-0.4,0.1-0.7,0.2-1.1s0.4-0.6,0.7-0.9s0.7-0.5,1.2-0.6c0.5-0.2,1-0.2,1.6-0.2c1,0,1.8,0.1,2.4,0.4s0.9,0.6,0.9,1
			c0,0.2,0,0.4-0.1,0.5c-0.1,0.1-0.2,0.3-0.4,0.3c-0.3-0.2-0.6-0.4-1.1-0.6c-0.5-0.2-1-0.3-1.7-0.3c-0.6,0-1.2,0.1-1.5,0.4
			c-0.4,0.2-0.6,0.6-0.6,1c0,0.3,0.1,0.6,0.3,0.8s0.6,0.4,1.1,0.5l1.5,0.4c1,0.2,1.7,0.6,2.2,1.1S338.7,488.2,338.7,489z"/>
	</g>
	<rect x="348" y="486.8" class="stw0" width="66.7" height="2.1"/>
</g>
<g>
	<path class="st1" d="M183.8,240.6c0,8-0.2,10.4-0.2,18.4c0,8,0,16,0,24c0,5.1-2.2,7.3-7.3,7.3c-11.2,0-22.4,0-33.5,0
		c-8.1,0-12.6-3.6-14.1-11.6c-2.2-11.9-4.5-23.8-6-35.8c-3-22.8-4.1-45.6-3.3-68.5c0.9-26.7,4.2-53.3,9.7-79.4
		c1.3-6.2,6.5-12.2,13.2-12c11.4,0.4,22.9,0.1,34.3,0.1c5,0,7.2,3,7.2,8.1c0,3.7-0.1,1-0.2,13.6c0,5-2.4,7.4-7.3,7.4
		c-3.9,0-7.8,0.1-11.6-0.1c-3.8-0.2-5.3,0.8-5.4,5.1c-0.2,15.9-1.2,67-1.4,82.8c-0.1,8.1,1,22,1.8,30c0.1,1,2,2.5,3.2,2.6
		c4.3,0.3,8.6,0.1,12.8,0.1C181.4,232.6,183.8,234.9,183.8,240.6z"/>
	<path class="st1" d="M264.8,225v56c0,0-35.3,6.9-67,9.1v-58C219.5,231.2,232.6,233.1,264.8,225z"/>
	<path class="st1" d="M312.9,269.3v-53.7c0,0,16.7-10.7,17.7-40.5c0,0,6.4-53.6-132.8-62.8V83.6c50.3,3.6,135.4,17.8,158,74.4
		c7.9,19.8,8.7,39.1,1.5,57.6C350.7,232.2,342.7,243.1,312.9,269.3z"/>
	<path class="stw0" d="M278.8,84.2V55.6c0-19.3-15.8-35.1-35.2-35.1h-2.9c0.1,0.2-108.2,0.4-107.9,0H130c-19.4,0-35,15.7-35.1,35.1
		v269.7c0,19.3,15.7,35,35.1,35.1h113.8c19.3,0,35-15.7,35.1-35.1V140.4c7.9,2.9,14.5,6.1,20,9.3v175.6c0,30.4-24.7,55.1-55.1,55.1
		H130c-30.4,0-55-24.6-55.1-55.1V55.6c0-30.4,24.7-55,55.1-55.1h113.8c30.4,0,55.1,24.7,55.1,55.1v35.9
		C292.4,88.7,285.7,86.3,278.8,84.2z"/>
	<path class="stw0" d="M231.3,11.8v0.4c0,1.1-0.1,2.2-0.3,3.2c0,0.2,0,0.3-0.1,0.5c-1.7,9.8-10.3,17.2-20.6,17.2h-47.1
		c-10.1,0-18.5-7.1-20.5-16.6c-0.1-0.4-0.2-0.7-0.2-1.1c-0.2-1.1-0.3-2.1-0.3-3.2v-0.4H231.3z"/>
</g>
<g>
</g>
<g>
</g>
<g>
</g>
<g>
</g>
<g>
</g>
<g>
</g>
</svg>
