<?xml version="1.0" encoding="utf-8"?>
<!-- Generator: Adobe Illustrator 24.0.1, SVG Export Plug-In . SVG Version: 6.00 Build 0)  -->
<svg version="1.1" id="Layer_1" xmlns="http://www.w3.org/2000/svg" xmlns:xlink="http://www.w3.org/1999/xlink" x="0px" y="0px"
	 viewBox="0 0 22 22" style="enable-background:new 0 0 22 22;" xml:space="preserve">
<style type="text/css">
	.st0{fill:#161616;}
</style>
<g>
	<path class="st0" d="M20.3,1.3c0.2,0,0.4,0.2,0.4,0.4v4.9c0,0.2,0,0.5-0.3,0.5h-6.5c-0.2,0-0.6-0.3-0.6-0.5V1.8
		c0-0.2,0.3-0.4,0.6-0.4L20.3,1.3 M20.4,0.2h-6.5c-0.8,0-1.7,0.7-1.7,1.5v4.9c0,0.8,0.8,1.7,1.7,1.7h6.5c0.8,0,1.4-0.8,1.4-1.7V1.8
		C21.8,0.9,21.3,0.2,20.4,0.2L20.4,0.2z"/>
	<path class="st0" d="M20.3,11c0.2,0,0.4,0.2,0.4,0.4v8.8c0,0.2,0,0.4-0.3,0.4h-6.5c-0.2,0-0.6-0.1-0.6-0.4v-8.8
		c0-0.2,0.3-0.4,0.6-0.4L20.3,11 M20.4,9.9h-6.5c-0.8,0-1.7,0.7-1.7,1.6v8.8c0,0.8,0.8,1.5,1.7,1.5h6.5c0.8,0,1.4-0.7,1.4-1.5v-8.8
		C21.8,10.6,21.3,9.9,20.4,9.9L20.4,9.9z"/>
	<path class="st0" d="M8.4,1.3c0.2,0,0.5,0.2,0.5,0.4v11c0,0.2,0,0.4-0.3,0.4H2c-0.2,0-0.6-0.2-0.6-0.4v-11c0-0.3,0.3-0.4,0.6-0.4
		L8.4,1.3 M8.6,0.2H2c-0.8,0-1.7,0.7-1.7,1.5v11c0,0.8,0.8,1.5,1.7,1.5h6.5c0.8,0,1.4-0.7,1.4-1.5v-11C10,0.9,9.4,0.2,8.6,0.2
		L8.6,0.2z"/>
	<path class="st0" d="M8.4,17c0.2,0,0.4,0.2,0.4,0.4V20c0,0.2,0,0.5-0.2,0.5H2.1c-0.2,0-0.6-0.2-0.6-0.5v-2.6c0-0.2,0.4-0.5,0.6-0.5
		L8.4,17 M8.6,16.1H2.1c-0.8,0-1.7,0.6-1.7,1.4v2.6c0,0.8,0.9,1.4,1.7,1.4h6.5c0.8,0,1.3-0.6,1.3-1.4v-2.6
		C10,16.6,9.4,16.1,8.6,16.1L8.6,16.1z"/>
</g>
</svg>
