<svg width="90" height="90" viewBox="0 0 90 90" fill="none" xmlns="http://www.w3.org/2000/svg">
<circle cx="45" cy="45" r="45" fill="#FFF8EB"/>
<path d="M55.3333 63.5V59.3333C55.3333 57.1232 54.4554 55.0036 52.8926 53.4408C51.3298 51.878 49.2101 51 47 51H30.3333C28.1232 51 26.0036 51.878 24.4408 53.4408C22.878 55.0036 22 57.1232 22 59.3333V63.5" stroke="#FFD581" stroke-width="3" stroke-linecap="round" stroke-linejoin="round"/>
<path d="M38.6667 42.6667C43.2691 42.6667 47 38.9357 47 34.3333C47 29.731 43.2691 26 38.6667 26C34.0643 26 30.3333 29.731 30.3333 34.3333C30.3333 38.9357 34.0643 42.6667 38.6667 42.6667Z" stroke="#FFD581" stroke-width="3" stroke-linecap="round" stroke-linejoin="round"/>
<path d="M67.8333 63.5V59.3333C67.8319 57.4869 67.2174 55.6933 66.0862 54.234C64.9549 52.7747 63.3711 51.7324 61.5833 51.2708" stroke="#FFD581" stroke-width="3" stroke-linecap="round" stroke-linejoin="round"/>
<path d="M53.25 26.2708C55.0425 26.7298 56.6313 27.7723 57.7659 29.234C58.9005 30.6957 59.5163 32.4934 59.5163 34.3438C59.5163 36.1941 58.9005 37.9918 57.7659 39.4535C56.6313 40.9152 55.0425 41.9577 53.25 42.4167" stroke="#FFD581" stroke-width="3" stroke-linecap="round" stroke-linejoin="round"/>
</svg>
