<?xml version="1.0" encoding="utf-8"?>
<!-- Generator: Adobe Illustrator 24.0.1, SVG Export Plug-In . SVG Version: 6.00 Build 0)  -->
<svg version="1.1" id="Layer_1" xmlns="http://www.w3.org/2000/svg" xmlns:xlink="http://www.w3.org/1999/xlink" x="0px" y="0px"
	 viewBox="0 0 22 22" style="enable-background:new 0 0 22 22;" xml:space="preserve">
<style type="text/css">
	.st0{fill:#161616;}
</style>
<g>
	<path class="st0" d="M0.4,20.3v1.1c0,0.1,0.1,0.2,0.2,0.2H6c0.1,0,0.2-0.1,0.2-0.2v-1.1c0-1.2-0.8-2.3-1.9-2.7
		c0.8-0.5,1.1-1.6,0.5-2.5c-0.5-0.8-1.6-1.1-2.5-0.5c-0.8,0.5-1.1,1.6-0.5,2.5c0.1,0.2,0.3,0.4,0.5,0.5C1.2,18,0.4,19.1,0.4,20.3z
		 M2,16.1c0-0.7,0.6-1.3,1.3-1.3s1.3,0.6,1.3,1.3c0,0.7-0.6,1.3-1.3,1.3S2,16.8,2,16.1L2,16.1z M3.3,17.9c1.3,0,2.4,1.1,2.4,2.4v0.9
		H0.9v-0.9C0.9,19,2,17.9,3.3,17.9L3.3,17.9z"/>
	<path class="st0" d="M12,17.6c0.8-0.5,1.1-1.6,0.5-2.5C12,14.3,10.9,14,10,14.6c-0.8,0.5-1.1,1.6-0.5,2.5c0.1,0.2,0.3,0.4,0.5,0.5
		c-1.2,0.4-1.9,1.5-1.9,2.7v1.1c0,0.1,0.1,0.2,0.2,0.2h5.3c0.1,0,0.2-0.1,0.2-0.2v-1.1C13.9,19.1,13.1,18,12,17.6z M9.7,16.1
		c0-0.7,0.6-1.3,1.3-1.3s1.3,0.6,1.3,1.3c0,0.7-0.6,1.3-1.3,1.3S9.7,16.8,9.7,16.1L9.7,16.1z M13.4,21.2H8.6v-0.9
		c0-1.3,1.1-2.4,2.4-2.4s2.4,1.1,2.4,2.4V21.2z"/>
	<path class="st0" d="M8.1,6.3v1.1c0,0.1,0.1,0.2,0.2,0.2h5.3c0.1,0,0.2-0.1,0.2-0.2V6.3c0-1.2-0.8-2.3-1.9-2.7
		C12.7,3.1,13,2,12.4,1.1C11.9,0.3,10.8,0,9.9,0.6s-1,1.7-0.4,2.5C9.6,3.3,9.8,3.5,10,3.6C8.8,4,8.1,5.1,8.1,6.3z M9.6,2.1
		c0-0.7,0.6-1.3,1.3-1.3s1.3,0.6,1.3,1.3S11.7,3.4,11,3.4l0,0C10.2,3.4,9.6,2.9,9.6,2.1z M11,3.9c1.3,0,2.4,1.1,2.4,2.4v0.9H8.5V6.3
		C8.5,5,9.6,3.9,11,3.9z"/>
	<path class="st0" d="M19.6,17.6c0.8-0.5,1.1-1.6,0.5-2.5c-0.5-0.8-1.6-1.1-2.5-0.5c-0.8,0.5-1.1,1.6-0.5,2.5
		c0.1,0.2,0.3,0.4,0.5,0.5c-1.2,0.4-1.9,1.5-1.9,2.7v1.1c0,0.1,0.1,0.2,0.2,0.2h5.3c0.1,0,0.2-0.1,0.2-0.2v-1.1
		C21.5,19.1,20.8,18,19.6,17.6z M17.3,16.1c0-0.7,0.6-1.3,1.3-1.3c0.7,0,1.3,0.6,1.3,1.3c0,0.7-0.6,1.3-1.3,1.3l0,0
		C17.9,17.4,17.3,16.8,17.3,16.1L17.3,16.1z M21.1,21.2h-4.9v-0.9c0-1.3,1-2.5,2.4-2.5c1.3,0,2.5,1,2.5,2.4v0.1V21.2z"/>
	<path class="st0" d="M18.1,13.7h1.1c0.1,0,0.2-0.1,0.2-0.2v-3.1c0-0.1-0.1-0.2-0.2-0.2h-7.5V8.5c0-0.1-0.1-0.2-0.2-0.2h-1.1
		c-0.1,0-0.2,0.1-0.2,0.2v1.7H2.8c-0.1,0-0.2,0.1-0.2,0.2v3.1c0,0.1,0.1,0.2,0.2,0.2h1.1c0.1,0,0.2-0.1,0.2-0.2v-1.7h6v1.7
		c0,0.1,0.1,0.2,0.2,0.2h1.1c0.1,0,0.2-0.1,0.2-0.2v-1.7h6.1v1.7C17.8,13.6,17.9,13.7,18.1,13.7L18.1,13.7z M11.5,11.3
		c-0.1,0-0.2,0.1-0.2,0.2v1.7h-0.7v-1.7c0-0.1-0.1-0.2-0.2-0.2H3.9c-0.1,0-0.2,0.1-0.2,0.2v1.7H3v-2.6h7.4c0.1,0,0.2-0.1,0.2-0.2
		V8.7h0.7v1.7c0,0.1,0.1,0.2,0.2,0.2H19v2.6h-0.7v-1.7c0-0.1-0.1-0.2-0.2-0.2C18.1,11.3,11.5,11.3,11.5,11.3z"/>
</g>
</svg>
