<?xml version="1.0" encoding="utf-8"?>
<!-- Generator: Adobe Illustrator 24.0.1, SVG Export Plug-In . SVG Version: 6.00 Build 0)  -->
<svg version="1.1" id="Layer_1" xmlns="http://www.w3.org/2000/svg" xmlns:xlink="http://www.w3.org/1999/xlink" x="0px" y="0px"
	 viewBox="0 0 512 512" style="enable-background:new 0 0 512 512;" xml:space="preserve">
<style type="text/css">
	.st0{fill:#3D3D3D;}
	.st1{fill:#EA5B21;}
	.st2{fill:#293275;}
</style>
<g>
	<g>
		<g>
			<g>
				<path class="st0" d="M103.8,438.8c0,4.7-0.7,8.8-2,12.3c-1.3,3.5-3.2,6.4-5.7,8.8c-2.5,2.3-5.4,4-8.9,5.2
					c-3.5,1.1-7.3,1.7-11.6,1.7c-1.9,0-4-0.1-6.5-0.3c-2.5-0.2-4.8-0.6-7-1.3c-2.7-0.9-4-2.4-4-4.7v-43.6c0-1,0.3-1.8,0.8-2.3
					c0.6-0.6,1.3-1,2.3-1.3c2-0.6,4.2-1.1,6.6-1.3c2.4-0.2,4.7-0.3,7-0.3c4.3,0,8.2,0.6,11.8,1.7c3.6,1.1,6.6,2.8,9.2,5.1
					c2.6,2.3,4.5,5.1,5.9,8.5C103.1,430.3,103.8,434.2,103.8,438.8z M94.2,438.9c0-3.4-0.5-6.4-1.5-8.8c-1-2.5-2.4-4.5-4.1-6.1
					c-1.7-1.6-3.8-2.7-6.1-3.5c-2.3-0.8-4.8-1.1-7.5-1.1c-3.1,0-5.6,0.2-7.7,0.6v38.4c1.2,0.3,2.5,0.5,3.9,0.6
					c1.4,0.1,2.9,0.1,4.3,0.1c6,0,10.7-1.7,13.9-5.1C92.6,450.6,94.2,445.5,94.2,438.9z"/>
				<path class="st0" d="M111.5,412.4c0-1.5,0.5-2.8,1.6-3.8c1-1,2.4-1.5,4-1.5c1.6,0,2.9,0.5,3.9,1.5c1,1,1.5,2.3,1.5,3.8
					s-0.5,2.8-1.5,3.8c-1,1-2.3,1.5-3.9,1.5c-1.6,0-3-0.5-4-1.5C112,415.2,111.5,413.9,111.5,412.4z M121.6,465.5
					c-0.4,0.2-1,0.3-1.7,0.5c-0.7,0.1-1.6,0.2-2.5,0.2c-1.7,0-2.9-0.3-3.7-1c-0.8-0.6-1.2-1.7-1.2-3.2v-36.9
					c0.5-0.1,1.1-0.3,1.8-0.4c0.7-0.2,1.6-0.3,2.5-0.3c1.7,0,2.9,0.3,3.7,1c0.8,0.6,1.2,1.7,1.2,3.3V465.5z"/>
				<path class="st0" d="M147.2,423.7c5.4,0,9.7,1.2,12.9,3.5c3.2,2.4,4.8,6.1,4.8,11.1v20.3c0,1.3-0.3,2.4-0.9,3.1
					c-0.6,0.7-1.4,1.4-2.5,2c-1.5,0.9-3.5,1.6-5.8,2.3c-2.4,0.6-5.1,1-8.3,1c-5.6,0-10-1.1-13.2-3.3c-3.2-2.2-4.7-5.5-4.7-9.8
					c0-3.8,1.2-6.8,3.7-8.8s6-3.3,10.7-3.7l12.1-1.2v-1.9c0-2.6-0.8-4.4-2.5-5.6c-1.7-1.2-4-1.7-6.9-1.7c-2.3,0-4.6,0.3-6.7,1
					c-2.1,0.6-4.1,1.4-5.8,2.2c-0.6-0.5-1.1-1-1.5-1.7c-0.4-0.7-0.6-1.4-0.6-2.2c0-1,0.2-1.8,0.7-2.4c0.5-0.6,1.3-1.2,2.3-1.7
					c1.6-0.8,3.5-1.4,5.6-1.8C142.7,423.9,144.9,423.7,147.2,423.7z M147.4,459.9c2,0,3.8-0.2,5.3-0.6c1.5-0.4,2.6-0.8,3.2-1.3
					v-11.1l-9.5,1c-2.7,0.3-4.7,0.9-6,1.8c-1.3,0.9-2,2.3-2,4.1c0,1.9,0.7,3.4,2.2,4.5C142,459.3,144.3,459.9,147.4,459.9z"/>
				<path class="st0" d="M180.1,466.2c-1.7,0-2.9-0.3-3.7-1c-0.8-0.6-1.2-1.7-1.2-3.2v-52.9c0.4-0.1,1-0.3,1.7-0.4
					c0.8-0.2,1.6-0.3,2.4-0.3c1.7,0,2.9,0.3,3.7,1c0.8,0.6,1.2,1.7,1.2,3.2v52.9c-0.5,0.2-1.1,0.3-1.8,0.5
					C181.8,466.1,181,466.2,180.1,466.2z"/>
				<path class="st0" d="M243.4,432.8c-1.4-1.2-3.4-1.8-5.8-1.8c-1.6,0-3.2,0.3-4.7,0.9c-1.5,0.6-2.8,1.4-4,2.5
					c0.1,0.5,0.2,1,0.3,1.5c0.1,0.5,0.1,1,0.1,1.6v28c-0.4,0.2-1,0.3-1.7,0.5c-0.8,0.1-1.5,0.2-2.4,0.2c-1.7,0-2.9-0.3-3.7-1
					c-0.8-0.6-1.2-1.7-1.2-3.2v-23.6c0-2.6-0.7-4.4-2.2-5.6c-1.5-1.2-3.4-1.8-5.8-1.8c-1.6,0-3.2,0.3-4.6,0.8
					c-1.5,0.5-2.7,1.1-3.7,1.7v32c-0.4,0.2-1,0.3-1.7,0.5c-0.7,0.1-1.5,0.2-2.4,0.2c-1.7,0-2.9-0.3-3.7-1c-0.8-0.6-1.2-1.7-1.2-3.2
					v-28.8c0-1.3,0.3-2.4,0.8-3.2c0.5-0.8,1.4-1.6,2.6-2.4c1.7-1.1,3.8-2,6.4-2.8c2.6-0.8,5.1-1.1,7.8-1.1c2.7,0,5.2,0.4,7.4,1.1
					c2.2,0.8,4,1.9,5.4,3.3c1.6-1.3,3.6-2.3,5.8-3.2c2.2-0.8,4.8-1.3,7.8-1.3c2.3,0,4.4,0.3,6.4,0.8c2,0.6,3.7,1.4,5.1,2.6
					c1.4,1.2,2.5,2.7,3.4,4.5c0.8,1.8,1.2,3.9,1.2,6.4v27.4c-0.5,0.2-1.1,0.3-1.8,0.5c-0.7,0.1-1.5,0.2-2.4,0.2
					c-1.7,0-2.9-0.3-3.7-1c-0.8-0.6-1.2-1.7-1.2-3.2v-23.6C245.6,435.9,244.9,434,243.4,432.8z"/>
				<path class="st0" d="M279.9,423.7c5.4,0,9.7,1.2,12.9,3.5c3.2,2.4,4.8,6.1,4.8,11.1v20.3c0,1.3-0.3,2.4-0.9,3.1
					c-0.6,0.7-1.4,1.4-2.5,2c-1.5,0.9-3.5,1.6-5.8,2.3c-2.4,0.6-5.1,1-8.3,1c-5.6,0-10-1.1-13.2-3.3c-3.2-2.2-4.7-5.5-4.7-9.8
					c0-3.8,1.2-6.8,3.7-8.8s6-3.3,10.7-3.7l12.1-1.2v-1.9c0-2.6-0.8-4.4-2.5-5.6c-1.7-1.2-4-1.7-6.9-1.7c-2.3,0-4.6,0.3-6.7,1
					c-2.1,0.6-4.1,1.4-5.8,2.2c-0.6-0.5-1.1-1-1.5-1.7c-0.4-0.7-0.6-1.4-0.6-2.2c0-1,0.2-1.8,0.7-2.4c0.5-0.6,1.3-1.2,2.3-1.7
					c1.6-0.8,3.5-1.4,5.6-1.8C275.4,423.9,277.6,423.7,279.9,423.7z M280.1,459.9c2,0,3.8-0.2,5.3-0.6c1.5-0.4,2.6-0.8,3.2-1.3
					v-11.1l-9.5,1c-2.7,0.3-4.7,0.9-6,1.8c-1.3,0.9-2,2.3-2,4.1c0,1.9,0.7,3.4,2.2,4.5C274.7,459.3,277,459.9,280.1,459.9z"/>
				<path class="st0" d="M332.4,433c-1.6-1.3-3.8-2-6.5-2c-2,0-3.8,0.3-5.4,0.8c-1.6,0.5-3,1.1-4.1,1.7v32c-0.4,0.2-1,0.3-1.7,0.5
					c-0.7,0.1-1.5,0.2-2.4,0.2c-1.7,0-2.9-0.3-3.7-1c-0.8-0.6-1.2-1.7-1.2-3.2v-28.8c0-1.3,0.3-2.4,0.8-3.2c0.5-0.8,1.4-1.6,2.6-2.4
					c1.6-1,3.7-1.9,6.4-2.7c2.6-0.8,5.6-1.2,8.9-1.2c5.6,0,10,1.3,13.2,3.8c3.2,2.5,4.8,6.3,4.8,11.5v26.6c-0.4,0.2-1,0.3-1.7,0.5
					s-1.6,0.2-2.4,0.2c-1.7,0-2.9-0.3-3.7-1c-0.8-0.6-1.2-1.7-1.2-3.2v-22.7C334.8,436.5,334,434.4,332.4,433z"/>
				<path class="st0" d="M364.9,458.2c1.2,0.9,2.9,1.3,5.1,1.3c1,0,2-0.1,3.1-0.4c1.1-0.3,2.1-0.6,2.9-1c0.4,0.5,0.8,1,1.1,1.6
					c0.3,0.6,0.5,1.3,0.5,2.1c0,1.5-0.8,2.8-2.3,3.7c-1.5,1-3.9,1.5-7,1.5c-4.4,0-7.8-1-10.4-2.9c-2.6-1.9-3.9-5.2-3.9-9.6v-40.7
					c0.4-0.1,1-0.3,1.7-0.4c0.8-0.2,1.6-0.3,2.4-0.3c1.7,0,2.9,0.3,3.7,1c0.8,0.6,1.2,1.7,1.2,3.2v8.6h13.5c0.2,0.3,0.4,0.8,0.7,1.5
					c0.2,0.6,0.3,1.3,0.3,2c0,2.5-1.1,3.7-3.2,3.7h-11.2v20.7C363.1,455.8,363.7,457.3,364.9,458.2z"/>
				<path class="st0" d="M394,465.5c-0.4,0.2-1,0.3-1.7,0.5c-0.7,0.1-1.5,0.2-2.4,0.2c-1.7,0-2.9-0.3-3.7-1
					c-0.8-0.6-1.2-1.7-1.2-3.2v-28.6c0-1.5,0.3-2.6,0.9-3.5c0.6-0.9,1.5-1.8,2.8-2.6c1.7-1,3.8-1.9,6.4-2.6c2.6-0.7,5.5-1,8.6-1
					c5.1,0,7.7,1.5,7.7,4.4c0,0.7-0.1,1.3-0.3,2c-0.2,0.6-0.5,1.1-0.8,1.6c-0.6-0.1-1.3-0.2-2.2-0.4c-0.9-0.1-1.8-0.2-2.8-0.2
					c-2.3,0-4.4,0.2-6.4,0.7s-3.5,1.1-4.9,1.9V465.5z"/>
				<path class="st0" d="M431.4,423.7c5.4,0,9.7,1.2,12.9,3.5c3.2,2.4,4.8,6.1,4.8,11.1v20.3c0,1.3-0.3,2.4-0.9,3.1
					c-0.6,0.7-1.4,1.4-2.5,2c-1.5,0.9-3.5,1.6-5.8,2.3c-2.4,0.6-5.1,1-8.3,1c-5.6,0-10-1.1-13.2-3.3c-3.2-2.2-4.7-5.5-4.7-9.8
					c0-3.8,1.2-6.8,3.7-8.8s6-3.3,10.7-3.7l12.1-1.2v-1.9c0-2.6-0.8-4.4-2.5-5.6c-1.7-1.2-4-1.7-6.9-1.7c-2.3,0-4.6,0.3-6.7,1
					c-2.1,0.6-4.1,1.4-5.8,2.2c-0.6-0.5-1.1-1-1.5-1.7c-0.4-0.7-0.6-1.4-0.6-2.2c0-1,0.2-1.8,0.7-2.4c0.5-0.6,1.3-1.2,2.3-1.7
					c1.6-0.8,3.5-1.4,5.6-1.8C426.9,423.9,429.1,423.7,431.4,423.7z M431.6,459.9c2,0,3.8-0.2,5.3-0.6c1.5-0.4,2.6-0.8,3.2-1.3
					v-11.1l-9.5,1c-2.7,0.3-4.7,0.9-6,1.8c-1.3,0.9-2,2.3-2,4.1c0,1.9,0.7,3.4,2.2,4.5C426.2,459.3,428.5,459.9,431.6,459.9z"/>
			</g>
		</g>
		<g>
			<path class="st0" d="M61.6,487.9v4.4c-0.1,0-0.2,0.1-0.3,0.1s-0.3,0.1-0.5,0.1c-0.6,0-0.9-0.3-0.9-0.8v-10.9
				c0-0.2,0.1-0.4,0.2-0.5c0.1-0.1,0.3-0.2,0.5-0.3c0.4-0.1,0.9-0.2,1.4-0.3s1.1-0.1,1.6-0.1c1.7,0,3,0.4,3.8,1.1
				c0.8,0.7,1.2,1.7,1.2,3c0,1.3-0.4,2.3-1.2,3c-0.8,0.8-2.1,1.1-3.8,1.1H61.6z M63.6,486.5c1.1,0,1.9-0.2,2.5-0.7
				c0.6-0.5,0.9-1.1,0.9-2.1c0-0.9-0.3-1.6-0.9-2c-0.6-0.4-1.4-0.6-2.5-0.6c-0.4,0-0.7,0-1.1,0.1c-0.4,0-0.7,0.1-1,0.1v5.3H63.6z"/>
			<path class="st0" d="M79.6,487.6c0,0.8-0.1,1.5-0.3,2.1c-0.2,0.6-0.5,1.1-0.9,1.6c-0.4,0.4-0.9,0.8-1.5,1s-1.2,0.3-1.9,0.3
				c-0.7,0-1.4-0.1-1.9-0.3s-1.1-0.6-1.5-1s-0.7-1-0.9-1.6c-0.2-0.6-0.3-1.3-0.3-2.1c0-0.8,0.1-1.5,0.3-2.1c0.2-0.6,0.5-1.1,1-1.6
				c0.4-0.4,0.9-0.8,1.5-1c0.6-0.2,1.2-0.3,1.9-0.3s1.3,0.1,1.9,0.3c0.6,0.2,1.1,0.6,1.5,1c0.4,0.4,0.7,1,0.9,1.6
				C79.5,486.2,79.6,486.9,79.6,487.6z M75,484c-0.9,0-1.7,0.3-2.2,1c-0.5,0.6-0.8,1.5-0.8,2.7c0,1.2,0.3,2.1,0.8,2.7
				c0.5,0.6,1.3,1,2.2,1s1.7-0.3,2.2-1c0.5-0.6,0.8-1.5,0.8-2.7s-0.3-2-0.8-2.7C76.7,484.3,75.9,484,75,484z"/>
			<path class="st0" d="M88,485.3c-0.2,0.6-0.4,1.3-0.6,1.9c-0.2,0.7-0.4,1.3-0.6,1.9c-0.2,0.6-0.4,1.2-0.6,1.7
				c-0.2,0.5-0.4,1-0.5,1.4c-0.1,0.1-0.2,0.1-0.4,0.2s-0.3,0.1-0.6,0.1c-0.2,0-0.4,0-0.6-0.1c-0.2-0.1-0.3-0.2-0.4-0.4
				c-0.2-0.3-0.4-0.9-0.6-1.6c-0.2-0.7-0.5-1.5-0.7-2.4c-0.2-0.9-0.5-1.7-0.7-2.6c-0.2-0.9-0.4-1.6-0.5-2.3c0.1-0.1,0.2-0.2,0.4-0.3
				c0.1-0.1,0.3-0.1,0.5-0.1c0.3,0,0.5,0.1,0.6,0.2s0.2,0.4,0.3,0.7c0.1,0.6,0.3,1.2,0.4,2c0.2,0.7,0.3,1.4,0.5,2.1
				c0.2,0.7,0.3,1.3,0.5,1.9c0.1,0.6,0.2,1,0.3,1.3h0.1c0.1-0.2,0.2-0.6,0.4-1.1c0.2-0.5,0.3-1.1,0.5-1.7c0.2-0.6,0.4-1.3,0.7-2.1
				c0.2-0.7,0.5-1.5,0.7-2.2c0.2-0.1,0.5-0.2,0.9-0.2c0.5,0,0.8,0.2,0.9,0.5c0.2,0.7,0.5,1.4,0.7,2.1c0.2,0.7,0.4,1.4,0.6,2
				c0.2,0.6,0.4,1.1,0.5,1.6c0.1,0.5,0.2,0.8,0.3,1.1h0.1c0.3-1.2,0.7-2.5,1-3.9s0.7-2.7,0.9-4.1c0.2-0.1,0.4-0.2,0.7-0.2
				c0.2,0,0.4,0.1,0.6,0.2c0.1,0.1,0.2,0.3,0.2,0.5c0,0.2,0,0.4-0.1,0.9c-0.1,0.4-0.2,0.9-0.4,1.5c-0.2,0.6-0.3,1.2-0.5,1.8
				c-0.2,0.6-0.4,1.3-0.6,1.9c-0.2,0.6-0.4,1.2-0.5,1.7c-0.2,0.5-0.3,0.9-0.4,1.1c-0.1,0.1-0.2,0.1-0.3,0.2c-0.2,0-0.3,0.1-0.5,0.1
				c-0.3,0-0.5,0-0.6-0.1c-0.2-0.1-0.3-0.2-0.3-0.3c-0.2-0.4-0.3-0.8-0.5-1.3c-0.2-0.5-0.4-1.1-0.5-1.6c-0.2-0.6-0.4-1.2-0.6-1.9
				C88.4,486.6,88.2,486,88,485.3z"/>
			<path class="st0" d="M98,488.6c0.4,1.8,1.5,2.7,3.5,2.7c0.6,0,1.1-0.1,1.6-0.3c0.5-0.2,0.8-0.4,1.1-0.6c0.3,0.2,0.5,0.5,0.5,0.8
				c0,0.2-0.1,0.4-0.3,0.6c-0.2,0.2-0.4,0.3-0.7,0.5c-0.3,0.1-0.6,0.2-1,0.3s-0.8,0.1-1.3,0.1c-1.6,0-2.8-0.4-3.8-1.3
				c-0.9-0.9-1.4-2.1-1.4-3.8c0-0.8,0.1-1.5,0.3-2.1c0.2-0.6,0.5-1.1,0.9-1.5c0.4-0.4,0.9-0.7,1.4-1s1.2-0.3,1.8-0.3
				c0.6,0,1.2,0.1,1.7,0.3c0.5,0.2,1,0.5,1.3,0.9c0.4,0.4,0.7,0.8,0.9,1.3c0.2,0.5,0.3,1.1,0.3,1.7c0,0.3-0.1,0.5-0.2,0.6
				c-0.1,0.1-0.3,0.2-0.6,0.2L98,488.6z M100.8,484c-0.8,0-1.5,0.3-2.1,0.9c-0.5,0.6-0.8,1.4-0.9,2.5l5.6-0.8
				c-0.1-0.8-0.3-1.4-0.8-1.9C102.2,484.2,101.6,484,100.8,484z"/>
			<path class="st0" d="M109.1,492.3c-0.1,0-0.2,0.1-0.3,0.1c-0.1,0-0.3,0.1-0.5,0.1c-0.6,0-0.9-0.2-0.9-0.7v-6.9
				c0-0.3,0.1-0.6,0.2-0.7c0.1-0.2,0.3-0.4,0.6-0.5c0.4-0.2,0.8-0.4,1.4-0.6s1.3-0.3,2.1-0.3c1.1,0,1.6,0.3,1.6,0.8
				c0,0.1,0,0.3-0.1,0.4s-0.1,0.2-0.2,0.3c-0.1,0-0.3-0.1-0.5-0.1c-0.2,0-0.4,0-0.7,0c-0.6,0-1.2,0.1-1.7,0.2s-0.9,0.3-1.2,0.5
				V492.3z"/>
			<path class="st0" d="M116.2,488.6c0.4,1.8,1.5,2.7,3.5,2.7c0.6,0,1.1-0.1,1.6-0.3c0.5-0.2,0.8-0.4,1.1-0.6
				c0.3,0.2,0.5,0.5,0.5,0.8c0,0.2-0.1,0.4-0.3,0.6c-0.2,0.2-0.4,0.3-0.7,0.5c-0.3,0.1-0.6,0.2-1,0.3s-0.8,0.1-1.3,0.1
				c-1.6,0-2.8-0.4-3.8-1.3c-0.9-0.9-1.4-2.1-1.4-3.8c0-0.8,0.1-1.5,0.3-2.1c0.2-0.6,0.5-1.1,0.9-1.5c0.4-0.4,0.9-0.7,1.4-1
				s1.2-0.3,1.8-0.3c0.6,0,1.2,0.1,1.7,0.3c0.5,0.2,1,0.5,1.3,0.9c0.4,0.4,0.7,0.8,0.9,1.3c0.2,0.5,0.3,1.1,0.3,1.7
				c0,0.3-0.1,0.5-0.2,0.6c-0.1,0.1-0.3,0.2-0.6,0.2L116.2,488.6z M119,484c-0.8,0-1.5,0.3-2.1,0.9c-0.5,0.6-0.8,1.4-0.9,2.5
				l5.6-0.8c-0.1-0.8-0.3-1.4-0.8-1.9C120.5,484.2,119.9,484,119,484z"/>
			<path class="st0" d="M133.8,490.8c0,0.3-0.1,0.5-0.2,0.6s-0.3,0.3-0.5,0.5c-0.3,0.2-0.7,0.3-1.2,0.5c-0.5,0.2-1.1,0.2-1.7,0.2
				c-0.7,0-1.4-0.1-2-0.3s-1.1-0.5-1.6-0.9c-0.4-0.4-0.8-0.9-1-1.5c-0.2-0.6-0.4-1.4-0.4-2.2c0-0.9,0.1-1.6,0.4-2.3
				c0.2-0.6,0.6-1.2,1-1.6c0.4-0.4,0.9-0.7,1.5-0.9c0.6-0.2,1.2-0.3,1.8-0.3c0.4,0,0.9,0.1,1.3,0.2c0.4,0.1,0.8,0.2,1.1,0.4v-4.1
				c0.1,0,0.2-0.1,0.3-0.1c0.1,0,0.3-0.1,0.4-0.1c0.6,0,0.9,0.2,0.9,0.7V490.8z M132.1,484.7c-0.3-0.2-0.6-0.4-0.9-0.5
				c-0.4-0.1-0.8-0.2-1.2-0.2c-0.4,0-0.8,0.1-1.2,0.2c-0.4,0.1-0.7,0.3-1,0.6c-0.3,0.3-0.5,0.7-0.7,1.2c-0.2,0.5-0.3,1.1-0.3,1.7
				c0,1.3,0.3,2.2,0.9,2.7c0.6,0.6,1.4,0.8,2.4,0.8c0.5,0,0.9-0.1,1.2-0.2c0.3-0.1,0.6-0.2,0.8-0.4V484.7z"/>
			<path class="st0" d="M145.2,482.6c0.6,0,1.2,0.1,1.8,0.3c0.5,0.2,1,0.5,1.4,0.9c0.4,0.4,0.7,0.9,0.9,1.6c0.2,0.6,0.3,1.4,0.3,2.2
				c0,0.9-0.1,1.6-0.3,2.2c-0.2,0.6-0.6,1.1-1,1.6c-0.4,0.4-0.9,0.7-1.5,0.9c-0.6,0.2-1.2,0.3-1.9,0.3c-0.7,0-1.3-0.1-1.8-0.2
				c-0.5-0.2-1-0.3-1.3-0.5c-0.3-0.2-0.5-0.4-0.6-0.5c-0.1-0.2-0.2-0.4-0.2-0.7v-11.6c0.1,0,0.2-0.1,0.3-0.1c0.1,0,0.3-0.1,0.5-0.1
				c0.6,0,0.9,0.2,0.9,0.7v3.7c0.3-0.2,0.7-0.4,1.1-0.5S144.7,482.6,145.2,482.6z M145,484c-0.5,0-0.9,0.1-1.3,0.3
				c-0.4,0.2-0.7,0.4-1,0.6v5.8c0.2,0.2,0.5,0.3,0.9,0.4c0.4,0.1,0.8,0.2,1.4,0.2c0.5,0,0.9-0.1,1.3-0.2c0.4-0.1,0.7-0.4,1-0.7
				s0.5-0.7,0.6-1.1c0.2-0.5,0.2-1,0.2-1.6c0-0.6-0.1-1.2-0.2-1.6c-0.2-0.5-0.4-0.8-0.6-1.1c-0.3-0.3-0.6-0.5-1-0.7
				C145.8,484,145.4,484,145,484z"/>
			<path class="st0" d="M153.9,490.2c-0.2-0.3-0.4-0.7-0.6-1.3c-0.2-0.5-0.5-1.1-0.7-1.7c-0.3-0.6-0.5-1.3-0.8-2
				c-0.3-0.7-0.5-1.4-0.7-2.1c0.1-0.1,0.2-0.2,0.4-0.3c0.2-0.1,0.3-0.1,0.5-0.1c0.2,0,0.4,0.1,0.6,0.2c0.1,0.1,0.3,0.3,0.4,0.6
				c0.4,1.2,0.8,2.3,1.3,3.4s0.9,2.3,1.5,3.5h0.1c0.2-0.4,0.4-0.9,0.7-1.5c0.2-0.6,0.5-1.3,0.7-1.9c0.2-0.7,0.4-1.4,0.6-2.1
				c0.2-0.7,0.4-1.4,0.5-2c0.1,0,0.2-0.1,0.3-0.1c0.1,0,0.2-0.1,0.4-0.1c0.2,0,0.4,0.1,0.6,0.2c0.1,0.1,0.2,0.3,0.2,0.5
				c0,0.3-0.1,0.8-0.3,1.5c-0.2,0.7-0.4,1.5-0.7,2.4c-0.3,0.9-0.7,1.8-1.1,2.8c-0.4,1-0.8,1.8-1.2,2.5c-0.6,1.2-1.2,2.1-1.7,2.7
				c-0.5,0.6-1,0.9-1.4,0.9c-0.3,0-0.6-0.1-0.7-0.2s-0.3-0.4-0.3-0.6c0.2-0.2,0.5-0.4,0.7-0.7c0.3-0.3,0.5-0.6,0.8-1
				c0.3-0.3,0.5-0.7,0.8-1.1c0.2-0.4,0.5-0.7,0.6-1.1c-0.2-0.1-0.4-0.2-0.6-0.4C154.4,491,154.1,490.7,153.9,490.2z"/>
			<path class="st0" d="M175.5,481.3c0,0.2-0.1,0.4-0.2,0.5c-0.1,0.1-0.2,0.2-0.4,0.3c-0.4-0.2-0.8-0.5-1.3-0.7
				c-0.5-0.2-1.1-0.3-1.9-0.3c-0.6,0-1.2,0.1-1.7,0.3s-1,0.5-1.4,1c-0.4,0.4-0.7,1-0.9,1.6c-0.2,0.6-0.3,1.4-0.3,2.2
				c0,0.8,0.1,1.6,0.3,2.2c0.2,0.6,0.5,1.2,0.9,1.6c0.4,0.4,0.9,0.7,1.4,1s1.2,0.3,1.8,0.3c0.7,0,1.3-0.1,1.9-0.3
				c0.5-0.2,1-0.4,1.3-0.7c0.1,0.1,0.3,0.2,0.4,0.3c0.1,0.1,0.2,0.3,0.2,0.5c0,0.3-0.2,0.5-0.5,0.8c-0.3,0.2-0.7,0.4-1.3,0.6
				c-0.5,0.2-1.2,0.3-2.1,0.3c-0.9,0-1.7-0.1-2.4-0.4c-0.7-0.3-1.4-0.7-1.9-1.2c-0.5-0.5-1-1.2-1.3-2c-0.3-0.8-0.5-1.7-0.5-2.8
				s0.2-2,0.5-2.8c0.3-0.8,0.8-1.5,1.3-2c0.5-0.5,1.2-1,1.9-1.2c0.7-0.3,1.5-0.4,2.3-0.4c0.6,0,1.1,0,1.5,0.1
				c0.5,0.1,0.9,0.2,1.2,0.4c0.3,0.2,0.6,0.3,0.8,0.5S175.5,481.1,175.5,481.3z"/>
			<path class="st0" d="M186.4,487.6c0,0.8-0.1,1.5-0.3,2.1c-0.2,0.6-0.5,1.1-0.9,1.6c-0.4,0.4-0.9,0.8-1.5,1s-1.2,0.3-1.9,0.3
				c-0.7,0-1.4-0.1-1.9-0.3s-1.1-0.6-1.5-1s-0.7-1-0.9-1.6c-0.2-0.6-0.3-1.3-0.3-2.1c0-0.8,0.1-1.5,0.3-2.1c0.2-0.6,0.5-1.1,1-1.6
				c0.4-0.4,0.9-0.8,1.5-1c0.6-0.2,1.2-0.3,1.9-0.3s1.3,0.1,1.9,0.3c0.6,0.2,1.1,0.6,1.5,1c0.4,0.4,0.7,1,0.9,1.6
				C186.3,486.2,186.4,486.9,186.4,487.6z M181.8,484c-0.9,0-1.7,0.3-2.2,1c-0.5,0.6-0.8,1.5-0.8,2.7c0,1.2,0.3,2.1,0.8,2.7
				c0.5,0.6,1.3,1,2.2,1s1.7-0.3,2.2-1c0.5-0.6,0.8-1.5,0.8-2.7s-0.3-2-0.8-2.7C183.4,484.3,182.7,484,181.8,484z"/>
			<path class="st0" d="M190.5,492.4c-0.1,0-0.3,0.1-0.5,0.1c-0.6,0-0.9-0.2-0.9-0.7v-12.6c0.1,0,0.2-0.1,0.3-0.1
				c0.1,0,0.3-0.1,0.4-0.1c0.6,0,0.9,0.2,0.9,0.7v12.6C190.7,492.3,190.6,492.4,190.5,492.4z"/>
			<path class="st0" d="M195.6,492.4c-0.1,0-0.3,0.1-0.5,0.1c-0.6,0-0.9-0.2-0.9-0.7v-12.6c0.1,0,0.2-0.1,0.3-0.1
				c0.1,0,0.3-0.1,0.4-0.1c0.6,0,0.9,0.2,0.9,0.7v12.6C195.8,492.3,195.7,492.4,195.6,492.4z"/>
			<path class="st0" d="M202.5,482.6c1.2,0,2.1,0.3,2.8,0.8c0.7,0.5,1,1.4,1,2.5v4.9c0,0.3-0.1,0.5-0.2,0.7
				c-0.1,0.2-0.3,0.3-0.5,0.4c-0.3,0.2-0.8,0.4-1.3,0.5c-0.5,0.1-1.2,0.2-1.9,0.2c-1.3,0-2.3-0.3-3-0.8c-0.7-0.5-1.1-1.2-1.1-2.2
				c0-0.9,0.3-1.6,0.9-2c0.6-0.5,1.4-0.7,2.5-0.9l2.9-0.3v-0.6c0-0.7-0.2-1.2-0.6-1.5c-0.4-0.3-1-0.5-1.7-0.5
				c-0.6,0-1.1,0.1-1.6,0.2s-1,0.3-1.4,0.6c-0.1-0.1-0.2-0.2-0.3-0.3s-0.1-0.3-0.1-0.4c0-0.2,0-0.3,0.1-0.5s0.2-0.2,0.5-0.3
				c0.4-0.2,0.8-0.3,1.3-0.4C201.4,482.7,201.9,482.6,202.5,482.6z M202.5,491.3c0.6,0,1-0.1,1.4-0.2c0.4-0.1,0.6-0.2,0.8-0.3v-3
				l-2.5,0.3c-0.7,0.1-1.2,0.2-1.6,0.5c-0.3,0.3-0.5,0.6-0.5,1.1c0,0.5,0.2,0.9,0.6,1.2C201.1,491.2,201.7,491.3,202.5,491.3z"/>
			<path class="st0" d="M213.5,482.6c0.6,0,1.2,0.1,1.8,0.3c0.5,0.2,1,0.5,1.4,0.9c0.4,0.4,0.7,0.9,0.9,1.6c0.2,0.6,0.3,1.4,0.3,2.2
				c0,0.9-0.1,1.6-0.3,2.2c-0.2,0.6-0.6,1.1-1,1.6c-0.4,0.4-0.9,0.7-1.5,0.9c-0.6,0.2-1.2,0.3-1.9,0.3c-0.7,0-1.3-0.1-1.8-0.2
				c-0.5-0.2-1-0.3-1.3-0.5c-0.3-0.2-0.5-0.4-0.6-0.5c-0.1-0.2-0.2-0.4-0.2-0.7v-11.6c0.1,0,0.2-0.1,0.3-0.1c0.1,0,0.3-0.1,0.5-0.1
				c0.6,0,0.9,0.2,0.9,0.7v3.7c0.3-0.2,0.7-0.4,1.1-0.5S213,482.6,213.5,482.6z M213.3,484c-0.5,0-0.9,0.1-1.3,0.3
				c-0.4,0.2-0.7,0.4-1,0.6v5.8c0.2,0.2,0.5,0.3,0.9,0.4c0.4,0.1,0.8,0.2,1.4,0.2c0.5,0,0.9-0.1,1.3-0.2c0.4-0.1,0.7-0.4,1-0.7
				s0.5-0.7,0.6-1.1c0.2-0.5,0.2-1,0.2-1.6c0-0.6-0.1-1.2-0.2-1.6c-0.2-0.5-0.4-0.8-0.6-1.1c-0.3-0.3-0.6-0.5-1-0.7
				C214.1,484,213.7,484,213.3,484z"/>
			<path class="st0" d="M221.7,488.6c0.4,1.8,1.5,2.7,3.5,2.7c0.6,0,1.1-0.1,1.6-0.3c0.5-0.2,0.8-0.4,1.1-0.6
				c0.3,0.2,0.5,0.5,0.5,0.8c0,0.2-0.1,0.4-0.3,0.6c-0.2,0.2-0.4,0.3-0.7,0.5c-0.3,0.1-0.6,0.2-1,0.3s-0.8,0.1-1.3,0.1
				c-1.6,0-2.8-0.4-3.8-1.3c-0.9-0.9-1.4-2.1-1.4-3.8c0-0.8,0.1-1.5,0.3-2.1c0.2-0.6,0.5-1.1,0.9-1.5c0.4-0.4,0.9-0.7,1.4-1
				s1.2-0.3,1.8-0.3c0.6,0,1.2,0.1,1.7,0.3c0.5,0.2,1,0.5,1.3,0.9c0.4,0.4,0.7,0.8,0.9,1.3c0.2,0.5,0.3,1.1,0.3,1.7
				c0,0.3-0.1,0.5-0.2,0.6c-0.1,0.1-0.3,0.2-0.6,0.2L221.7,488.6z M224.6,484c-0.8,0-1.5,0.3-2.1,0.9c-0.5,0.6-0.8,1.4-0.9,2.5
				l5.6-0.8c-0.1-0.8-0.3-1.4-0.8-1.9C226,484.2,225.4,484,224.6,484z"/>
			<path class="st0" d="M232.8,492.3c-0.1,0-0.2,0.1-0.3,0.1c-0.1,0-0.3,0.1-0.5,0.1c-0.6,0-0.9-0.2-0.9-0.7v-6.9
				c0-0.3,0.1-0.6,0.2-0.7c0.1-0.2,0.3-0.4,0.6-0.5c0.4-0.2,0.8-0.4,1.4-0.6s1.3-0.3,2.1-0.3c1.1,0,1.6,0.3,1.6,0.8
				c0,0.1,0,0.3-0.1,0.4s-0.1,0.2-0.2,0.3c-0.1,0-0.3-0.1-0.5-0.1c-0.2,0-0.4,0-0.7,0c-0.6,0-1.2,0.1-1.7,0.2s-0.9,0.3-1.2,0.5
				V492.3z"/>
			<path class="st0" d="M239,482.9c0.1,0,0.2-0.1,0.3-0.1c0.1,0,0.3-0.1,0.5-0.1c0.6,0,0.9,0.3,0.9,0.8v5.3c0,0.9,0.2,1.5,0.7,1.9
				s1.1,0.6,1.9,0.6c0.5,0,1-0.1,1.4-0.2s0.7-0.2,0.9-0.4v-7.8c0.1,0,0.2-0.1,0.3-0.1s0.3-0.1,0.4-0.1c0.6,0,0.9,0.3,0.9,0.8v7.1
				c0,0.3,0,0.5-0.1,0.7c-0.1,0.2-0.3,0.3-0.5,0.5c-0.3,0.2-0.7,0.3-1.3,0.5s-1.2,0.2-2,0.2c-1.4,0-2.4-0.3-3.1-0.9
				c-0.7-0.6-1.1-1.5-1.1-2.8V482.9z"/>
			<path class="st0" d="M257,489.8c0,0.9-0.3,1.6-1,2c-0.6,0.5-1.6,0.7-2.8,0.7c-0.5,0-1,0-1.4-0.1s-0.8-0.2-1.1-0.3
				s-0.5-0.3-0.7-0.5s-0.3-0.4-0.3-0.6c0-0.2,0-0.3,0.1-0.5c0.1-0.2,0.2-0.3,0.4-0.4c0.4,0.3,0.8,0.5,1.3,0.7
				c0.5,0.2,1.1,0.3,1.7,0.3c1.4,0,2.1-0.5,2.1-1.4c0-0.8-0.5-1.3-1.4-1.5l-1.7-0.5c-0.8-0.2-1.4-0.5-1.8-1c-0.4-0.4-0.6-1-0.6-1.6
				c0-0.4,0.1-0.7,0.2-1s0.4-0.6,0.7-0.9s0.7-0.4,1.1-0.6c0.4-0.1,1-0.2,1.6-0.2c1,0,1.7,0.1,2.3,0.4c0.6,0.3,0.9,0.6,0.9,1
				c0,0.2,0,0.3-0.1,0.5c-0.1,0.1-0.2,0.2-0.4,0.3c-0.2-0.2-0.6-0.3-1-0.5c-0.5-0.2-1-0.3-1.6-0.3c-0.6,0-1.1,0.1-1.5,0.3
				c-0.4,0.2-0.5,0.6-0.5,1c0,0.3,0.1,0.6,0.3,0.8c0.2,0.2,0.5,0.4,1,0.5l1.4,0.3c0.9,0.2,1.6,0.6,2.1,1
				C256.8,488.4,257,489.1,257,489.8z"/>
			<path class="st0" d="M268.2,481.3v11c-0.1,0-0.2,0.1-0.3,0.1s-0.3,0.1-0.4,0.1c-0.6,0-0.9-0.3-0.9-0.8v-10.4h-3.8
				c0-0.1-0.1-0.2-0.1-0.3c0-0.1-0.1-0.2-0.1-0.4c0-0.2,0.1-0.4,0.2-0.5c0.1-0.1,0.3-0.2,0.5-0.2h8.9c0,0.1,0.1,0.2,0.1,0.3
				c0,0.1,0.1,0.2,0.1,0.4c0,0.2-0.1,0.4-0.2,0.6s-0.3,0.2-0.5,0.2H268.2z"/>
			<path class="st0" d="M274.1,488.6c0.4,1.8,1.5,2.7,3.5,2.7c0.6,0,1.1-0.1,1.6-0.3c0.5-0.2,0.8-0.4,1.1-0.6
				c0.3,0.2,0.5,0.5,0.5,0.8c0,0.2-0.1,0.4-0.3,0.6s-0.4,0.3-0.7,0.5c-0.3,0.1-0.6,0.2-1,0.3s-0.8,0.1-1.3,0.1
				c-1.6,0-2.8-0.4-3.8-1.3c-0.9-0.9-1.4-2.1-1.4-3.8c0-0.8,0.1-1.5,0.3-2.1c0.2-0.6,0.5-1.1,0.9-1.5c0.4-0.4,0.9-0.7,1.4-1
				c0.6-0.2,1.2-0.3,1.8-0.3c0.6,0,1.2,0.1,1.7,0.3c0.5,0.2,1,0.5,1.3,0.9c0.4,0.4,0.7,0.8,0.9,1.3c0.2,0.5,0.3,1.1,0.3,1.7
				c0,0.3-0.1,0.5-0.2,0.6s-0.3,0.2-0.6,0.2L274.1,488.6z M276.9,484c-0.8,0-1.5,0.3-2.1,0.9c-0.5,0.6-0.8,1.4-0.9,2.5l5.6-0.8
				c-0.1-0.8-0.3-1.4-0.8-1.9C278.4,484.2,277.8,484,276.9,484z"/>
			<path class="st0" d="M288,484c-0.5,0-0.9,0.1-1.3,0.2c-0.4,0.2-0.7,0.4-1,0.7s-0.5,0.7-0.7,1.1c-0.2,0.5-0.2,1-0.2,1.6
				c0,1.2,0.3,2.1,0.9,2.7c0.6,0.6,1.4,0.9,2.4,0.9c0.6,0,1.1-0.1,1.4-0.2c0.4-0.2,0.7-0.3,1-0.5c0.1,0.1,0.3,0.2,0.4,0.3
				s0.1,0.3,0.1,0.5c0,0.2-0.1,0.4-0.2,0.5c-0.2,0.2-0.4,0.3-0.6,0.4c-0.3,0.1-0.6,0.2-0.9,0.3s-0.8,0.1-1.2,0.1
				c-0.7,0-1.4-0.1-2-0.3c-0.6-0.2-1.1-0.5-1.6-0.9c-0.4-0.4-0.8-0.9-1-1.5c-0.2-0.6-0.4-1.4-0.4-2.2c0-0.8,0.1-1.6,0.4-2.2
				c0.3-0.6,0.6-1.1,1-1.6c0.4-0.4,1-0.7,1.5-1c0.6-0.2,1.2-0.3,1.9-0.3c0.4,0,0.8,0,1.2,0.1s0.7,0.2,0.9,0.3
				c0.3,0.1,0.5,0.3,0.6,0.5c0.1,0.2,0.2,0.3,0.2,0.5c0,0.2,0,0.3-0.1,0.4s-0.2,0.2-0.4,0.3c-0.3-0.2-0.6-0.4-1-0.5
				C289,484.1,288.5,484,288,484z"/>
			<path class="st0" d="M294.7,492.4c-0.1,0-0.3,0.1-0.5,0.1c-0.6,0-0.9-0.2-0.9-0.7v-12.6c0.1,0,0.2-0.1,0.3-0.1
				c0.1,0,0.3-0.1,0.5-0.1c0.6,0,0.9,0.2,0.9,0.7v3.7c0.3-0.2,0.7-0.4,1.2-0.5c0.4-0.1,0.9-0.2,1.5-0.2c0.6,0,1.1,0.1,1.6,0.2
				c0.5,0.2,0.9,0.4,1.2,0.7c0.3,0.3,0.6,0.7,0.8,1.2c0.2,0.5,0.3,1,0.3,1.6v6c-0.1,0-0.2,0.1-0.3,0.1s-0.3,0.1-0.4,0.1
				c-0.6,0-0.9-0.2-0.9-0.7v-5.3c0-0.8-0.2-1.4-0.7-1.8c-0.5-0.4-1-0.6-1.8-0.6c-0.5,0-0.9,0.1-1.3,0.3c-0.4,0.2-0.8,0.4-1.1,0.6
				v7.5C295,492.3,294.9,492.4,294.7,492.4z"/>
			<path class="st0" d="M310.6,484.5c-0.4-0.4-1-0.5-1.7-0.5c-0.5,0-1,0.1-1.5,0.2c-0.4,0.1-0.8,0.3-1.1,0.5v7.7
				c-0.1,0-0.2,0.1-0.3,0.1s-0.3,0.1-0.5,0.1c-0.6,0-0.9-0.2-0.9-0.7v-7c0-0.3,0.1-0.5,0.2-0.7s0.3-0.4,0.6-0.5
				c0.4-0.2,0.8-0.4,1.4-0.6c0.6-0.2,1.3-0.3,2-0.3c1.2,0,2.2,0.3,2.9,0.8c0.7,0.6,1.1,1.4,1.1,2.6v6.2c-0.1,0-0.2,0.1-0.3,0.1
				s-0.3,0.1-0.4,0.1c-0.6,0-0.9-0.2-0.9-0.7v-5.5C311.2,485.4,311,484.9,310.6,484.5z"/>
			<path class="st0" d="M324.7,487.6c0,0.8-0.1,1.5-0.3,2.1c-0.2,0.6-0.5,1.1-0.9,1.6c-0.4,0.4-0.9,0.8-1.5,1
				c-0.6,0.2-1.2,0.3-1.9,0.3c-0.7,0-1.4-0.1-1.9-0.3c-0.6-0.2-1.1-0.6-1.5-1s-0.7-1-0.9-1.6c-0.2-0.6-0.3-1.3-0.3-2.1
				c0-0.8,0.1-1.5,0.3-2.1c0.2-0.6,0.5-1.1,1-1.6c0.4-0.4,0.9-0.8,1.5-1c0.6-0.2,1.2-0.3,1.9-0.3s1.3,0.1,1.9,0.3
				c0.6,0.2,1.1,0.6,1.5,1c0.4,0.4,0.7,1,0.9,1.6C324.6,486.2,324.7,486.9,324.7,487.6z M320.1,484c-0.9,0-1.7,0.3-2.2,1
				c-0.5,0.6-0.8,1.5-0.8,2.7c0,1.2,0.3,2.1,0.8,2.7c0.5,0.6,1.3,1,2.2,1s1.7-0.3,2.2-1c0.5-0.6,0.8-1.5,0.8-2.7s-0.3-2-0.8-2.7
				C321.7,484.3,321,484,320.1,484z"/>
			<path class="st0" d="M328.8,492.4c-0.1,0-0.3,0.1-0.5,0.1c-0.6,0-0.9-0.2-0.9-0.7v-12.6c0.1,0,0.2-0.1,0.3-0.1
				c0.1,0,0.3-0.1,0.4-0.1c0.6,0,0.9,0.2,0.9,0.7v12.6C329,492.3,328.9,492.4,328.8,492.4z"/>
			<path class="st0" d="M341.1,487.6c0,0.8-0.1,1.5-0.3,2.1c-0.2,0.6-0.5,1.1-0.9,1.6c-0.4,0.4-0.9,0.8-1.5,1
				c-0.6,0.2-1.2,0.3-1.9,0.3c-0.7,0-1.4-0.1-1.9-0.3c-0.6-0.2-1.1-0.6-1.5-1s-0.7-1-0.9-1.6c-0.2-0.6-0.3-1.3-0.3-2.1
				c0-0.8,0.1-1.5,0.3-2.1c0.2-0.6,0.5-1.1,1-1.6c0.4-0.4,0.9-0.8,1.5-1c0.6-0.2,1.2-0.3,1.9-0.3s1.3,0.1,1.9,0.3
				c0.6,0.2,1.1,0.6,1.5,1c0.4,0.4,0.7,1,0.9,1.6C341,486.2,341.1,486.9,341.1,487.6z M336.4,484c-0.9,0-1.7,0.3-2.2,1
				c-0.5,0.6-0.8,1.5-0.8,2.7c0,1.2,0.3,2.1,0.8,2.7c0.5,0.6,1.3,1,2.2,1s1.7-0.3,2.2-1c0.5-0.6,0.8-1.5,0.8-2.7s-0.3-2-0.8-2.7
				C338.1,484.3,337.4,484,336.4,484z"/>
			<path class="st0" d="M350,491.4c-0.2,0.2-0.5,0.4-1,0.5c-0.4,0.1-0.9,0.2-1.4,0.2c-0.6,0-1.2-0.1-1.7-0.3c-0.5-0.2-1-0.4-1.4-0.8
				c-0.4-0.4-0.7-0.9-1-1.5c-0.2-0.6-0.4-1.3-0.4-2.2c0-0.8,0.1-1.5,0.3-2c0.2-0.6,0.6-1.1,1-1.5c0.4-0.4,0.9-0.7,1.5-0.9
				c0.6-0.2,1.2-0.3,1.9-0.3c0.6,0,1.2,0.1,1.7,0.2c0.5,0.2,1,0.4,1.3,0.6c0.2,0.1,0.4,0.3,0.5,0.5s0.2,0.4,0.2,0.6v8.2
				c0,0.7-0.1,1.3-0.3,1.7c-0.2,0.5-0.5,0.9-0.9,1.1c-0.4,0.3-0.9,0.5-1.4,0.6c-0.5,0.1-1.1,0.2-1.8,0.2c-0.7,0-1.3-0.1-1.8-0.2
				c-0.5-0.1-0.8-0.3-1-0.4c-0.4-0.2-0.6-0.5-0.6-0.9c0-0.2,0-0.4,0.1-0.5c0.1-0.1,0.2-0.2,0.3-0.3c0.3,0.2,0.7,0.4,1.2,0.6
				c0.5,0.2,1.1,0.3,1.7,0.3c0.9,0,1.6-0.2,2.1-0.6c0.5-0.4,0.7-1,0.7-1.9V491.4z M347.8,490.7c0.5,0,1-0.1,1.3-0.3
				c0.3-0.2,0.6-0.4,0.9-0.6v-5.3c-0.2-0.2-0.5-0.3-0.9-0.4c-0.3-0.1-0.8-0.2-1.2-0.2c-0.9,0-1.7,0.3-2.2,0.8
				c-0.6,0.6-0.8,1.4-0.8,2.5c0,0.6,0.1,1.1,0.2,1.6c0.2,0.4,0.4,0.8,0.6,1.1c0.3,0.3,0.6,0.5,0.9,0.6
				C347,490.7,347.3,490.7,347.8,490.7z"/>
			<path class="st0" d="M354.5,479.9c0-0.3,0.1-0.5,0.3-0.7c0.2-0.2,0.5-0.3,0.8-0.3c0.3,0,0.6,0.1,0.8,0.3c0.2,0.2,0.3,0.4,0.3,0.7
				s-0.1,0.5-0.3,0.7s-0.4,0.3-0.8,0.3c-0.3,0-0.6-0.1-0.8-0.3S354.5,480.2,354.5,479.9z M356.4,492.3c-0.1,0-0.2,0.1-0.3,0.1
				s-0.3,0.1-0.5,0.1c-0.6,0-0.9-0.2-0.9-0.7v-8.8c0.1,0,0.2-0.1,0.3-0.1s0.3-0.1,0.5-0.1c0.6,0,0.9,0.3,0.9,0.8V492.3z"/>
			<path class="st0" d="M360.7,488.6c0.4,1.8,1.5,2.7,3.5,2.7c0.6,0,1.1-0.1,1.6-0.3c0.5-0.2,0.8-0.4,1.1-0.6
				c0.3,0.2,0.5,0.5,0.5,0.8c0,0.2-0.1,0.4-0.3,0.6s-0.4,0.3-0.7,0.5c-0.3,0.1-0.6,0.2-1,0.3s-0.8,0.1-1.3,0.1
				c-1.6,0-2.8-0.4-3.8-1.3c-0.9-0.9-1.4-2.1-1.4-3.8c0-0.8,0.1-1.5,0.3-2.1c0.2-0.6,0.5-1.1,0.9-1.5c0.4-0.4,0.9-0.7,1.4-1
				c0.6-0.2,1.2-0.3,1.8-0.3c0.6,0,1.2,0.1,1.7,0.3c0.5,0.2,1,0.5,1.3,0.9c0.4,0.4,0.7,0.8,0.9,1.3c0.2,0.5,0.3,1.1,0.3,1.7
				c0,0.3-0.1,0.5-0.2,0.6s-0.3,0.2-0.6,0.2L360.7,488.6z M363.6,484c-0.8,0-1.5,0.3-2.1,0.9c-0.5,0.6-0.8,1.4-0.9,2.5l5.6-0.8
				c-0.1-0.8-0.3-1.4-0.8-1.9C365,484.2,364.4,484,363.6,484z"/>
			<path class="st0" d="M377,489.8c0,0.9-0.3,1.6-1,2c-0.6,0.5-1.6,0.7-2.8,0.7c-0.5,0-1,0-1.4-0.1s-0.8-0.2-1.1-0.3
				s-0.5-0.3-0.7-0.5s-0.3-0.4-0.3-0.6c0-0.2,0-0.3,0.1-0.5c0.1-0.2,0.2-0.3,0.4-0.4c0.4,0.3,0.8,0.5,1.3,0.7
				c0.5,0.2,1.1,0.3,1.7,0.3c1.4,0,2.1-0.5,2.1-1.4c0-0.8-0.5-1.3-1.4-1.5l-1.7-0.5c-0.8-0.2-1.4-0.5-1.8-1c-0.4-0.4-0.6-1-0.6-1.6
				c0-0.4,0.1-0.7,0.2-1s0.4-0.6,0.7-0.9s0.7-0.4,1.1-0.6c0.4-0.1,1-0.2,1.6-0.2c1,0,1.7,0.1,2.3,0.4c0.6,0.3,0.9,0.6,0.9,1
				c0,0.2,0,0.3-0.1,0.5c-0.1,0.1-0.2,0.2-0.4,0.3c-0.2-0.2-0.6-0.3-1-0.5c-0.5-0.2-1-0.3-1.6-0.3c-0.6,0-1.1,0.1-1.5,0.3
				c-0.4,0.2-0.5,0.6-0.5,1c0,0.3,0.1,0.6,0.3,0.8c0.2,0.2,0.5,0.4,1,0.5l1.4,0.3c0.9,0.2,1.6,0.6,2.1,1
				C376.8,488.4,377,489.1,377,489.8z"/>
		</g>
		<rect x="385.9" y="487.8" class="st0" width="63.6" height="2"/>
	</g>
	<g>
		<path class="st1" d="M228.2,247.2c0,7.9-0.2,10.2-0.2,18.1c0,7.9,0,15.8,0,23.7c0,5.1-2.2,7.2-7.2,7.2c-11,0-22.1,0-33.1,0
			c-8,0-12.5-3.6-13.9-11.5c-2.2-11.8-4.4-23.5-6-35.4c-2.9-22.5-4-45-3.3-67.6c0.9-26.4,4.1-52.6,9.6-78.4
			c1.3-6.2,6.4-12,13.1-11.8c11.3,0.4,22.6,0.1,33.9,0.1c4.9,0,7.1,3,7.1,8c0,3.6-0.1,1-0.2,13.4c0,4.9-2.4,7.3-7.2,7.3
			c-3.8,0-7.7,0.1-11.4-0.1c-3.7-0.2-5.2,0.8-5.3,5c-0.2,15.7-1.2,66.1-1.3,81.8c-0.1,8,0.9,21.7,1.7,29.6c0.1,1,2,2.4,3.2,2.5
			c4.2,0.3,8.4,0.1,12.7,0.1C225.9,239.3,228.2,241.6,228.2,247.2z"/>
		<path class="st1" d="M308.2,231.9v55.3c0,0-34.8,6.8-66.1,9v-57.2C263.5,238,276.4,239.9,308.2,231.9z"/>
		<path class="st1" d="M355.6,275.5v-53c0,0,16.5-10.6,17.5-39.9c0,0,6.3-52.9-131-61.9V92.3c49.7,3.6,133.6,17.6,155.9,73.4
			c7.8,19.5,8.6,38.6,1.4,56.8C393,239,385.1,249.7,355.6,275.5z"/>
		<path class="st2" d="M322,92.8V64.7c0-19.1-15.6-34.6-34.7-34.6h-2.8c0.1,0.2-106.8,0.4-106.5,0h-2.8c-19.1,0-34.6,15.5-34.6,34.6
			v266.2c0,19.1,15.5,34.6,34.6,34.6h112.3c19.1,0,34.6-15.5,34.6-34.6V148.4c7.8,2.9,14.3,6,19.7,9.2v173.3
			c0,30-24.3,54.3-54.3,54.3H175.1c-30,0-54.3-24.3-54.3-54.3V64.7c0-30,24.4-54.3,54.3-54.3h112.3c30,0,54.3,24.4,54.3,54.3v35.4
			C335.4,97.4,328.8,95,322,92.8z"/>
		<path class="st2" d="M275.2,21.4v0.4c0,1.1-0.1,2.1-0.3,3.2c0,0.2,0,0.3-0.1,0.4c-1.7,9.7-10.1,17-20.3,17h-46.5
			c-9.9,0-18.2-7-20.2-16.4c-0.1-0.4-0.2-0.7-0.2-1.1c-0.2-1.1-0.3-2.1-0.3-3.2v-0.4H275.2z"/>
	</g>
</g>
<g>
</g>
<g>
</g>
<g>
</g>
<g>
</g>
<g>
</g>
<g>
</g>
</svg>
