<svg width="44" height="58" viewBox="0 0 44 58" fill="none" xmlns="http://www.w3.org/2000/svg">
<path d="M3.38542 0.100006C1.53332 0.100006 0 1.64748 0 3.51667V48.6167C0 50.4859 1.53332 52.0333 3.38542 52.0333H8.125C8.87288 52.0333 9.47917 51.4215 9.47917 50.6667C9.47917 49.9119 8.87288 49.3 8.125 49.3H3.38542C2.98689 49.3 2.70833 49.0189 2.70833 48.6167V3.51667C2.70833 3.11446 2.98689 2.83334 3.38542 2.83334H31.1458V10.35C31.1458 12.2192 32.6792 13.7667 34.5312 13.7667H40.625V48.6167C40.625 49.0189 40.3464 49.3 39.9479 49.3H35.2083C34.4605 49.3 33.8542 49.9119 33.8542 50.6667C33.8542 51.4215 34.4605 52.0333 35.2083 52.0333H39.9479C41.8 52.0333 43.3333 50.4859 43.3333 48.6167V11.9863C43.3336 11.6407 43.2041 11.3078 42.971 11.0547C39.1398 6.89556 36.4339 3.98251 33.2273 0.532428C32.9717 0.257031 32.6147 0.100525 32.2408 0.100006H3.38542ZM33.8542 5.21166C35.7482 7.2547 37.5295 9.17941 39.2444 11.0333H34.5312C34.1327 11.0333 33.8542 10.7522 33.8542 10.35V5.21166Z" fill="#010028"/>
<path d="M21.6645 35.638C15.6974 35.638 10.8285 40.5419 10.8285 46.564C10.8285 52.5861 15.6974 57.5 21.6645 57.5C27.6315 57.5 32.5005 52.5861 32.5005 46.564C32.5005 40.5419 27.6315 35.638 21.6645 35.638ZM21.6645 38.362C26.1678 38.362 29.7915 42.0191 29.7915 46.564C29.7915 51.1089 26.1678 54.766 21.6645 54.766C17.1611 54.766 13.5375 51.1089 13.5375 46.564C13.5375 42.0191 17.1611 38.362 21.6645 38.362Z" fill="#010028"/>
<path d="M20.725 40.9559L17.1465 44.4366C16.6079 44.9624 16.5949 45.8297 17.1174 46.3718C17.6377 46.9161 18.4971 46.9304 19.0349 46.4038L20.315 45.1572V51.1951C20.3123 51.9499 20.916 52.5642 21.6639 52.5671C22.4159 52.5699 23.0263 51.9541 23.0234 51.1951V45.1599L24.3035 46.4038C24.8404 46.9251 25.6936 46.9108 26.2131 46.3718C26.7356 45.8297 26.7225 44.9624 26.1839 44.4366L22.6055 40.9559C22.0098 40.4145 21.2548 40.465 20.725 40.9559Z" fill="#010028"/>
<path d="M10.7586 15.138C10.401 15.1393 10.0585 15.2832 9.80568 15.5383C9.55286 15.7935 9.41029 16.1392 9.40906 16.5C9.41029 16.8608 9.55286 17.2065 9.80568 17.4617C10.0585 17.7168 10.401 17.8607 10.7586 17.862H25.733C26.0906 17.8607 26.4331 17.7168 26.6859 17.4617C26.9387 17.2065 27.0813 16.8608 27.0825 16.5C27.0813 16.1392 26.9387 15.7935 26.6859 15.5383C26.4331 15.2832 26.0906 15.1393 25.733 15.138H10.7586Z" fill="#010028"/>
<path d="M10.7586 21.968C10.401 21.9693 10.0585 22.1132 9.80569 22.3683C9.55287 22.6235 9.4103 22.9692 9.40907 23.33C9.40837 23.5095 9.44272 23.6874 9.51017 23.8536C9.57762 24.0197 9.67684 24.1708 9.80216 24.2982C9.92748 24.4256 10.0764 24.5268 10.2406 24.5961C10.4047 24.6654 10.5807 24.7014 10.7586 24.702H32.5705C32.7492 24.7027 32.9263 24.6677 33.0916 24.599C33.2569 24.5303 33.407 24.4293 33.5334 24.3018C33.6598 24.1742 33.7599 24.0227 33.828 23.8559C33.896 23.6891 33.9307 23.5104 33.93 23.33C33.9294 23.1505 33.8937 22.9728 33.8251 22.8072C33.7564 22.6416 33.6561 22.4912 33.5299 22.3647C33.4036 22.2383 33.2539 22.1381 33.0893 22.0701C32.9247 22.002 32.7484 21.9673 32.5705 21.968H10.7586Z" fill="#010028"/>
<path d="M10.7586 28.798C10.5807 28.7986 10.4047 28.8346 10.2406 28.9039C10.0764 28.9732 9.92748 29.0744 9.80216 29.2018C9.67684 29.3292 9.57762 29.4803 9.51017 29.6465C9.44272 29.8126 9.40837 29.9905 9.40907 30.17C9.4103 30.5309 9.55287 30.8766 9.80569 31.1317C10.0585 31.3869 10.401 31.5307 10.7586 31.532H25.733C26.0906 31.5307 26.4331 31.3869 26.6859 31.1317C26.9387 30.8766 27.0813 30.5309 27.0825 30.17C27.0832 29.9905 27.0489 29.8126 26.9814 29.6465C26.914 29.4803 26.8148 29.3292 26.6895 29.2018C26.5641 29.0744 26.4152 28.9732 26.2511 28.9039C26.087 28.8346 25.9109 28.7986 25.733 28.798H10.7586Z" fill="#010028"/>
</svg>
