<svg width="22" height="22" viewBox="0 0 22 22" fill="none" xmlns="http://www.w3.org/2000/svg">
<path d="M19.0269 10.162C19.6712 9.70933 20.0977 8.95627 20.0977 8.10743C20.0977 6.71883 18.9747 5.59576 17.5861 5.59576C16.1975 5.59576 15.0744 6.71883 15.0744 8.10743C15.0744 8.95627 15.4966 9.70933 16.1452 10.162C15.5924 10.3536 15.0875 10.6496 14.6609 11.0326C14.0732 10.532 13.3811 10.149 12.6237 9.92263C13.5421 9.36545 14.1603 8.3512 14.1603 7.19766C14.1603 5.43905 12.7368 4.01562 10.9782 4.01562C9.21963 4.01562 7.7962 5.44341 7.7962 7.19766C7.7962 8.3512 8.40997 9.36545 9.33281 9.92263C8.58409 10.149 7.90067 10.5277 7.31737 11.0196C6.89078 10.6452 6.39454 10.3536 5.85042 10.1664C6.49466 9.71369 6.92125 8.96062 6.92125 8.11179C6.92125 6.72318 5.79818 5.60011 4.40958 5.60011C3.02097 5.60011 1.8979 6.72318 1.8979 8.11179C1.8979 8.96062 2.32014 9.71369 2.96874 10.1664C1.2406 10.7628 0 12.4038 0 14.3322V14.6195C0 14.6282 0.00870598 14.6369 0.017412 14.6369H5.34112C5.31065 14.8763 5.29323 15.1244 5.29323 15.3726V15.6686C5.29323 16.9484 6.32924 17.9844 7.60902 17.9844H14.3562C15.6359 17.9844 16.6719 16.9484 16.6719 15.6686V15.3726C16.6719 15.1244 16.6545 14.8763 16.6241 14.6369H21.9826C21.9913 14.6369 22 14.6282 22 14.6195V14.3322C21.9913 12.3995 20.755 10.7584 19.0269 10.162ZM15.7709 8.10308C15.7709 7.10189 16.5849 6.28788 17.5861 6.28788C18.5873 6.28788 19.4013 7.10189 19.4013 8.10308C19.4013 9.09121 18.6047 9.89651 17.6209 9.91828C17.6078 9.91828 17.5991 9.91828 17.5861 9.91828C17.573 9.91828 17.5643 9.91828 17.5512 9.91828C16.5631 9.90087 15.7709 9.09556 15.7709 8.10308ZM8.48397 7.19766C8.48397 5.82647 9.59834 4.7121 10.9695 4.7121C12.3407 4.7121 13.4551 5.82647 13.4551 7.19766C13.4551 8.52097 12.4147 9.60486 11.1132 9.67886C11.0653 9.67886 11.0174 9.67886 10.9695 9.67886C10.9216 9.67886 10.8738 9.67886 10.8259 9.67886C9.52434 9.60486 8.48397 8.52097 8.48397 7.19766ZM2.58132 8.10308C2.58132 7.10189 3.39533 6.28788 4.39652 6.28788C5.39771 6.28788 6.21171 7.10189 6.21171 8.10308C6.21171 9.09121 5.41512 9.89651 4.43134 9.91828C4.41828 9.91828 4.40958 9.91828 4.39652 9.91828C4.38346 9.91828 4.37475 9.91828 4.36169 9.91828C3.37792 9.90087 2.58132 9.09556 2.58132 8.10308ZM5.463 13.9361H0.705184C0.901069 12.0817 2.46814 10.6278 4.3704 10.6148C4.37911 10.6148 4.38781 10.6148 4.39652 10.6148C4.40522 10.6148 4.41393 10.6148 4.42264 10.6148C5.32806 10.6191 6.15513 10.9543 6.79501 11.4984C6.16818 12.1775 5.70241 13.0133 5.463 13.9361ZM15.9668 15.6686C15.9668 16.5609 15.2398 17.2879 14.3474 17.2879H7.60032C6.70795 17.2879 5.98101 16.5609 5.98101 15.6686V15.3726C5.98101 12.6694 8.14009 10.458 10.8259 10.3797C10.8738 10.384 10.926 10.384 10.9739 10.384C11.0218 10.384 11.074 10.384 11.1219 10.3797C13.8077 10.458 15.9668 12.6694 15.9668 15.3726V15.6686ZM16.4848 13.9361C16.2454 13.0176 15.7883 12.1949 15.1658 11.5158C15.8101 10.9586 16.6458 10.6235 17.56 10.6148C17.5687 10.6148 17.5774 10.6148 17.5861 10.6148C17.5948 10.6148 17.6035 10.6148 17.6122 10.6148C19.5144 10.6278 21.0815 12.0817 21.2774 13.9361H16.4848Z" fill="#B0B8C3"/>
</svg>
