<svg width="24" height="27" viewBox="0 0 24 27" fill="none" xmlns="http://www.w3.org/2000/svg">
<path d="M11.9998 19.6364H4.79979V11.4545H2.39979V24.5455C2.39979 25.4506 2.93604 26.1818 3.59979 26.1818H13.1998C13.8635 26.1818 14.3998 25.4506 14.3998 24.5455V11.4545H11.9998V19.6364ZM23.7973 7.27159L20.5985 0.726136C20.3735 0.271023 19.9985 0 19.5973 0H4.40229C4.00104 0 3.62604 0.271023 3.40479 0.726136L0.206039 7.27159C-0.32646 8.3608 0.243539 9.81818 1.20354 9.81818H22.7998C23.756 9.81818 24.326 8.3608 23.7973 7.27159ZM19.1998 25.3636C19.1998 25.8136 19.4698 26.1818 19.7998 26.1818H20.9998C21.3298 26.1818 21.5998 25.8136 21.5998 25.3636V11.4545H19.1998V25.3636Z" fill="#3EC6FF"/>
</svg>
