<svg width="40" height="40" viewBox="0 0 40 40" fill="none" xmlns="http://www.w3.org/2000/svg">
<circle cx="20" cy="20" r="19.5" fill="#FFF8EB" stroke="#FFD581"/>
<path d="M21.5298 15.2492C22.3247 15.404 23.0553 15.792 23.628 16.3636C24.2007 16.9352 24.5895 17.6644 24.7446 18.4578L21.5298 15.2492ZM21.5298 12C23.1814 12.1831 24.7214 12.9213 25.8972 14.0933C27.0729 15.2653 27.8144 16.8015 28 18.4497L21.5298 12ZM27.1861 24.9319V27.3688C27.1871 27.595 27.1406 27.819 27.0498 28.0262C26.959 28.2335 26.8258 28.4196 26.6588 28.5725C26.4918 28.7255 26.2946 28.8419 26.0799 28.9144C25.8652 28.9869 25.6377 29.0138 25.4119 28.9934C22.9075 28.7218 20.5019 27.8677 18.3883 26.4996C16.4219 25.2525 14.7547 23.5885 13.5052 21.6258C12.1297 19.5067 11.2737 17.094 11.0066 14.5831C10.9863 14.3585 11.013 14.1321 11.0851 13.9184C11.1573 13.7046 11.2732 13.5082 11.4256 13.3416C11.5779 13.175 11.7633 13.042 11.97 12.9508C12.1768 12.8597 12.4002 12.8125 12.6262 12.8123H15.0678C15.4627 12.8084 15.8456 12.948 16.1451 13.2051C16.4446 13.4621 16.6402 13.8191 16.6955 14.2095C16.7985 14.9893 16.9897 15.7551 17.2652 16.492C17.3747 16.7828 17.3984 17.0988 17.3335 17.4025C17.2686 17.7063 17.1178 17.9851 16.899 18.206L15.8653 19.2376C17.0239 21.2713 18.711 22.9551 20.7485 24.1115L21.7821 23.0798C22.0034 22.8614 22.2828 22.7109 22.5871 22.6461C22.8915 22.5814 23.2081 22.605 23.4994 22.7143C24.2377 22.9893 25.0049 23.1801 25.7863 23.2829C26.1816 23.3386 26.5427 23.5373 26.8008 23.8414C27.0589 24.1454 27.196 24.5335 27.1861 24.9319Z" stroke="#FFC95C" stroke-linecap="round" stroke-linejoin="round"/>
</svg>
