<svg width="775" height="535" viewBox="0 0 775 535" fill="none" xmlns="http://www.w3.org/2000/svg">
<g clip-path="url(#clip0)">
<path opacity="0.1" d="M438.363 72.8373C388.686 72.9038 340.87 58.8225 295.135 43.1797C249.399 27.5368 204.016 10.02 155.263 2.59734C123.909 -2.17393 88.2547 -1.73535 63.7454 15.5887C40.1532 32.2549 33.3214 59.8393 30.0251 85.3237C27.5463 104.495 26.4033 124.617 35.6873 142.154C42.1336 154.328 53.1654 164.362 60.9409 175.964C88.0819 216.328 71.7601 267.888 45.3833 309.188C33.0157 328.565 18.5281 347.139 9.17763 367.626C-0.172848 388.113 -4.00741 411.345 5.52915 431.566C14.9793 451.608 36.3253 466.155 59.2329 476.089C105.753 496.304 159.915 500.637 212.622 502.305C329.294 506.006 446.191 498.457 562.777 490.908C605.92 488.117 649.257 485.306 691.51 477.219C714.969 472.733 739.127 466.075 755.761 451.482C776.874 432.955 781.194 402.706 765.829 380.963C740.064 344.494 672.125 337.616 653.65 298.157C643.462 276.434 652.247 251.521 665.187 230.582C692.939 185.653 740.708 145.41 741.512 95.1586C742.064 60.65 717.222 26.9853 680.119 11.987C641.229 -3.72227 588.203 0.318027 560.956 29.5969C532.937 59.7595 482.224 72.7908 438.363 72.8373Z" fill="#18CDCA"/>
<path d="M659.604 428.856C659.604 428.856 651.437 423.467 643.342 427.301C643.342 427.301 645.834 432.099 656.082 431.647L659.604 428.856Z" fill="#18CDCA"/>
<path d="M660.641 429.142C660.641 429.142 663.127 438.604 656.893 445.044C656.893 445.044 653.145 441.143 656.893 431.587L660.641 429.142Z" fill="#18CDCA"/>
<path d="M670.795 420.058C670.795 420.058 670.191 412.01 652.015 414.682C652.015 414.682 651.928 419.872 658.308 422.33C664.688 424.789 667.612 422.716 670.795 420.058Z" fill="#18CDCA"/>
<path d="M671.938 420.005C671.938 420.005 679.621 422.47 672.769 439.515C672.769 439.515 667.699 438.385 666.788 431.6C665.878 424.816 668.576 422.477 671.938 420.005Z" fill="#18CDCA"/>
<path d="M682.2 408.588C682.2 408.588 683.243 395.344 664.668 396.7C664.668 396.7 663.339 408.661 678.923 411.771L682.2 408.588Z" fill="#18CDCA"/>
<path d="M694.474 393.636C694.474 393.636 691.929 378.625 673.361 383.097C673.361 383.097 673.294 396.075 691.444 397.211L694.474 393.636Z" fill="#18CDCA"/>
<path d="M703.446 378.179C703.446 378.179 699.179 363.56 680.784 367.932C680.784 367.932 685.164 381.083 702.223 380.877L703.446 378.179Z" fill="#18CDCA"/>
<path d="M711.966 363.081C711.966 363.081 707.799 347.91 690.035 352.449C690.035 352.449 695.963 366.863 710.789 365.647L711.966 363.081Z" fill="#18CDCA"/>
<path d="M717.455 348.741C717.455 348.741 714.251 330.188 697.69 334.294C697.69 334.294 702.502 351.173 716.239 351.446L717.455 348.741Z" fill="#18CDCA"/>
<path d="M722.606 331.417C722.606 331.417 718.758 312.717 702.004 318.127C702.004 318.127 708.57 335.803 721.416 333.975L722.606 331.417Z" fill="#18CDCA"/>
<path d="M725.769 315.296C725.769 315.296 719.661 296.589 706.709 297.095C706.709 297.095 712.949 316.851 724.686 319.024L725.769 315.296Z" fill="#18CDCA"/>
<path d="M727.816 299.56C727.816 299.56 721.17 277.046 710.63 278.78C710.63 278.78 715.229 295.991 727.443 303.069L727.816 299.56Z" fill="#18CDCA"/>
<path d="M728.972 280.787C728.972 280.787 722.738 262.028 712.357 261.277C712.357 261.277 716.597 279.737 728.766 285.665L728.972 280.787Z" fill="#18CDCA"/>
<path d="M730.228 263.27C730.228 263.27 722.459 244.491 715.607 244.066C715.607 244.066 718.983 262.559 729.563 266.354L730.228 263.27Z" fill="#18CDCA"/>
<path d="M731.085 246.976C731.085 246.976 726.307 226.582 719.442 224.888C719.442 224.888 720.379 241.574 730.394 248.505L731.085 246.976Z" fill="#18CDCA"/>
<path d="M733.677 225.632C733.677 225.632 728.653 209.371 723.09 206.892C723.09 206.892 724.187 226.064 732.394 229.606L733.677 225.632Z" fill="#18CDCA"/>
<path d="M735.824 211.677L736.834 183.009C736.834 183.009 726.433 204.62 735.073 216.707L735.824 211.677Z" fill="#18CDCA"/>
<path d="M743.852 183.162C743.852 183.162 751.342 162.23 753.156 161.06C753.156 161.06 738.469 174.643 739.904 192.113L743.852 183.162Z" fill="#18CDCA"/>
<path d="M682.705 408.488C682.705 408.488 695.877 406.767 695.485 425.38C695.485 425.38 683.582 427.321 679.694 411.924L682.705 408.488Z" fill="#18CDCA"/>
<path d="M695.099 393.131C695.099 393.131 710.318 393.085 709.055 412.137C709.055 412.137 696.275 414.423 692.062 396.733L695.099 393.131Z" fill="#18CDCA"/>
<path d="M703.592 379.409C703.592 379.409 717.408 372.93 726.247 389.656C726.247 389.656 713.487 395.052 702.369 382.113L703.592 379.409Z" fill="#18CDCA"/>
<path d="M712.271 363.221C712.271 363.221 726.42 356.33 734.727 372.664C734.727 372.664 719.987 377.741 711.102 365.806L712.271 363.221Z" fill="#18CDCA"/>
<path d="M717.276 349.146C717.276 349.146 730.893 336.142 741.758 349.293C741.758 349.293 727.849 359.998 716.651 352.044L717.276 349.146Z" fill="#18CDCA"/>
<path d="M721.835 330.972C721.835 330.972 735.531 317.681 746.311 331.583C746.311 331.583 730.939 342.501 721.343 333.763L721.835 330.972Z" fill="#18CDCA"/>
<path d="M724.393 314.764C724.393 314.764 734.946 298.151 747.374 301.859C747.374 301.859 736.422 319.449 724.513 318.665L724.393 314.764Z" fill="#18CDCA"/>
<path d="M727.503 299.454C727.503 299.454 738.136 278.534 748.198 282.176C748.198 282.176 740.528 298.257 727.23 302.982L727.503 299.454Z" fill="#18CDCA"/>
<path d="M728.241 279.697C728.241 279.697 739.173 263.23 749.414 265.244C749.414 265.244 740.476 281.943 727.178 284.462L728.241 279.697Z" fill="#18CDCA"/>
<path d="M729.092 262.905C729.092 262.905 737.565 244.424 744.45 244.298C744.45 244.298 740.383 262.646 729.663 266.041L729.092 262.905Z" fill="#18CDCA"/>
<path d="M730.753 246.578C730.753 246.578 740.17 227.865 747.248 227.825C747.248 227.825 742.429 243.826 731.065 248.219L730.753 246.578Z" fill="#18CDCA"/>
<path d="M732.168 226.801C732.168 226.801 739.213 211.318 745.048 209.564C745.048 209.564 741.526 228.436 732.946 230.908L732.168 226.801Z" fill="#18CDCA"/>
<path d="M736.661 211.112L752.404 187.129C752.404 187.129 748.37 210.786 734.361 215.704L736.661 211.112Z" fill="#18CDCA"/>
<path d="M747.467 185.096C747.467 185.096 765.762 172.47 766.427 170.43C766.427 170.43 757.123 188.113 739.844 191.236L747.467 185.096Z" fill="#18CDCA"/>
<path d="M748.564 179.414C748.564 179.414 769.571 159.219 774.934 159.239C774.934 159.239 757.608 160.03 748.059 178.338L748.564 179.414Z" fill="#18CDCA"/>
<path d="M732.375 229.798L733.139 229.898C737.086 199.004 742.842 180.723 749.341 178.484L749.088 177.753C742.197 180.145 736.402 198.147 732.375 229.798Z" fill="#444053"/>
<path d="M726.566 303.68L727.722 303.773C727.968 300.889 728.154 297.938 728.281 294.995C729.384 269.424 731.092 245.94 733.338 228.336L732.673 227.506C730.42 245.149 728.227 269.337 727.124 294.948C726.998 297.872 726.812 300.809 726.566 303.68Z" fill="#444053"/>
<path d="M638.046 443.595C638.245 443.509 658.601 434.418 679.727 412.741C692.105 400.046 702.39 385.466 710.198 369.547C719.967 349.658 725.921 325.217 727.915 301.474L726.712 302.039C722.226 355.333 697.963 391.749 678.671 411.585C657.75 433.069 637.62 442.067 637.421 442.153L638.046 443.595Z" fill="#444053"/>
<path d="M690.753 56.6372H52.1819C50.6731 56.6372 49.2262 57.2365 48.1593 58.3033C47.0925 59.37 46.4932 60.8169 46.4932 62.3255V78.8987H696.441V62.3255C696.441 60.8169 695.842 59.37 694.775 58.3033C693.708 57.2365 692.261 56.6372 690.753 56.6372V56.6372Z" fill="#3F3D56"/>
<path d="M46.4932 78.8987V451.855C46.4932 454.897 47.7017 457.814 49.8528 459.965C52.0039 462.116 54.9215 463.325 57.9636 463.325H684.971C688.013 463.325 690.931 462.116 693.082 459.965C695.233 457.814 696.441 454.897 696.441 451.855V78.8987H46.4932Z" fill="white"/>
<path opacity="0.8" d="M56.7877 70.2599C58.2558 70.2599 59.4459 69.0698 59.4459 67.6018C59.4459 66.1338 58.2558 64.9437 56.7877 64.9437C55.3195 64.9437 54.1294 66.1338 54.1294 67.6018C54.1294 69.0698 55.3195 70.2599 56.7877 70.2599Z" fill="#FA5959"/>
<path opacity="0.8" d="M64.0977 70.2599C65.5658 70.2599 66.756 69.0698 66.756 67.6018C66.756 66.1338 65.5658 64.9437 64.0977 64.9437C62.6296 64.9437 61.4395 66.1338 61.4395 67.6018C61.4395 69.0698 62.6296 70.2599 64.0977 70.2599Z" fill="#FED253"/>
<path opacity="0.8" d="M71.4078 70.2599C72.8759 70.2599 74.0661 69.0698 74.0661 67.6018C74.0661 66.1338 72.8759 64.9437 71.4078 64.9437C69.9397 64.9437 68.7495 66.1338 68.7495 67.6018C68.7495 69.0698 69.9397 70.2599 71.4078 70.2599Z" fill="#8CCF4D"/>
<path opacity="0.05" d="M629.26 141.085H106.909V370.757H629.26V141.085Z" fill="black"/>
<path d="M625.273 142.826H110.896V367.434H625.273V142.826Z" fill="#E8E8E8"/>
<path d="M251.121 200.633C241 200.633 231.106 203.634 222.691 209.256C214.276 214.878 207.717 222.87 203.844 232.22C199.971 241.569 198.958 251.858 200.932 261.783C202.906 271.709 207.78 280.826 214.937 287.982C222.093 295.138 231.211 300.011 241.137 301.986C251.064 303.96 261.353 302.947 270.703 299.074C280.054 295.201 288.045 288.643 293.668 280.228C299.291 271.814 302.292 261.921 302.292 251.801C302.292 245.081 300.969 238.428 298.397 232.22C295.825 226.012 292.056 220.371 287.304 215.619C282.553 210.868 276.912 207.099 270.703 204.528C264.495 201.956 257.84 200.633 251.121 200.633V200.633ZM260.298 253.03V277.259H242.209V253.03C239.705 251.135 237.86 248.502 236.934 245.503C236.008 242.503 236.048 239.288 237.047 236.312C238.046 233.336 239.955 230.749 242.504 228.916C245.053 227.083 248.114 226.097 251.253 226.097C254.393 226.097 257.453 227.083 260.002 228.916C262.551 230.749 264.46 233.336 265.46 236.312C266.459 239.288 266.499 242.503 265.573 245.503C264.646 248.502 262.802 251.135 260.298 253.03V253.03Z" fill="#18CDCA"/>
<path opacity="0.05" d="M251.121 200.633C241 200.633 231.106 203.634 222.691 209.256C214.276 214.878 207.717 222.87 203.844 232.22C199.971 241.569 198.958 251.858 200.932 261.783C202.906 271.709 207.78 280.826 214.937 287.982C222.093 295.138 231.211 300.011 241.137 301.986C251.064 303.96 261.353 302.947 270.703 299.074C280.054 295.201 288.045 288.643 293.668 280.228C299.291 271.814 302.292 261.921 302.292 251.801C302.292 245.081 300.969 238.428 298.397 232.22C295.825 226.012 292.056 220.371 287.304 215.619C282.553 210.868 276.912 207.099 270.703 204.528C264.495 201.956 257.84 200.633 251.121 200.633V200.633ZM260.298 253.03V277.259H242.209V253.03C239.705 251.135 237.86 248.502 236.934 245.503C236.008 242.503 236.048 239.288 237.047 236.312C238.046 233.336 239.955 230.749 242.504 228.916C245.053 227.083 248.114 226.097 251.253 226.097C254.393 226.097 257.453 227.083 260.002 228.916C262.551 230.749 264.46 233.336 265.46 236.312C266.459 239.288 266.499 242.503 265.573 245.503C264.646 248.502 262.802 251.135 260.298 253.03V253.03Z" fill="black"/>
<path d="M251.12 186.013C238.108 186.013 225.388 189.871 214.568 197.1C203.749 204.329 195.316 214.604 190.336 226.625C185.357 238.646 184.054 251.874 186.592 264.635C189.131 277.397 195.397 289.119 204.598 298.319C213.799 307.52 225.523 313.786 238.285 316.324C251.047 318.863 264.276 317.56 276.298 312.58C288.32 307.601 298.595 299.169 305.825 288.35C313.054 277.532 316.913 264.812 316.913 251.801C316.913 234.353 309.981 217.619 297.643 205.282C285.304 192.944 268.57 186.013 251.12 186.013V186.013ZM262.916 253.382V284.528H239.657V253.382C236.437 250.946 234.064 247.56 232.872 243.702C231.681 239.844 231.731 235.709 233.016 231.882C234.301 228.054 236.756 224.727 240.035 222.37C243.313 220.012 247.249 218.744 251.287 218.744C255.324 218.744 259.26 220.012 262.538 222.37C265.817 224.727 268.272 228.054 269.557 231.882C270.842 235.709 270.892 239.844 269.701 243.702C268.509 247.56 266.136 250.946 262.916 253.382V253.382Z" fill="#18CDCA"/>
<path d="M556.822 243.169H344.16V265.762H556.822V243.169Z" fill="white"/>
<path d="M556.822 284.369H510.967V306.963H556.822V284.369Z" fill="#18CDCA"/>
<path d="M365.094 254.127H361.246L364.669 250.711C364.73 250.648 364.765 250.563 364.765 250.475C364.765 250.387 364.73 250.302 364.669 250.239C364.638 250.208 364.601 250.183 364.561 250.166C364.52 250.149 364.477 250.141 364.433 250.141C364.389 250.141 364.346 250.149 364.305 250.166C364.265 250.183 364.228 250.208 364.197 250.239L360.775 253.661V249.807C360.775 249.719 360.74 249.634 360.677 249.572C360.615 249.51 360.53 249.475 360.442 249.475C360.355 249.477 360.271 249.512 360.209 249.574C360.147 249.636 360.112 249.72 360.11 249.807V253.661L356.694 250.219C356.663 250.188 356.626 250.163 356.586 250.146C356.545 250.13 356.502 250.121 356.458 250.121C356.414 250.121 356.371 250.13 356.33 250.146C356.29 250.163 356.253 250.188 356.222 250.219C356.161 250.282 356.127 250.367 356.127 250.455C356.127 250.543 356.161 250.628 356.222 250.691L359.645 254.107H355.79C355.703 254.108 355.619 254.144 355.557 254.206C355.495 254.268 355.46 254.351 355.458 254.439C355.458 254.527 355.493 254.611 355.555 254.674C355.618 254.736 355.702 254.771 355.79 254.771H359.645L356.222 258.193C356.161 258.257 356.127 258.341 356.127 258.429C356.127 258.517 356.161 258.602 356.222 258.665C356.286 258.725 356.371 258.758 356.458 258.758C356.546 258.758 356.63 258.725 356.694 258.665L360.11 255.243V259.09C360.11 259.179 360.145 259.263 360.207 259.325C360.27 259.388 360.354 259.423 360.442 259.423C360.53 259.423 360.615 259.388 360.677 259.325C360.74 259.263 360.775 259.179 360.775 259.09V255.243L364.197 258.665C364.261 258.725 364.345 258.758 364.433 258.758C364.521 258.758 364.605 258.725 364.669 258.665C364.73 258.602 364.765 258.517 364.765 258.429C364.765 258.341 364.73 258.257 364.669 258.193L361.246 254.771H365.094C365.182 254.771 365.267 254.736 365.329 254.674C365.392 254.611 365.427 254.527 365.427 254.439C365.421 254.354 365.384 254.275 365.322 254.217C365.261 254.159 365.179 254.126 365.094 254.127Z" fill="#18CDCA"/>
<path d="M379.05 254.127H375.202L378.624 250.711C378.686 250.648 378.72 250.563 378.72 250.475C378.72 250.387 378.686 250.302 378.624 250.239C378.594 250.208 378.557 250.183 378.516 250.166C378.476 250.149 378.432 250.141 378.388 250.141C378.345 250.141 378.301 250.149 378.261 250.166C378.22 250.183 378.183 250.208 378.153 250.239L374.73 253.661V249.807C374.73 249.719 374.695 249.634 374.633 249.572C374.57 249.51 374.486 249.475 374.398 249.475C374.31 249.477 374.227 249.512 374.165 249.574C374.103 249.636 374.067 249.72 374.066 249.807V253.661L370.65 250.219C370.619 250.188 370.582 250.163 370.542 250.146C370.501 250.13 370.458 250.121 370.414 250.121C370.37 250.121 370.326 250.13 370.286 250.146C370.245 250.163 370.209 250.188 370.178 250.219C370.116 250.282 370.082 250.367 370.082 250.455C370.082 250.543 370.116 250.628 370.178 250.691L373.6 254.107H369.746C369.658 254.108 369.575 254.144 369.513 254.206C369.451 254.268 369.415 254.351 369.414 254.439C369.414 254.527 369.449 254.611 369.511 254.674C369.573 254.736 369.658 254.771 369.746 254.771H373.6L370.178 258.193C370.116 258.257 370.082 258.341 370.082 258.429C370.082 258.517 370.116 258.602 370.178 258.665C370.242 258.725 370.326 258.758 370.414 258.758C370.501 258.758 370.586 258.725 370.65 258.665L374.066 255.243V259.09C374.066 259.179 374.101 259.263 374.163 259.325C374.225 259.388 374.31 259.423 374.398 259.423C374.486 259.423 374.57 259.388 374.633 259.325C374.695 259.263 374.73 259.179 374.73 259.09V255.243L378.153 258.665C378.217 258.725 378.301 258.758 378.388 258.758C378.476 258.758 378.56 258.725 378.624 258.665C378.686 258.602 378.72 258.517 378.72 258.429C378.72 258.341 378.686 258.257 378.624 258.193L375.202 254.771H379.05C379.138 254.771 379.222 254.736 379.285 254.674C379.347 254.611 379.382 254.527 379.382 254.439C379.377 254.354 379.34 254.275 379.278 254.217C379.216 254.159 379.135 254.126 379.05 254.127Z" fill="#18CDCA"/>
<path d="M393.006 254.127H389.158L392.581 250.711C392.642 250.648 392.676 250.563 392.676 250.475C392.676 250.387 392.642 250.302 392.581 250.239C392.55 250.208 392.513 250.183 392.472 250.166C392.432 250.149 392.389 250.141 392.345 250.141C392.301 250.141 392.257 250.149 392.217 250.166C392.176 250.183 392.14 250.208 392.109 250.239L388.686 253.661V249.807C388.686 249.719 388.651 249.634 388.589 249.572C388.527 249.51 388.442 249.475 388.354 249.475C388.266 249.477 388.183 249.512 388.121 249.574C388.059 249.636 388.023 249.72 388.022 249.807V253.661L384.606 250.219C384.575 250.188 384.538 250.163 384.498 250.146C384.457 250.13 384.414 250.121 384.37 250.121C384.326 250.121 384.282 250.13 384.242 250.146C384.202 250.163 384.165 250.188 384.134 250.219C384.073 250.282 384.038 250.367 384.038 250.455C384.038 250.543 384.073 250.628 384.134 250.691L387.556 254.107H383.702C383.614 254.108 383.531 254.144 383.469 254.206C383.407 254.268 383.371 254.351 383.37 254.439C383.37 254.527 383.405 254.611 383.467 254.674C383.529 254.736 383.614 254.771 383.702 254.771H387.556L384.134 258.193C384.073 258.257 384.038 258.341 384.038 258.429C384.038 258.517 384.073 258.602 384.134 258.665C384.198 258.725 384.282 258.758 384.37 258.758C384.457 258.758 384.542 258.725 384.606 258.665L388.022 255.243V259.09C388.022 259.179 388.057 259.263 388.119 259.325C388.181 259.388 388.266 259.423 388.354 259.423C388.442 259.423 388.527 259.388 388.589 259.325C388.651 259.263 388.686 259.179 388.686 259.09V255.243L392.109 258.665C392.173 258.725 392.257 258.758 392.345 258.758C392.432 258.758 392.517 258.725 392.581 258.665C392.642 258.602 392.676 258.517 392.676 258.429C392.676 258.341 392.642 258.257 392.581 258.193L389.158 254.771H393.006C393.094 254.771 393.179 254.736 393.241 254.674C393.303 254.611 393.338 254.527 393.338 254.439C393.333 254.354 393.296 254.275 393.234 254.217C393.172 254.159 393.091 254.126 393.006 254.127Z" fill="#18CDCA"/>
<path d="M406.962 254.127H403.114L406.537 250.711C406.598 250.648 406.632 250.563 406.632 250.475C406.632 250.387 406.598 250.302 406.537 250.239C406.506 250.208 406.469 250.183 406.428 250.166C406.388 250.149 406.344 250.141 406.301 250.141C406.257 250.141 406.213 250.149 406.173 250.166C406.132 250.183 406.096 250.208 406.065 250.239L402.642 253.661V249.807C402.642 249.719 402.607 249.634 402.545 249.572C402.483 249.51 402.398 249.475 402.31 249.475C402.222 249.477 402.139 249.512 402.077 249.574C402.015 249.636 401.979 249.72 401.978 249.807V253.661L398.562 250.219C398.531 250.188 398.494 250.163 398.454 250.146C398.413 250.13 398.37 250.121 398.326 250.121C398.282 250.121 398.239 250.13 398.198 250.146C398.158 250.163 398.121 250.188 398.09 250.219C398.029 250.282 397.994 250.367 397.994 250.455C397.994 250.543 398.029 250.628 398.09 250.691L401.512 254.107H397.658C397.57 254.108 397.487 254.144 397.425 254.206C397.363 254.268 397.327 254.351 397.326 254.439C397.326 254.527 397.361 254.611 397.423 254.674C397.485 254.736 397.57 254.771 397.658 254.771H401.512L398.09 258.193C398.029 258.257 397.994 258.341 397.994 258.429C397.994 258.517 398.029 258.602 398.09 258.665C398.154 258.725 398.238 258.758 398.326 258.758C398.413 258.758 398.498 258.725 398.562 258.665L401.978 255.243V259.09C401.978 259.179 402.013 259.263 402.075 259.325C402.137 259.388 402.222 259.423 402.31 259.423C402.398 259.423 402.483 259.388 402.545 259.325C402.607 259.263 402.642 259.179 402.642 259.09V255.243L406.065 258.665C406.129 258.725 406.213 258.758 406.301 258.758C406.388 258.758 406.473 258.725 406.537 258.665C406.598 258.602 406.632 258.517 406.632 258.429C406.632 258.341 406.598 258.257 406.537 258.193L403.114 254.771H406.962C407.05 254.771 407.135 254.736 407.197 254.674C407.259 254.611 407.294 254.527 407.294 254.439C407.289 254.354 407.252 254.275 407.19 254.217C407.128 254.159 407.047 254.126 406.962 254.127Z" fill="#18CDCA"/>
<path d="M420.918 254.127H417.07L420.493 250.711C420.554 250.648 420.588 250.563 420.588 250.475C420.588 250.387 420.554 250.302 420.493 250.239C420.462 250.208 420.425 250.183 420.385 250.166C420.344 250.149 420.301 250.141 420.257 250.141C420.213 250.141 420.169 250.149 420.129 250.166C420.088 250.183 420.052 250.208 420.021 250.239L416.598 253.661V249.807C416.598 249.719 416.563 249.634 416.501 249.572C416.439 249.51 416.354 249.475 416.266 249.475C416.178 249.477 416.095 249.512 416.033 249.574C415.971 249.636 415.935 249.72 415.934 249.807V253.661L412.518 250.219C412.487 250.188 412.45 250.163 412.41 250.146C412.369 250.13 412.326 250.121 412.282 250.121C412.238 250.121 412.195 250.13 412.154 250.146C412.114 250.163 412.077 250.188 412.046 250.219C411.985 250.282 411.95 250.367 411.95 250.455C411.95 250.543 411.985 250.628 412.046 250.691L415.469 254.107H411.614C411.526 254.108 411.443 254.144 411.381 254.206C411.319 254.268 411.283 254.351 411.282 254.439C411.282 254.527 411.317 254.611 411.379 254.674C411.441 254.736 411.526 254.771 411.614 254.771H415.469L412.046 258.193C411.985 258.257 411.95 258.341 411.95 258.429C411.95 258.517 411.985 258.602 412.046 258.665C412.11 258.725 412.194 258.758 412.282 258.758C412.369 258.758 412.454 258.725 412.518 258.665L415.934 255.243V259.09C415.934 259.179 415.969 259.263 416.031 259.325C416.093 259.388 416.178 259.423 416.266 259.423C416.354 259.423 416.439 259.388 416.501 259.325C416.563 259.263 416.598 259.179 416.598 259.09V255.243L420.021 258.665C420.085 258.725 420.169 258.758 420.257 258.758C420.344 258.758 420.429 258.725 420.493 258.665C420.554 258.602 420.588 258.517 420.588 258.429C420.588 258.341 420.554 258.257 420.493 258.193L417.07 254.771H420.918C421.006 254.771 421.091 254.736 421.153 254.674C421.215 254.611 421.25 254.527 421.25 254.439C421.245 254.354 421.208 254.275 421.146 254.217C421.084 254.159 421.003 254.126 420.918 254.127Z" fill="#18CDCA"/>
<path d="M434.874 254.127H431.026L434.448 250.711C434.51 250.648 434.544 250.563 434.544 250.475C434.544 250.387 434.51 250.302 434.448 250.239C434.417 250.208 434.381 250.183 434.34 250.166C434.3 250.149 434.256 250.141 434.212 250.141C434.168 250.141 434.125 250.149 434.085 250.166C434.044 250.183 434.007 250.208 433.976 250.239L430.554 253.661V249.807C430.554 249.719 430.519 249.634 430.457 249.572C430.394 249.51 430.31 249.475 430.222 249.475C430.134 249.477 430.05 249.512 429.988 249.574C429.927 249.636 429.891 249.72 429.889 249.807V253.661L426.473 250.219C426.443 250.188 426.406 250.163 426.365 250.146C426.325 250.13 426.281 250.121 426.237 250.121C426.194 250.121 426.15 250.13 426.11 250.146C426.069 250.163 426.032 250.188 426.002 250.219C425.94 250.282 425.906 250.367 425.906 250.455C425.906 250.543 425.94 250.628 426.002 250.691L429.424 254.107H425.57C425.482 254.108 425.398 254.144 425.336 254.206C425.275 254.268 425.239 254.351 425.237 254.439C425.237 254.527 425.272 254.611 425.335 254.674C425.397 254.736 425.481 254.771 425.57 254.771H429.424L426.002 258.193C425.94 258.257 425.906 258.341 425.906 258.429C425.906 258.517 425.94 258.602 426.002 258.665C426.066 258.725 426.15 258.758 426.237 258.758C426.325 258.758 426.409 258.725 426.473 258.665L429.889 255.243V259.09C429.889 259.179 429.924 259.263 429.987 259.325C430.049 259.388 430.133 259.423 430.222 259.423C430.31 259.423 430.394 259.388 430.457 259.325C430.519 259.263 430.554 259.179 430.554 259.09V255.243L433.976 258.665C434.04 258.725 434.125 258.758 434.212 258.758C434.3 258.758 434.384 258.725 434.448 258.665C434.51 258.602 434.544 258.517 434.544 258.429C434.544 258.341 434.51 258.257 434.448 258.193L431.026 254.771H434.874C434.962 254.771 435.046 254.736 435.108 254.674C435.171 254.611 435.206 254.527 435.206 254.439C435.201 254.354 435.163 254.275 435.102 254.217C435.04 254.159 434.958 254.126 434.874 254.127Z" fill="#18CDCA"/>
<path d="M448.83 254.127H444.982L448.404 250.711C448.466 250.648 448.5 250.563 448.5 250.475C448.5 250.387 448.466 250.302 448.404 250.239C448.373 250.208 448.337 250.183 448.296 250.166C448.256 250.149 448.212 250.141 448.168 250.141C448.124 250.141 448.081 250.149 448.041 250.166C448 250.183 447.963 250.208 447.932 250.239L444.51 253.661V249.807C444.51 249.719 444.475 249.634 444.413 249.572C444.35 249.51 444.266 249.475 444.178 249.475C444.09 249.477 444.006 249.512 443.945 249.574C443.883 249.636 443.847 249.72 443.845 249.807V253.661L440.429 250.219C440.399 250.188 440.362 250.163 440.321 250.146C440.281 250.13 440.237 250.121 440.194 250.121C440.15 250.121 440.106 250.13 440.066 250.146C440.025 250.163 439.988 250.188 439.958 250.219C439.896 250.282 439.862 250.367 439.862 250.455C439.862 250.543 439.896 250.628 439.958 250.691L443.38 254.107H439.526C439.438 254.108 439.354 254.144 439.293 254.206C439.231 254.268 439.195 254.351 439.193 254.439C439.193 254.527 439.228 254.611 439.291 254.674C439.353 254.736 439.438 254.771 439.526 254.771H443.38L439.958 258.193C439.896 258.257 439.862 258.341 439.862 258.429C439.862 258.517 439.896 258.602 439.958 258.665C440.022 258.725 440.106 258.758 440.194 258.758C440.281 258.758 440.365 258.725 440.429 258.665L443.845 255.243V259.09C443.845 259.179 443.88 259.263 443.943 259.325C444.005 259.388 444.09 259.423 444.178 259.423C444.266 259.423 444.35 259.388 444.413 259.325C444.475 259.263 444.51 259.179 444.51 259.09V255.243L447.932 258.665C447.996 258.725 448.081 258.758 448.168 258.758C448.256 258.758 448.34 258.725 448.404 258.665C448.466 258.602 448.5 258.517 448.5 258.429C448.5 258.341 448.466 258.257 448.404 258.193L444.982 254.771H448.83C448.918 254.771 449.002 254.736 449.065 254.674C449.127 254.611 449.162 254.527 449.162 254.439C449.157 254.354 449.12 254.275 449.058 254.217C448.996 254.159 448.914 254.126 448.83 254.127Z" fill="#18CDCA"/>
<path d="M462.786 254.127H458.938L462.36 250.711C462.422 250.648 462.456 250.563 462.456 250.475C462.456 250.387 462.422 250.302 462.36 250.239C462.329 250.208 462.293 250.183 462.252 250.166C462.212 250.149 462.168 250.141 462.124 250.141C462.081 250.141 462.037 250.149 461.997 250.166C461.956 250.183 461.919 250.208 461.888 250.239L458.466 253.661V249.807C458.466 249.719 458.431 249.634 458.369 249.572C458.306 249.51 458.222 249.475 458.134 249.475C458.046 249.477 457.963 249.512 457.901 249.574C457.839 249.636 457.803 249.72 457.801 249.807V253.661L454.386 250.219C454.355 250.188 454.318 250.163 454.277 250.146C454.237 250.13 454.193 250.121 454.15 250.121C454.106 250.121 454.062 250.13 454.022 250.146C453.981 250.163 453.945 250.188 453.914 250.219C453.852 250.282 453.818 250.367 453.818 250.455C453.818 250.543 453.852 250.628 453.914 250.691L457.336 254.107H453.482C453.394 254.108 453.311 254.144 453.249 254.206C453.187 254.268 453.151 254.351 453.149 254.439C453.149 254.527 453.184 254.611 453.247 254.674C453.309 254.736 453.394 254.771 453.482 254.771H457.336L453.914 258.193C453.852 258.257 453.818 258.341 453.818 258.429C453.818 258.517 453.852 258.602 453.914 258.665C453.978 258.725 454.062 258.758 454.15 258.758C454.237 258.758 454.321 258.725 454.386 258.665L457.801 255.243V259.09C457.801 259.179 457.836 259.263 457.899 259.325C457.961 259.388 458.046 259.423 458.134 259.423C458.222 259.423 458.306 259.388 458.369 259.325C458.431 259.263 458.466 259.179 458.466 259.09V255.243L461.888 258.665C461.952 258.725 462.037 258.758 462.124 258.758C462.212 258.758 462.296 258.725 462.36 258.665C462.422 258.602 462.456 258.517 462.456 258.429C462.456 258.341 462.422 258.257 462.36 258.193L458.938 254.771H462.786C462.874 254.771 462.958 254.736 463.021 254.674C463.083 254.611 463.118 254.527 463.118 254.439C463.113 254.354 463.076 254.275 463.014 254.217C462.952 254.159 462.87 254.126 462.786 254.127Z" fill="#18CDCA"/>
<path d="M476.742 254.127H472.894L476.316 250.711C476.378 250.648 476.412 250.563 476.412 250.475C476.412 250.387 476.378 250.302 476.316 250.239C476.285 250.208 476.249 250.183 476.208 250.166C476.168 250.149 476.124 250.141 476.08 250.141C476.037 250.141 475.993 250.149 475.953 250.166C475.912 250.183 475.875 250.208 475.845 250.239L472.422 253.661V249.807C472.422 249.719 472.387 249.634 472.325 249.572C472.262 249.51 472.178 249.475 472.09 249.475C472.002 249.477 471.919 249.512 471.857 249.574C471.795 249.636 471.759 249.72 471.757 249.807V253.661L468.342 250.219C468.311 250.188 468.274 250.163 468.233 250.146C468.193 250.13 468.149 250.121 468.106 250.121C468.062 250.121 468.018 250.13 467.978 250.146C467.937 250.163 467.901 250.188 467.87 250.219C467.808 250.282 467.774 250.367 467.774 250.455C467.774 250.543 467.808 250.628 467.87 250.691L471.292 254.107H467.438C467.35 254.108 467.267 254.144 467.205 254.206C467.143 254.268 467.107 254.351 467.105 254.439C467.105 254.527 467.14 254.611 467.203 254.674C467.265 254.736 467.35 254.771 467.438 254.771H471.292L467.87 258.193C467.808 258.257 467.774 258.341 467.774 258.429C467.774 258.517 467.808 258.602 467.87 258.665C467.934 258.725 468.018 258.758 468.106 258.758C468.193 258.758 468.278 258.725 468.342 258.665L471.757 255.243V259.09C471.757 259.179 471.792 259.263 471.855 259.325C471.917 259.388 472.002 259.423 472.09 259.423C472.178 259.423 472.262 259.388 472.325 259.325C472.387 259.263 472.422 259.179 472.422 259.09V255.243L475.845 258.665C475.909 258.725 475.993 258.758 476.08 258.758C476.168 258.758 476.252 258.725 476.316 258.665C476.378 258.602 476.412 258.517 476.412 258.429C476.412 258.341 476.378 258.257 476.316 258.193L472.894 254.771H476.742C476.83 254.771 476.914 254.736 476.977 254.674C477.039 254.611 477.074 254.527 477.074 254.439C477.069 254.354 477.032 254.275 476.97 254.217C476.908 254.159 476.826 254.126 476.742 254.127Z" fill="#18CDCA"/>
<path d="M490.698 254.127H486.85L490.272 250.711C490.334 250.648 490.368 250.563 490.368 250.475C490.368 250.387 490.334 250.302 490.272 250.239C490.242 250.208 490.205 250.183 490.164 250.166C490.124 250.149 490.08 250.141 490.037 250.141C489.993 250.141 489.949 250.149 489.909 250.166C489.868 250.183 489.831 250.208 489.801 250.239L486.378 253.661V249.807C486.378 249.719 486.343 249.634 486.281 249.572C486.218 249.51 486.134 249.475 486.046 249.475C485.958 249.477 485.875 249.512 485.813 249.574C485.751 249.636 485.715 249.72 485.714 249.807V253.661L482.298 250.219C482.267 250.188 482.23 250.163 482.189 250.146C482.149 250.13 482.106 250.121 482.062 250.121C482.018 250.121 481.974 250.13 481.934 250.146C481.893 250.163 481.857 250.188 481.826 250.219C481.764 250.282 481.73 250.367 481.73 250.455C481.73 250.543 481.764 250.628 481.826 250.691L485.248 254.107H481.394C481.306 254.108 481.223 254.144 481.161 254.206C481.099 254.268 481.063 254.351 481.062 254.439C481.062 254.527 481.097 254.611 481.159 254.674C481.221 254.736 481.306 254.771 481.394 254.771H485.248L481.826 258.193C481.764 258.257 481.73 258.341 481.73 258.429C481.73 258.517 481.764 258.602 481.826 258.665C481.89 258.725 481.974 258.758 482.062 258.758C482.149 258.758 482.234 258.725 482.298 258.665L485.714 255.243V259.09C485.714 259.179 485.749 259.263 485.811 259.325C485.873 259.388 485.958 259.423 486.046 259.423C486.134 259.423 486.218 259.388 486.281 259.325C486.343 259.263 486.378 259.179 486.378 259.09V255.243L489.801 258.665C489.865 258.725 489.949 258.758 490.037 258.758C490.124 258.758 490.208 258.725 490.272 258.665C490.334 258.602 490.368 258.517 490.368 258.429C490.368 258.341 490.334 258.257 490.272 258.193L486.85 254.771H490.698C490.786 254.771 490.87 254.736 490.933 254.674C490.995 254.611 491.03 254.527 491.03 254.439C491.025 254.354 490.988 254.275 490.926 254.217C490.864 254.159 490.783 254.126 490.698 254.127Z" fill="#18CDCA"/>
<path d="M504.653 254.127H500.805L504.228 250.711C504.289 250.648 504.324 250.563 504.324 250.475C504.324 250.387 504.289 250.302 504.228 250.239C504.197 250.208 504.16 250.183 504.12 250.166C504.079 250.149 504.036 250.141 503.992 250.141C503.948 250.141 503.905 250.149 503.864 250.166C503.824 250.183 503.787 250.208 503.756 250.239L500.334 253.661V249.807C500.334 249.719 500.299 249.634 500.236 249.572C500.174 249.51 500.09 249.475 500.001 249.475C499.914 249.477 499.83 249.512 499.768 249.574C499.706 249.636 499.671 249.72 499.669 249.807V253.661L496.253 250.219C496.222 250.188 496.186 250.163 496.145 250.146C496.105 250.13 496.061 250.121 496.017 250.121C495.973 250.121 495.93 250.13 495.889 250.146C495.849 250.163 495.812 250.188 495.781 250.219C495.72 250.282 495.686 250.367 495.686 250.455C495.686 250.543 495.72 250.628 495.781 250.691L499.204 254.107H495.349C495.262 254.108 495.178 254.144 495.116 254.206C495.054 254.268 495.019 254.351 495.017 254.439C495.017 254.527 495.052 254.611 495.114 254.674C495.177 254.736 495.261 254.771 495.349 254.771H499.204L495.781 258.193C495.72 258.257 495.686 258.341 495.686 258.429C495.686 258.517 495.72 258.602 495.781 258.665C495.845 258.725 495.93 258.758 496.017 258.758C496.105 258.758 496.189 258.725 496.253 258.665L499.669 255.243V259.09C499.669 259.179 499.704 259.263 499.766 259.325C499.829 259.388 499.913 259.423 500.001 259.423C500.09 259.423 500.174 259.388 500.236 259.325C500.299 259.263 500.334 259.179 500.334 259.09V255.243L503.756 258.665C503.82 258.725 503.904 258.758 503.992 258.758C504.08 258.758 504.164 258.725 504.228 258.665C504.289 258.602 504.324 258.517 504.324 258.429C504.324 258.341 504.289 258.257 504.228 258.193L500.805 254.771H504.653C504.741 254.771 504.826 254.736 504.888 254.674C504.951 254.611 504.986 254.527 504.986 254.439C504.981 254.354 504.943 254.275 504.882 254.217C504.82 254.159 504.738 254.126 504.653 254.127Z" fill="#18CDCA"/>
<path d="M611.643 334.966C611.624 334.162 611.524 333.363 611.344 332.58C610.745 330.334 609.396 327.616 607.177 326.938C604.885 326.237 602.671 325.301 600.571 324.147C600.172 317.024 601.807 309.734 600.026 302.829C599.361 300.304 598.265 297.885 597.972 295.3C597.607 292.084 598.484 288.655 597.201 285.691C596.191 283.352 593.972 281.704 591.586 280.84C589.2 279.976 586.628 279.744 584.096 279.511C580.906 279.252 570.579 278.029 566.977 280.88C566.728 281.073 566.505 281.296 566.312 281.545V281.545C566.233 281.654 566.162 281.77 566.1 281.89L566.066 281.943C565.994 282.082 565.934 282.226 565.887 282.375V282.375C565.837 282.538 565.799 282.705 565.774 282.874C565.774 282.927 565.774 282.98 565.774 283.033C565.774 283.086 565.774 283.266 565.774 283.385V283.565C565.774 283.684 565.774 283.804 565.774 283.93C565.774 284.057 565.774 284.023 565.774 284.07C565.821 284.668 565.907 285.266 565.907 285.857C565.914 286.152 565.887 286.446 565.827 286.735C565.606 287.518 565.231 288.25 564.724 288.888V288.888L564.604 289.06C564.531 289.167 564.458 289.266 564.392 289.373C564.325 289.479 564.272 289.559 564.219 289.652C564.166 289.745 564.113 289.805 564.066 289.891C564.002 290.001 563.944 290.114 563.893 290.23C563.893 290.296 563.82 290.356 563.794 290.423C563.711 290.602 563.644 290.789 563.594 290.981C563.439 291.558 563.425 292.165 563.554 292.749C563.734 293.494 564.042 294.202 564.465 294.842C564.631 295.114 564.81 295.38 564.997 295.646L565.462 296.277C565.375 296.894 565.328 297.515 565.322 298.138C565.322 300.219 565.795 302.272 566.705 304.144C567.614 306.016 568.936 307.657 570.572 308.943C570.836 311.749 570.807 314.575 570.486 317.376C570.426 317.96 570.353 318.552 570.273 319.137C570.193 319.721 570.134 320.107 570.054 320.592C569.081 320.731 568.09 320.656 567.15 320.373C566.716 320.179 566.272 320.008 565.821 319.861C563.887 319.376 561.913 321.303 559.999 320.718C559.999 320.811 559.946 320.898 559.913 320.984C559.513 320.736 559.054 320.6 558.583 320.592C557.447 320.539 556.523 319.715 555.699 318.937L553.167 316.552C553.002 316.406 552.855 316.241 552.729 316.06C552.592 315.802 552.49 315.527 552.423 315.243C551.998 313.867 550.967 312.771 549.971 311.727C549.782 311.489 549.531 311.308 549.246 311.202C549.136 311.186 549.024 311.186 548.914 311.202C548.846 311.109 548.773 311.021 548.695 310.936C548.523 310.739 548.338 310.553 548.143 310.378C546.934 309.262 546.814 308.305 545.764 307.056C544.848 305.864 544.018 304.61 543.278 303.301C543.192 302.603 543.072 301.886 542.926 301.161C542.591 299.503 542.104 297.879 541.471 296.31L540.142 293.367L539.989 293.519C539.025 292.084 537.995 291.3 537.071 291.486C535.523 291.805 534.759 294.809 535.005 298.736L535.536 302.723C535.536 302.823 535.583 302.922 535.609 303.022C535.514 303.495 535.465 303.975 535.463 304.457C535.463 305.016 535.981 305.428 536.254 305.926C536.69 306.601 536.921 307.388 536.919 308.192C536.885 308.478 536.799 308.75 536.786 309.029C536.822 309.654 537.039 310.254 537.41 310.757L540.733 316.339L541.398 317.509L541.438 317.562C541.647 317.97 541.953 318.321 542.328 318.585C542.458 319.983 542.829 321.348 543.425 322.619C543.538 322.871 543.664 323.111 543.797 323.35C544.69 324.818 545.742 326.184 546.934 327.423L548.515 329.198C550.077 330.939 551.639 332.686 553.333 334.294C553.94 334.94 554.673 335.453 555.487 335.803C555.885 335.962 556.319 336.014 556.743 335.952C557.168 335.89 557.569 335.717 557.906 335.451C557.906 336.275 557.906 337.099 557.906 337.923C558.152 337.938 558.391 338.019 558.596 338.157C558.801 338.295 558.965 338.485 559.072 338.708C559.179 338.931 559.225 339.178 559.204 339.424C559.184 339.671 559.098 339.907 558.956 340.109C557.56 343.691 556.151 347.306 554.038 350.515C555.53 351.398 556.912 352.453 558.158 353.659C558.966 354.554 559.685 355.527 560.305 356.563C560.364 357.054 560.411 357.539 560.438 358.025C560.929 365.946 557.866 373.807 555.121 381.356C554.33 383.496 553.466 385.735 553.533 387.961C553.012 388.282 552.514 388.64 552.044 389.031C552.589 390.453 552.376 391.722 552.317 393.244C552.297 394.156 552.11 395.057 551.765 395.902C551.476 396.488 551.157 397.058 550.808 397.61C549.087 400.647 548.708 404.255 548.362 407.724C548.156 409.817 548.967 412.376 548.017 414.25C546.375 417.466 544.92 420.895 544.694 424.47C544.686 425.275 544.583 426.075 544.388 426.856C544.182 427.52 543.817 428.085 543.631 428.736C543.439 429.609 543.394 430.507 543.498 431.394C543.624 434.58 543.151 437.76 542.102 440.771C541.271 443.143 540.354 445.682 541.006 448.12C539.402 449.804 538.412 451.979 538.194 454.294C538.177 454.886 538.106 455.476 537.982 456.055C537.779 456.647 537.511 457.215 537.184 457.749C535.847 460.186 535.22 462.949 535.377 465.724C533.383 468.428 532.386 471.764 531.795 475.08C531.203 478.396 530.944 481.772 530.186 485.048C529.176 489.381 527.349 493.76 526.99 498.199C524.837 499.574 523.906 502.239 523.494 504.758C523.082 507.276 523.016 509.921 521.959 512.247C521.414 513.456 520.63 514.539 520.112 515.775C519.748 516.759 519.481 517.777 519.314 518.812C518.995 520.434 518.716 522.241 519.108 523.796C518.544 524.393 517.887 524.894 517.161 525.278C517.267 524.866 517.354 524.454 517.427 524.035C515.712 525.59 512.602 525.046 511.233 526.913C510.822 527.515 510.662 528.253 510.786 528.971C510.91 529.689 511.308 530.331 511.898 530.76C512.326 531.021 512.789 531.221 513.273 531.352C516.596 532.415 520.012 533.485 523.428 532.92C523.832 532.877 524.223 532.752 524.577 532.555C525.022 532.227 525.387 531.805 525.647 531.319C526.159 530.508 526.671 529.697 527.176 528.886C528.4 529.252 529.645 529.542 530.904 529.757C531.03 530.82 531.123 531.883 531.17 532.947C531.835 533.08 532.725 533.119 533.037 532.501C533.132 532.268 533.171 532.015 533.15 531.764C533.15 531.292 533.217 530.667 533.257 530.029H533.39C535.417 530.111 537.435 529.703 539.271 528.84C538.56 522.952 540.906 517.197 542.94 511.629C545.086 505.768 546.927 499.8 548.781 493.833C550.11 489.633 551.579 485.566 552.881 481.36C554.521 476.044 556.167 470.727 557.819 465.411C558.537 463.072 559.261 460.76 560.085 458.434C561.82 453.727 563.879 449.147 566.246 444.725C566.91 443.469 567.575 442.226 568.12 440.924C568.785 439.335 569.256 437.674 569.788 436.033C570.947 432.665 572.341 429.383 573.962 426.211C574.008 426.125 574.041 426.045 574.088 425.965C574.626 428.165 575.164 430.398 575.523 432.61C576.009 435.324 576.047 438.098 575.636 440.824C575.317 442.678 574.713 444.512 574.786 446.393C574.885 448.991 576.274 451.35 576.959 453.855C577.4 455.73 577.649 457.645 577.703 459.57C577.889 462.56 579.511 465.916 578.368 468.687C574.812 477.466 576.533 487.38 574.507 496.597C573.463 501.329 570.267 505.774 570.519 510.612C570.696 514.045 570.998 517.47 571.423 520.886C571.525 521.963 571.806 523.016 572.254 524.002C572.519 524.521 572.823 525.018 573.164 525.491C572.872 525.604 572.626 525.903 572.413 526.534C571.868 528.195 572.413 530.255 573.888 531.186C574.49 531.507 575.138 531.731 575.809 531.85C576.713 532.107 577.648 532.237 578.587 532.236C578.879 532.22 579.17 532.184 579.458 532.129C580.485 532.561 581.534 532.938 582.601 533.259C582.601 533.531 582.654 533.804 582.687 534.076C582.689 534.219 582.721 534.359 582.78 534.489C582.84 534.618 582.926 534.733 583.033 534.827C583.199 534.905 583.382 534.937 583.565 534.92H587.173C587.173 534.621 587.173 534.316 587.173 534.017C587.586 534.06 588.004 534.016 588.398 533.887C588.793 533.759 589.157 533.55 589.466 533.272C589.786 532.866 590.012 532.394 590.131 531.89C591.114 528.554 592.091 525.216 593.061 521.876C594.225 518.184 594.709 514.311 594.49 510.446C593.207 498.199 596.025 485.912 595.108 473.631C594.556 466.25 594.936 458.829 596.238 451.543C596.537 449.895 596.902 448.22 597.035 446.579C597.328 443.482 596.969 440.352 597.188 437.275C597.261 436.199 597.408 435.129 597.54 434.059C598.451 427.419 598.928 420.726 598.969 414.024C598.949 411.803 598.811 409.585 598.557 407.379C599.25 407.202 599.879 406.834 600.371 406.315C600.963 405.545 600.81 404.461 600.803 403.478C600.803 401.125 601.794 398.906 602.591 396.686C603.615 393.625 604.453 390.505 605.103 387.343C605.79 384.795 606.165 382.173 606.22 379.535C606.22 379.269 606.206 379.003 606.18 378.738C606.43 378.564 606.639 378.337 606.791 378.073C606.965 377.684 607.072 377.268 607.11 376.844C607.349 375.149 607.595 373.448 607.835 371.747C608.012 370.529 608.187 369.313 608.36 368.099L610.473 353.353C610.652 352.07 610.838 350.795 611.018 349.519L611.569 345.704C611.629 345.252 611.696 344.801 611.742 344.375C613.364 341.664 611.815 338.049 611.643 334.966ZM594.012 390.174C593.227 388.313 592.496 386.406 592.682 384.399H592.609C592.784 383.782 592.754 383.124 592.523 382.525C592.317 382.04 591.958 381.628 591.739 381.143C591.503 380.551 591.381 379.92 591.38 379.283C591.215 375.241 591.534 371.194 592.33 367.228C592.417 366.763 592.51 366.291 592.596 365.826C592.875 365.665 593.13 365.466 593.354 365.235C593.703 364.836 593.992 364.388 594.211 363.906C594.962 362.397 595.646 360.862 596.278 359.3C596.484 358.795 596.783 358.211 597.295 358.084C597.188 361.972 597.587 365.939 596.005 369.448C595.705 370.013 595.481 370.617 595.341 371.242C595.194 372.232 595.607 373.235 595.46 374.219C595.387 374.731 595.168 375.202 595.082 375.707C595.016 375.955 595.017 376.216 595.085 376.464C595.152 376.711 595.284 376.936 595.467 377.116C595.555 377.178 595.651 377.227 595.753 377.262C595.713 377.528 595.68 377.801 595.653 378.06C595.6 378.605 595.573 379.116 595.54 379.435C595.387 381.061 595.327 382.694 595.361 384.326C595.361 386.087 595.427 387.848 595.401 389.642C595.425 390.158 595.339 390.672 595.148 391.151C595.016 391.398 594.846 391.622 594.643 391.815C594.45 391.217 594.238 390.692 594.012 390.174Z" fill="url(#paint0_linear)"/>
<path d="M541.552 313.069C543.58 312.654 544.27 307.662 543.093 301.921C541.917 296.179 539.319 291.861 537.291 292.277C535.263 292.692 534.573 297.683 535.75 303.425C536.926 309.167 539.524 313.485 541.552 313.069Z" fill="#FBBEBE"/>
<path d="M572.519 526.66C571.974 528.308 572.519 530.368 573.994 531.265C574.592 531.584 575.235 531.808 575.902 531.93C576.803 532.185 577.736 532.312 578.673 532.309C579.823 532.256 580.926 531.804 582.076 531.644C582.208 531.611 582.349 531.63 582.468 531.697C582.525 531.759 582.568 531.833 582.594 531.913C582.619 531.994 582.626 532.079 582.614 532.163C582.626 532.816 582.675 533.468 582.76 534.116C582.761 534.259 582.792 534.399 582.852 534.529C582.911 534.658 582.998 534.774 583.106 534.867C583.272 534.945 583.455 534.977 583.637 534.96H587.239C587.321 531.796 586.974 528.635 586.209 525.564C586.159 525.329 586.069 525.104 585.943 524.899C585.638 524.565 585.236 524.333 584.794 524.235C583.913 523.868 582.962 523.703 582.009 523.75C580.846 523.903 579.876 524.653 578.886 525.278C577.895 525.903 576.546 526.454 575.343 526.135C574.14 525.816 573.137 524.813 572.519 526.66Z" fill="#3F3D56"/>
<path d="M519.633 523.743C518.62 524.827 517.378 525.672 515.998 526.215L515.386 526.507C515.302 526.539 515.229 526.598 515.18 526.674C515.169 526.725 515.168 526.779 515.18 526.83C515.191 526.882 515.214 526.931 515.247 526.973C515.755 527.759 516.507 528.358 517.388 528.679C518.268 528.999 519.229 529.023 520.125 528.747C520.52 528.648 520.887 528.456 521.195 528.189C521.701 527.588 521.991 526.834 522.019 526.049C522.22 525.239 522.185 524.388 521.919 523.597C520.995 521.517 520.656 522.46 519.633 523.743Z" fill="#FBBEBE"/>
<path d="M533.443 531.93C533.463 532.181 533.424 532.434 533.33 532.667C533.017 533.279 532.147 533.246 531.469 533.113C531.366 530.858 531.093 528.614 530.651 526.401C529.362 526.341 528.432 527.564 527.741 528.66L525.96 531.485C525.702 531.971 525.339 532.393 524.896 532.721C524.54 532.915 524.15 533.039 523.746 533.086C520.344 533.651 516.908 532.581 513.625 531.518C513.142 531.388 512.678 531.191 512.249 530.933C511.664 530.503 511.267 529.863 511.143 529.147C511.019 528.43 511.178 527.694 511.585 527.092C512.961 525.231 516.051 525.763 517.765 524.221C517.586 525.306 517.292 526.369 516.888 527.391C519.181 527.046 520.723 524.946 522.57 523.544C523.034 523.15 523.593 522.884 524.192 522.773C524.64 522.735 525.091 522.782 525.521 522.912C527.651 523.449 529.644 524.429 531.369 525.79C532.067 526.341 533.157 527.119 533.462 527.969C533.788 528.986 533.443 530.847 533.443 531.93Z" fill="#3F3D56"/>
<path d="M579.158 312.677C586.741 312.677 592.888 306.531 592.888 298.948C592.888 291.366 586.741 285.219 579.158 285.219C571.575 285.219 565.428 291.366 565.428 298.948C565.428 306.531 571.575 312.677 579.158 312.677Z" fill="#FBBEBE"/>
<path d="M606.206 380.007C606.151 382.632 605.778 385.24 605.097 387.775C604.447 390.924 603.608 394.03 602.585 397.078C601.794 399.291 600.804 401.511 600.81 403.857C600.81 404.833 600.97 405.917 600.372 406.687C599.839 407.229 599.168 407.612 598.431 407.797C598.064 407.895 597.724 408.077 597.44 408.33C597.156 408.583 596.936 408.899 596.796 409.252C596.172 408.32 595.705 407.292 595.414 406.209C594.222 402.559 593.115 398.888 592.091 395.198C591.997 394.985 591.957 394.753 591.973 394.522C591.989 394.29 592.062 394.066 592.184 393.869C592.353 393.722 592.549 393.611 592.762 393.543C593.443 393.265 594.068 392.864 594.603 392.36C594.855 392.137 595.062 391.869 595.215 391.57C595.408 391.093 595.496 390.581 595.474 390.068C595.474 388.307 595.474 386.552 595.427 384.791C595.399 383.166 595.461 381.539 595.613 379.92C595.613 379.601 595.673 379.09 595.726 378.545C595.826 377.502 596.025 376.292 596.59 375.887C597.434 375.322 599.96 376.08 600.917 376.212C602.565 376.438 604.239 376.704 605.848 377.017C606.081 377.996 606.202 379 606.206 380.007Z" fill="#3F3D56"/>
<path d="M550.768 314.319C550.236 315.382 548.96 315.894 547.976 316.565L544.607 318.878C544.382 319.08 544.118 319.236 543.832 319.334C543.545 319.432 543.241 319.471 542.939 319.449C542.665 319.348 542.414 319.193 542.2 318.993C541.987 318.793 541.816 318.553 541.696 318.286C541.698 318.268 541.698 318.251 541.696 318.233L540.998 317.063L537.676 311.495C537.306 310.996 537.091 310.4 537.058 309.78C537.058 309.494 537.157 309.229 537.184 308.943C537.193 308.14 536.961 307.353 536.519 306.684C536.253 306.185 535.722 305.773 535.735 305.215C535.71 304.481 535.836 303.751 536.107 303.069C536.456 302.438 536.956 301.903 537.563 301.514C537.875 301.288 538.194 301.075 538.526 300.849C538.703 300.729 538.898 300.639 539.104 300.583C539.656 300.47 540.201 300.929 540.759 300.949C543.158 302.557 544.082 305.6 545.969 307.793C547.033 309.043 547.139 310 548.342 311.116C548.535 311.289 548.721 311.475 548.9 311.667C549.138 311.927 549.339 312.217 549.498 312.531C549.718 313.103 551.04 313.774 550.768 314.319Z" fill="#3F3D56"/>
<path d="M574.333 312.684C575.324 314.777 576.094 317.077 575.809 319.376C575.75 319.999 575.553 320.6 575.231 321.137C574.274 322.605 572.267 322.871 570.519 322.958C570.151 322.927 569.78 322.97 569.428 323.084C569.077 323.198 568.752 323.381 568.472 323.622C568.238 323.962 568.124 324.369 568.147 324.78C568.17 325.191 568.328 325.583 568.598 325.895C569.16 326.494 569.857 326.95 570.632 327.224C573.396 328.44 576.38 329.443 579.384 329.164C580.78 329.031 582.135 328.626 583.524 328.42C585.039 328.256 586.56 328.172 588.083 328.167C589.891 328.101 591.692 327.922 593.493 327.742L598.265 327.27C598.525 327.274 598.778 327.182 598.976 327.011C599.328 326.599 598.876 325.994 598.437 325.682C595.905 323.808 592.682 322.519 591.24 319.701C590.575 318.372 590.369 316.791 589.878 315.356C589.386 313.92 588.602 312.624 588.296 311.162C588.133 309.88 588.06 308.588 588.077 307.295C588.093 305.991 587.619 304.729 586.748 303.76C585.797 302.876 584.422 302.65 583.132 302.597C579.956 302.457 576.573 303.215 574.32 305.454C573.715 306.059 573.197 306.783 572.572 307.328C571.948 307.873 571.097 308.032 571.509 308.75C571.921 309.468 572.732 309.913 573.17 310.544C573.614 311.226 574.003 311.941 574.333 312.684V312.684Z" fill="#FBBEBE"/>
<path d="M601.401 332.015C600.563 337.132 599.2 342.149 597.334 346.987C596.396 349.171 595.597 351.413 594.942 353.698C594.43 355.758 594.53 357.965 594.058 360.031C593.473 362.603 592.888 365.181 592.416 367.773C591.625 371.731 591.308 375.768 591.473 379.801C591.474 380.436 591.596 381.065 591.832 381.655C592.051 382.133 592.403 382.545 592.609 383.037C592.763 383.469 592.826 383.928 592.794 384.386C592.762 384.843 592.636 385.289 592.423 385.695C592.082 386.456 591.62 387.156 591.054 387.768C584.86 389.616 578.234 389.011 571.781 389.403C565.834 389.762 559.819 390.985 553.958 389.968C553.293 387.31 554.403 384.526 555.353 381.934C558.111 374.405 561.162 366.564 560.67 358.676C560.618 357.756 560.514 356.839 560.358 355.931C559.394 350.343 560.444 344.555 562.125 339.139C563.169 335.763 563.122 332.168 562.883 328.653C562.765 327.511 562.749 326.361 562.836 325.217C562.933 324.049 563.367 322.933 564.086 322.007C564.086 321.961 564.146 321.914 564.179 321.868C564.212 321.821 564.471 321.828 564.677 321.868C564.73 321.89 564.786 321.902 564.843 321.902C564.9 321.902 564.957 321.89 565.01 321.868L565.083 321.821C565.111 321.801 565.144 321.791 565.179 321.791C565.214 321.791 565.247 321.801 565.275 321.821C565.428 321.914 565.515 322.233 565.847 322.293C566.338 322.367 566.833 322.414 567.329 322.433C567.926 322.45 568.519 322.535 569.097 322.685H569.176C570.041 322.831 570.928 322.756 571.755 322.466C572.305 322.328 572.837 322.123 573.337 321.855C573.483 321.695 574.4 321.549 574.586 321.436C575.191 321.07 575.058 319.356 575.184 318.652C575.254 317.945 575.422 317.252 575.683 316.592C575.985 316.104 576.403 315.699 576.899 315.41C577.395 315.122 577.954 314.959 578.527 314.937C579.671 314.91 580.815 315.012 581.936 315.243C584.415 315.595 586.954 315.535 589.386 316.106C590.609 316.392 591.945 316.824 593.068 316.266C593.373 316.339 593.42 316.605 593.42 316.93C593.391 317.24 593.329 317.545 593.234 317.841C592.809 319.675 594.251 321.363 595.58 322.692C596.141 323.318 596.804 323.846 597.54 324.253C598.205 324.559 598.869 324.685 599.534 325.018C600.072 325.305 600.529 325.723 600.863 326.234C601.246 326.819 601.504 327.478 601.621 328.168C601.763 329.453 601.689 330.754 601.401 332.015Z" fill="#3F3D56"/>
<path opacity="0.1" d="M601.401 332.015C600.563 337.132 599.2 342.149 597.334 346.987C596.396 349.171 595.597 351.413 594.942 353.698C594.43 355.758 594.529 357.965 594.058 360.031C593.473 362.603 592.888 365.181 592.416 367.773C592.277 367.853 592.13 367.926 591.984 367.992C591.157 368.387 590.281 368.669 589.379 368.83C587.759 369.026 586.118 368.972 584.514 368.67L575.031 367.401C571.243 366.889 567.209 366.271 564.398 363.706C562.836 362.297 561.813 360.437 560.69 358.642C560.638 357.722 560.534 356.806 560.377 355.898C559.414 350.309 560.464 344.521 562.145 339.106C563.188 335.73 563.142 332.135 562.903 328.619C562.784 327.478 562.769 326.328 562.856 325.184C562.952 324.015 563.386 322.9 564.106 321.974C564.3 321.917 564.497 321.873 564.697 321.841V321.841C564.831 321.814 564.966 321.796 565.102 321.788H565.295C565.519 321.789 565.742 321.816 565.96 321.868C566.413 322.012 566.856 322.183 567.289 322.38H567.369C567.938 322.567 568.537 322.653 569.136 322.632C570.014 322.632 570.917 322.492 571.795 322.433C572.878 322.263 573.987 322.462 574.945 322.998C575.563 323.494 576.148 324.029 576.699 324.599C577.364 325.121 578.112 325.528 578.912 325.802C584.633 327.985 590.979 327.852 596.603 325.43C597.143 325.123 597.756 324.966 598.377 324.978C598.836 325.068 599.271 325.253 599.653 325.523C600.052 325.755 600.444 325.981 600.85 326.187C601.233 326.773 601.491 327.431 601.607 328.121C601.759 329.421 601.69 330.738 601.401 332.015V332.015Z" fill="black"/>
<path d="M607.19 327.616C604.543 326.808 602.001 325.693 599.613 324.293C599.23 324.026 598.796 323.84 598.338 323.748C597.715 323.741 597.101 323.897 596.556 324.2C590.935 326.622 584.591 326.755 578.872 324.572C578.074 324.296 577.326 323.89 576.659 323.37C576.107 322.801 575.521 322.267 574.905 321.768C572.718 320.353 569.695 322.014 567.249 321.104C566.815 320.91 566.372 320.739 565.92 320.592C563.986 320.107 562.019 322.034 560.118 321.449C559.411 323.371 558.888 325.356 558.556 327.377C558.286 329.697 558.142 332.031 558.125 334.367C558.125 335.77 558.058 337.172 558.125 338.574C558.359 338.612 558.582 338.699 558.781 338.828C558.981 338.957 559.151 339.126 559.281 339.325C559.368 339.556 559.404 339.804 559.385 340.051C559.367 340.298 559.295 340.537 559.175 340.754C557.786 344.322 556.377 347.93 554.27 351.127C555.755 352.011 557.133 353.064 558.377 354.263C560.703 356.722 561.846 360.171 564.358 362.443C567.189 365.002 571.223 365.627 574.991 366.132L584.475 367.401C586.081 367.701 587.723 367.757 589.346 367.567C590.246 367.403 591.12 367.119 591.944 366.723C592.483 366.498 592.975 366.173 593.393 365.766C593.744 365.368 594.033 364.92 594.25 364.437C595.001 362.935 595.686 361.4 596.317 359.845C596.537 359.294 596.869 358.649 597.467 358.603C600.989 355.426 604.312 352.17 607.834 348.994C609.25 347.821 610.519 346.482 611.616 345.006C613.363 342.421 611.775 338.76 611.616 335.637C611.596 334.838 611.496 334.043 611.317 333.264C610.745 330.998 609.403 328.287 607.19 327.616Z" fill="#18CDCA"/>
<path opacity="0.1" d="M550.768 314.319C550.236 315.382 548.96 315.894 547.977 316.565L544.607 318.878C544.382 319.08 544.118 319.236 543.832 319.334C543.545 319.432 543.241 319.471 542.939 319.449C542.665 319.348 542.414 319.193 542.2 318.993C541.987 318.793 541.816 318.553 541.696 318.286C541.696 318.133 541.696 317.967 541.696 317.808C541.671 317.27 541.743 316.732 541.909 316.219C542.239 315.468 542.751 314.81 543.398 314.306C544.649 313.121 546.137 312.215 547.764 311.647C548.018 311.549 548.293 311.521 548.562 311.568C548.665 311.595 548.763 311.637 548.854 311.694C549.092 311.953 549.293 312.244 549.452 312.558C549.718 313.103 551.04 313.774 550.768 314.319Z" fill="black"/>
<path d="M558.703 321.323C557.573 321.27 556.65 320.452 555.826 319.675L553.307 317.336C553.138 317.193 552.991 317.028 552.868 316.844C552.732 316.586 552.629 316.311 552.563 316.027C552.029 314.684 551.192 313.484 550.117 312.518C549.93 312.28 549.678 312.1 549.393 312C549.122 311.95 548.844 311.978 548.588 312.08C546.961 312.646 545.473 313.552 544.222 314.738C543.575 315.243 543.064 315.9 542.734 316.651C542.567 317.163 542.494 317.702 542.521 318.24C542.537 319.995 542.931 321.727 543.677 323.317C543.79 323.562 543.917 323.808 544.049 324.048C544.936 325.513 545.984 326.875 547.173 328.108L548.755 329.875C550.31 331.616 551.865 333.357 553.553 334.959C554.158 335.604 554.891 336.116 555.706 336.461C556.115 336.628 556.562 336.679 556.998 336.608C557.434 336.538 557.842 336.349 558.178 336.062C558.496 335.694 558.736 335.264 558.883 334.799C559.906 332.141 560.876 329.377 560.936 326.513C560.95 325.366 560.902 324.219 560.79 323.077C560.69 321.868 559.833 321.396 558.703 321.323Z" fill="#18CDCA"/>
<path d="M598.976 414.356C598.937 421.041 598.462 427.716 597.554 434.338C597.421 435.408 597.275 436.478 597.201 437.548C596.982 440.651 597.341 443.768 597.049 446.851C596.896 448.519 596.55 450.174 596.258 451.802C594.959 459.068 594.579 466.469 595.128 473.831C596.045 486.078 593.234 498.332 594.51 510.546C594.665 512.921 594.533 515.306 594.118 517.649C593.88 519.104 593.536 520.538 593.088 521.942C592.117 525.269 591.143 528.592 590.164 531.91C590.048 532.415 589.821 532.887 589.499 533.292C589.16 533.585 588.762 533.803 588.333 533.93C587.903 534.057 587.451 534.091 587.007 534.03C583.172 533.91 579.564 532.256 576.081 530.641C575.681 530.483 575.31 530.258 574.985 529.976C574.26 529.225 574.32 528.043 574.001 527.052C573.682 526.062 572.818 525.132 572.327 524.115C571.922 523.153 571.678 522.132 571.602 521.092C571.159 517.689 570.858 514.274 570.698 510.845C570.446 506.02 573.636 501.581 574.686 496.89C576.68 487.666 574.992 477.778 578.534 469.026C579.65 466.262 578.029 462.913 577.869 459.936C577.812 458.015 577.562 456.105 577.125 454.234C576.46 451.735 575.058 449.383 574.958 446.791C574.885 444.917 575.49 443.09 575.802 441.243C576.217 438.524 576.179 435.755 575.689 433.049C575.337 430.816 574.799 428.583 574.261 426.404L574.141 426.65C572.522 429.814 571.129 433.09 569.974 436.451C569.442 438.079 568.977 439.741 568.313 441.322C567.768 442.651 567.096 443.867 566.439 445.117C564.079 449.522 562.025 454.085 560.291 458.773C559.467 461.072 558.743 463.424 558.025 465.73L553.101 481.679C551.772 485.872 550.316 489.926 549.014 494.112C547.173 500.093 545.332 506.02 543.192 511.868C541.198 517.417 538.826 523.165 539.537 529.026C537.704 529.887 535.692 530.295 533.669 530.215C530.243 529.913 526.883 529.097 523.7 527.797C522.431 527.325 521.115 526.793 520.258 525.75C518.782 523.949 519.148 521.311 519.593 519.018C519.761 517.985 520.028 516.97 520.391 515.988C520.896 514.765 521.72 513.682 522.238 512.473C523.281 510.154 523.348 507.529 523.76 505.01C524.172 502.492 525.089 499.834 527.242 498.465C527.608 494.039 529.429 489.673 530.432 485.347C531.19 482.071 531.442 478.702 532.04 475.379C532.639 472.057 533.602 468.734 535.609 466.043C535.451 463.267 536.077 460.504 537.417 458.068C537.74 457.533 538.006 456.965 538.208 456.374C538.332 455.797 538.403 455.209 538.42 454.619C538.64 452.31 539.627 450.141 541.225 448.459C540.56 446.034 541.484 443.502 542.315 441.15C543.361 438.148 543.834 434.976 543.71 431.8C543.607 430.913 543.65 430.015 543.837 429.142C544.023 428.477 544.388 427.912 544.601 427.274C544.79 426.493 544.891 425.693 544.9 424.889C545.159 421.294 546.614 417.905 548.223 414.695C549.18 412.821 548.369 410.276 548.568 408.189C548.914 404.72 549.293 401.132 551.014 398.108C551.333 397.537 551.678 396.992 551.964 396.401C552.311 395.556 552.498 394.655 552.516 393.743C552.576 392.221 552.788 390.958 552.243 389.543C555.799 386.586 560.65 385.755 565.276 385.556C569.901 385.356 574.579 385.775 579.105 384.791C580.434 384.492 581.763 384.08 583.166 383.881C586.349 383.416 589.579 384.14 592.722 384.858C592.503 386.851 593.234 388.765 594.051 390.619C597.243 398.129 598.916 406.196 598.976 414.356V414.356Z" fill="#33313F"/>
<path opacity="0.1" d="M583.325 415.878L575.689 433.049C575.337 430.816 574.799 428.583 574.26 426.404L574.141 426.65V426.291L578.301 417.14L583.325 415.878Z" fill="black"/>
<path opacity="0.1" d="M606.206 380.007C605.766 380.336 605.24 380.532 604.691 380.572C603.849 380.602 603.009 380.487 602.206 380.233L596.225 378.738C596.037 378.691 595.855 378.627 595.68 378.545C595.779 377.502 595.979 376.292 596.544 375.887C597.388 375.322 599.913 376.08 600.87 376.212C602.518 376.438 604.193 376.704 605.801 377.017C606.05 377.994 606.186 378.998 606.206 380.007V380.007Z" fill="black"/>
<path d="M611.264 340.468C611.39 341.019 611.569 341.564 611.676 342.122C611.854 343.492 611.807 344.882 611.536 346.236L610.991 350.037L610.446 353.858L608.34 368.564L607.821 372.205L607.09 377.289C607.056 377.712 606.948 378.126 606.771 378.512C606.554 378.873 606.249 379.174 605.886 379.389C605.523 379.603 605.113 379.724 604.691 379.741C603.85 379.768 603.009 379.653 602.206 379.402L596.225 377.9C595.962 377.854 595.713 377.752 595.494 377.601C595.311 377.423 595.179 377.199 595.111 376.952C595.043 376.706 595.042 376.446 595.108 376.199C595.195 375.694 595.414 375.222 595.487 374.717C595.633 373.734 595.221 372.724 595.367 371.747C595.511 371.125 595.734 370.524 596.032 369.959C598.026 365.554 596.869 360.41 597.547 355.626C598.157 351.86 599.748 348.321 602.159 345.365C603.647 343.5 605.357 341.821 607.25 340.368C607.994 339.79 609.177 338.601 610.114 338.375C611.317 338.122 611.064 339.631 611.264 340.468Z" fill="#18CDCA"/>
<path d="M566 283.226C565.561 284.621 566.246 286.156 565.933 287.578C565.594 289.147 564.119 290.237 563.7 291.811C563.036 294.21 565.069 296.397 566.558 298.39C572.074 305.793 571.349 316.04 569.462 325.071C567.944 332.316 565.843 339.428 563.182 346.336C562.351 348.482 561.434 350.662 559.799 352.27C562.856 351.393 566.106 350.509 569.17 351.359C573.051 352.436 576.4 356.204 580.334 355.346C582.7 354.821 584.362 352.722 586.488 351.559C590.476 349.412 595.281 350.761 599.727 351.452C600.685 351.678 601.687 351.628 602.617 351.306C603.329 350.924 603.932 350.368 604.372 349.691C606.356 347.146 607.544 344.071 607.788 340.853C607.893 339.251 607.656 337.644 607.094 336.14C606.531 334.636 605.656 333.268 604.525 332.128C603.581 331.238 602.451 330.52 601.727 329.47C601.022 328.244 600.645 326.857 600.63 325.443C600.105 318.133 601.886 310.671 600.052 303.6C599.388 301.082 598.304 298.669 598.012 296.091C597.646 292.881 598.517 289.446 597.241 286.509C596.238 284.176 594.025 282.521 591.639 281.671C589.253 280.82 586.701 280.581 584.169 280.342C580.527 280.036 567.522 278.475 566 283.226Z" fill="#33313F"/>
<g opacity="0.1">
<path opacity="0.1" d="M569.462 325.071C567.951 332.286 565.862 339.369 563.215 346.249C563.674 345.339 564.059 344.382 564.425 343.432C567.089 336.525 569.189 329.413 570.705 322.167C572.599 313.129 573.323 302.896 567.807 295.486C566.478 293.719 564.77 291.805 564.83 289.732C564.339 290.359 563.957 291.064 563.7 291.818C563.036 294.217 565.069 296.403 566.558 298.397C572.074 305.793 571.35 316.04 569.462 325.071Z" fill="black"/>
<path opacity="0.1" d="M566.013 286.907C566.546 286.245 566.944 285.484 567.183 284.668C567.285 283.681 567.259 282.684 567.103 281.704C566.591 282.089 566.207 282.62 566 283.226C565.608 284.402 566.06 285.678 566.013 286.907Z" fill="black"/>
<path opacity="0.1" d="M605.621 346.767C605.181 347.443 604.578 347.996 603.867 348.376C602.938 348.704 601.933 348.755 600.976 348.522C596.53 347.857 591.672 346.488 587.738 348.635C585.605 349.791 583.95 351.891 581.577 352.423C577.65 353.3 574.3 349.532 570.419 348.435C567.668 347.671 564.77 348.303 561.999 349.1C561.448 350.274 560.705 351.348 559.799 352.276C562.856 351.399 566.106 350.515 569.17 351.366C573.051 352.443 576.4 356.21 580.334 355.353C582.7 354.828 584.362 352.728 586.488 351.565C590.476 349.419 595.281 350.768 599.727 351.459C600.685 351.685 601.687 351.634 602.617 351.313C603.329 350.931 603.932 350.375 604.372 349.698C605.576 348.11 606.506 346.331 607.123 344.435C606.679 345.248 606.177 346.027 605.621 346.767Z" fill="black"/>
</g>
</g>
<defs>
<linearGradient id="paint0_linear" x1="510.788" y1="406.967" x2="612.467" y2="406.967" gradientUnits="userSpaceOnUse">
<stop stop-color="#808080" stop-opacity="0.25"/>
<stop offset="0.54" stop-color="#808080" stop-opacity="0.12"/>
<stop offset="1" stop-color="#808080" stop-opacity="0.1"/>
</linearGradient>
<clipPath id="clip0">
<rect width="775" height="535" fill="white"/>
</clipPath>
</defs>
</svg>
