<?xml version="1.0" encoding="utf-8"?>
<!-- Generator: Adobe Illustrator 24.0.1, SVG Export Plug-In . SVG Version: 6.00 Build 0)  -->
<svg version="1.1" id="Layer_1" xmlns="http://www.w3.org/2000/svg" xmlns:xlink="http://www.w3.org/1999/xlink" x="0px" y="0px"
	 viewBox="0 0 22 22" style="enable-background:new 0 0 22 22;" xml:space="preserve">
<style type="text/css">
	.st0{fill:#161616;}
</style>
<g>
	<g>
		<path class="st0" d="M12.2,10.5h-1.6V2.7L8.3,3.6V2.2L12,0.8h0.2V10.5z"/>
	</g>
	<g>
		<path class="st0" d="M7.8,21.4H1.3v-1.1l3.2-3.5c0.5-0.5,0.8-0.9,1-1.3c0.2-0.3,0.3-0.7,0.3-1c0-0.5-0.1-0.8-0.4-1.1
			c-0.3-0.3-0.6-0.4-1-0.4c-0.5,0-0.9,0.2-1.2,0.5c-0.3,0.3-0.4,0.8-0.4,1.3H1.1c0-0.6,0.1-1.1,0.4-1.6c0.3-0.5,0.6-0.8,1.1-1.1
			c0.5-0.3,1.1-0.4,1.7-0.4c0.9,0,1.7,0.2,2.2,0.7s0.8,1.1,0.8,2c0,0.5-0.1,1-0.4,1.5s-0.7,1.1-1.3,1.8l-2.4,2.5h4.5V21.4z"/>
	</g>
	<g>
		<path class="st0" d="M16.8,15.7h1c0.5,0,0.9-0.1,1.2-0.4c0.3-0.3,0.4-0.6,0.4-1.1c0-0.5-0.1-0.8-0.4-1.1s-0.6-0.4-1.1-0.4
			c-0.4,0-0.8,0.1-1.1,0.4c-0.3,0.2-0.4,0.6-0.4,1h-1.6c0-0.5,0.1-0.9,0.4-1.4c0.3-0.4,0.6-0.7,1.1-1c0.5-0.2,1-0.3,1.6-0.3
			c1,0,1.7,0.2,2.3,0.7s0.8,1.2,0.8,2c0,0.4-0.1,0.8-0.4,1.2s-0.6,0.7-1.1,0.9c0.5,0.2,0.9,0.5,1.2,0.9c0.3,0.4,0.4,0.9,0.4,1.4
			c0,0.9-0.3,1.6-0.9,2.1c-0.6,0.5-1.4,0.8-2.3,0.8c-0.9,0-1.7-0.2-2.3-0.7c-0.6-0.5-0.9-1.2-0.9-2h1.6c0,0.4,0.1,0.8,0.4,1
			s0.7,0.4,1.1,0.4c0.5,0,0.9-0.1,1.2-0.4c0.3-0.3,0.4-0.6,0.4-1.2c0-0.5-0.2-0.9-0.5-1.2S18.4,17,17.8,17h-0.9V15.7z"/>
	</g>
</g>
<g>
</g>
<g>
</g>
<g>
</g>
<g>
</g>
<g>
</g>
<g>
</g>
</svg>
