<svg width="28" height="26" viewBox="0 0 28 26" fill="none" xmlns="http://www.w3.org/2000/svg">
<g clip-path="url(#clip0)" filter="url(#filter0_d)">
<path d="M18.0613 5.0897H11.8205C11.6586 5.0897 11.5273 5.22095 11.5273 5.38286C11.5273 5.54478 11.6586 5.67603 11.8205 5.67603H18.0613C18.2232 5.67603 18.3545 5.54478 18.3545 5.38286C18.3545 5.22091 18.2232 5.0897 18.0613 5.0897Z" fill="#B0B8C3"/>
<path d="M10.4575 5.0897H9.46895C9.30703 5.0897 9.17578 5.22095 9.17578 5.38286C9.17578 5.54478 9.30699 5.67603 9.46895 5.67603H10.4575C10.6194 5.67603 10.7506 5.54478 10.7506 5.38286C10.7506 5.22095 10.6194 5.0897 10.4575 5.0897Z" fill="#B0B8C3"/>
<path d="M12.5353 14.0759H9.46895C9.30703 14.0759 9.17578 14.2071 9.17578 14.369C9.17578 14.531 9.30703 14.6622 9.46895 14.6622H12.5353C12.6972 14.6622 12.8285 14.5309 12.8285 14.369C12.8285 14.2071 12.6972 14.0759 12.5353 14.0759Z" fill="#B0B8C3"/>
<path d="M13.7657 11.0805H9.46895C9.30703 11.0805 9.17578 11.2117 9.17578 11.3737C9.17578 11.5356 9.30703 11.6668 9.46895 11.6668H13.7657C13.9275 11.6668 14.0588 11.5356 14.0588 11.3737C14.0588 11.2117 13.9276 11.0805 13.7657 11.0805Z" fill="#B0B8C3"/>
<path d="M15.8572 8.08505H9.46895C9.30703 8.08505 9.17578 8.2163 9.17578 8.37822C9.17578 8.54013 9.30703 8.67138 9.46895 8.67138H15.8572C16.0191 8.67142 16.1504 8.54017 16.1504 8.37822C16.1504 8.21626 16.0191 8.08505 15.8572 8.08505Z" fill="#B0B8C3"/>
<path d="M21.4049 2.09024H9.28885C8.21565 2.09024 7.34256 2.96337 7.34256 4.03657V15.5719H4.29314C4.2149 15.5719 4.13986 15.6032 4.08482 15.6588C4.02974 15.7144 3.9992 15.7897 4.00002 15.868C4.01158 17.032 4.8481 17.9098 5.94584 17.9098H18.0619H18.0988C19.172 17.9098 20.0451 17.0367 20.0451 15.9635V12.411C20.0451 12.2491 19.9138 12.1179 19.7519 12.1179C19.59 12.1179 19.4587 12.2491 19.4587 12.4111V15.9635C19.4587 16.7135 18.8486 17.3235 18.0988 17.3235H18.0619C17.2951 17.3235 16.7107 16.6952 16.7024 15.8622C16.7008 15.7014 16.57 15.5719 16.4092 15.5719H7.92905V4.03654C7.92905 3.28661 8.53913 2.67657 9.28897 2.67657H20.0139C20.0053 2.68536 19.9972 2.69458 19.9888 2.70356C19.9785 2.71446 19.9682 2.72524 19.9582 2.73634C19.9476 2.74809 19.9374 2.76016 19.9271 2.7722C19.9172 2.78372 19.9073 2.79513 19.8977 2.80688C19.8877 2.81907 19.8782 2.83157 19.8685 2.84399C19.8591 2.85602 19.8497 2.86794 19.8406 2.8802C19.8313 2.89278 19.8224 2.90563 19.8133 2.91845C19.8045 2.93102 19.7955 2.94352 19.7869 2.9563C19.7782 2.96923 19.77 2.98243 19.7617 2.99559C19.7534 3.00868 19.7449 3.02165 19.7369 3.03493C19.7289 3.04829 19.7213 3.06192 19.7136 3.07548C19.7059 3.08895 19.698 3.10235 19.6906 3.11606C19.6832 3.12978 19.6763 3.1438 19.6693 3.15774C19.6622 3.17165 19.6549 3.18544 19.6482 3.1995C19.6415 3.21364 19.6352 3.22806 19.6288 3.24235C19.6224 3.25661 19.6158 3.27075 19.6097 3.28517C19.6036 3.29974 19.5981 3.31458 19.5923 3.32931C19.5866 3.34384 19.5807 3.35825 19.5753 3.37294C19.5698 3.38802 19.5649 3.40337 19.5598 3.41864C19.5549 3.43333 19.5497 3.44786 19.5451 3.46271C19.5402 3.47833 19.5361 3.49423 19.5316 3.51005C19.5275 3.52482 19.523 3.53946 19.5192 3.55439C19.515 3.57079 19.5115 3.58743 19.5077 3.604C19.5044 3.61857 19.5007 3.63306 19.4977 3.64775C19.4942 3.66497 19.4915 3.68239 19.4884 3.69978C19.4859 3.71415 19.483 3.72837 19.4808 3.74282C19.478 3.76138 19.476 3.78017 19.4737 3.79888C19.472 3.81239 19.47 3.82575 19.4686 3.83935C19.4665 3.86029 19.4652 3.88146 19.4638 3.90259C19.463 3.91419 19.4617 3.92571 19.4611 3.93736C19.4595 3.97021 19.4586 4.00329 19.4586 4.03657V4.13497V6.63861C19.4586 6.80057 19.5899 6.93178 19.7518 6.93178C19.9137 6.93178 20.045 6.80053 20.045 6.63861V4.42814H23.0607C23.139 4.42814 23.214 4.39685 23.269 4.34126C23.3241 4.28564 23.3547 4.21033 23.3538 4.13208C23.3423 2.96802 22.5058 2.09024 21.4049 2.09024ZM16.1365 16.1583C16.1405 16.1886 16.1452 16.2187 16.1504 16.2485C16.1521 16.2585 16.1542 16.2683 16.1561 16.2783C16.1598 16.298 16.1635 16.3177 16.1677 16.3372C16.1702 16.3489 16.1731 16.3604 16.1757 16.3719C16.1798 16.3895 16.1839 16.407 16.1884 16.4243C16.1915 16.4365 16.1949 16.4485 16.1982 16.4605C16.2028 16.477 16.2074 16.4935 16.2123 16.5097C16.216 16.522 16.2199 16.5341 16.2238 16.5462C16.2289 16.5621 16.2341 16.5779 16.2396 16.5935C16.2438 16.6056 16.248 16.6176 16.2524 16.6296C16.2581 16.6451 16.264 16.6605 16.2701 16.6758C16.2747 16.6875 16.2793 16.6991 16.284 16.7106C16.2905 16.7261 16.2972 16.7415 16.3039 16.7568C16.3088 16.7677 16.3136 16.7788 16.3186 16.7896C16.3261 16.8056 16.3339 16.8214 16.3416 16.8372C16.3465 16.8469 16.3511 16.8568 16.3561 16.8665C16.3657 16.8849 16.3756 16.9031 16.3857 16.9212C16.3893 16.9278 16.3928 16.9345 16.3965 16.9411C16.4104 16.9656 16.4248 16.9897 16.4397 17.0135C16.4432 17.019 16.4469 17.0244 16.4504 17.0299C16.462 17.048 16.4738 17.0661 16.4859 17.0838C16.4916 17.0919 16.4974 17.0999 16.5031 17.1079C16.5136 17.1227 16.5241 17.1374 16.5349 17.1518C16.5414 17.1605 16.5481 17.169 16.5548 17.1775C16.5652 17.191 16.5758 17.2044 16.5866 17.2176C16.5937 17.2262 16.6009 17.2347 16.6081 17.2432C16.6189 17.256 16.6298 17.2685 16.6409 17.281C16.6484 17.2893 16.656 17.2976 16.6636 17.3058C16.669 17.3116 16.6743 17.3177 16.6798 17.3235H5.9458C5.27299 17.3235 4.74053 16.8397 4.61455 16.1583H16.1365ZM20.0594 3.84173C20.0595 3.83974 20.0597 3.83767 20.06 3.83564C20.0613 3.82669 20.063 3.81782 20.0645 3.80896C20.0666 3.79646 20.0688 3.78396 20.0712 3.77154C20.0731 3.76208 20.0752 3.75271 20.0773 3.74333C20.0799 3.73169 20.0825 3.72009 20.0853 3.70857C20.0877 3.69888 20.0903 3.68923 20.0929 3.67962C20.0959 3.66864 20.099 3.65767 20.1023 3.64681C20.1052 3.63696 20.1083 3.6272 20.1115 3.61747C20.1148 3.60708 20.1183 3.59677 20.122 3.58646C20.1255 3.5765 20.129 3.56653 20.1328 3.55669C20.1365 3.54696 20.1403 3.53735 20.1442 3.52771C20.1483 3.51755 20.1524 3.50743 20.1568 3.49739C20.1607 3.48845 20.1648 3.47962 20.1688 3.47079C20.1736 3.46036 20.1784 3.44985 20.1834 3.43958C20.1872 3.43192 20.1912 3.42442 20.1951 3.41685C20.2009 3.4056 20.2066 3.39435 20.2127 3.38329C20.215 3.37899 20.2176 3.37485 20.22 3.3706C20.2471 3.32267 20.2768 3.27642 20.3093 3.23231C20.3096 3.23188 20.3099 3.23149 20.3102 3.23106C20.3207 3.21692 20.3315 3.20306 20.3425 3.18931C20.3442 3.18712 20.3459 3.18489 20.3477 3.1827C20.3584 3.16942 20.3695 3.15642 20.3807 3.14356C20.3828 3.14118 20.3849 3.13876 20.387 3.13638C20.3984 3.12349 20.41 3.11087 20.422 3.09841C20.4239 3.09638 20.4258 3.09431 20.4278 3.09228C20.4402 3.07954 20.4527 3.067 20.4656 3.05474C20.467 3.05337 20.4684 3.052 20.4699 3.0506C20.4834 3.03778 20.4972 3.0252 20.5112 3.01294C20.5117 3.01251 20.5122 3.01212 20.5127 3.01169C20.6922 2.85532 20.9131 2.74505 21.157 2.69966C21.1571 2.69962 21.1572 2.69962 21.1574 2.69958C21.1773 2.69587 21.1975 2.69259 21.2177 2.68977C21.219 2.68962 21.2202 2.68946 21.2214 2.6893C21.2407 2.68665 21.2602 2.68438 21.2797 2.68255C21.2827 2.68227 21.2857 2.68212 21.2887 2.68188C21.3067 2.68032 21.3246 2.67899 21.3427 2.67813C21.3532 2.67766 21.3638 2.67759 21.3743 2.67731C21.3856 2.67704 21.3969 2.67653 21.4083 2.67653C22.0811 2.67653 22.6136 3.16032 22.7396 3.84173H20.0594Z" fill="#B0B8C3"/>
<path d="M23.9995 7.49342C23.9994 7.49002 23.9993 7.48662 23.9992 7.48318C23.9981 7.4556 23.9931 7.42904 23.9848 7.40388C23.9844 7.40263 23.9842 7.40135 23.9838 7.40013C23.9834 7.39912 23.9829 7.39818 23.9825 7.39717C23.9779 7.38431 23.9726 7.37181 23.9663 7.35986C23.9656 7.35838 23.9647 7.35701 23.9639 7.35552C23.9581 7.34498 23.9517 7.33486 23.9447 7.32513C23.9432 7.32306 23.9418 7.32092 23.9403 7.31888C23.9326 7.30873 23.9242 7.29912 23.9153 7.29006C23.9133 7.28806 23.9113 7.28623 23.9093 7.28431C23.9008 7.27619 23.8919 7.26857 23.8825 7.2615C23.8813 7.26056 23.8801 7.25951 23.8788 7.25857C23.8683 7.25092 23.8571 7.24408 23.8456 7.23783C23.8434 7.23662 23.8411 7.23552 23.8389 7.23439C23.8271 7.22845 23.8151 7.22302 23.8025 7.21869C23.8024 7.21865 23.8023 7.21861 23.8022 7.21861C23.7897 7.21431 23.7767 7.21107 23.7634 7.20845C23.7605 7.20787 23.7576 7.20736 23.7546 7.20689C23.7414 7.2047 23.7279 7.20306 23.7141 7.20271C21.2611 7.13924 18.0624 7.72974 16.4453 9.57584C15.7375 10.3838 15.411 11.4088 15.0952 12.4C15.0693 12.4811 15.0435 12.5622 15.0174 12.6432C15.0164 12.6466 15.0153 12.65 15.0143 12.6535L14.5189 14.4132C14.475 14.5691 14.5658 14.731 14.7216 14.7749C14.7482 14.7824 14.7749 14.7859 14.8012 14.7859C14.9292 14.7859 15.0469 14.7014 15.0833 14.5721L15.5428 12.94C16.1046 12.6767 16.5569 12.5536 17.1679 12.3874C17.4849 12.3012 17.8441 12.2035 18.2789 12.0698C19.2187 11.7808 21.0217 10.5714 21.8514 9.67346C22.5771 8.88807 23.1878 8.30439 23.8933 7.72185C23.8941 7.72119 23.8947 7.72037 23.8956 7.71967C23.9058 7.71096 23.9156 7.7017 23.9246 7.69166C23.9251 7.69103 23.9257 7.69049 23.9263 7.6899C23.9351 7.67986 23.9432 7.66908 23.9506 7.65783C23.952 7.65576 23.9533 7.65369 23.9547 7.65158C23.9687 7.6292 23.9798 7.60486 23.9875 7.57892C23.9882 7.57646 23.9889 7.57404 23.9896 7.57154C23.993 7.55881 23.9958 7.54584 23.9975 7.53248C23.9975 7.53193 23.9975 7.53142 23.9976 7.53088C23.9987 7.52181 23.9995 7.51263 23.9997 7.50334C23.9998 7.49998 23.9995 7.4967 23.9995 7.49342ZM16.8864 9.96217C17.5687 9.18315 18.6146 8.59592 19.995 8.21685C20.366 8.11498 20.758 8.03045 21.1621 7.96373C20.1355 8.46158 19.1539 9.08514 18.6053 9.45158C17.72 10.043 16.7644 10.7604 16.0587 11.3984C16.2675 10.8694 16.52 10.3804 16.8864 9.96217ZM21.4208 9.27549C20.6132 10.1494 18.8691 11.2748 18.1065 11.5093C17.681 11.6402 17.3267 11.7366 17.0141 11.8216C16.7312 11.8985 16.4739 11.9686 16.2194 12.0494C16.3333 11.9403 16.4667 11.8181 16.624 11.6809C17.2571 11.1287 18.0764 10.5101 18.931 9.9392C20.4108 8.95065 21.7499 8.25674 22.7324 7.95592C22.3057 8.34889 21.886 8.77201 21.4208 9.27549Z" fill="#B0B8C3"/>
</g>
<defs>
<filter id="filter0_d" x="0" y="0" width="28" height="28" filterUnits="userSpaceOnUse" color-interpolation-filters="sRGB">
<feFlood flood-opacity="0" result="BackgroundImageFix"/>
<feColorMatrix in="SourceAlpha" type="matrix" values="0 0 0 0 0 0 0 0 0 0 0 0 0 0 0 0 0 0 127 0"/>
<feOffset dy="4"/>
<feGaussianBlur stdDeviation="2"/>
<feColorMatrix type="matrix" values="0 0 0 0 0 0 0 0 0 0 0 0 0 0 0 0 0 0 0.25 0"/>
<feBlend mode="normal" in2="BackgroundImageFix" result="effect1_dropShadow"/>
<feBlend mode="normal" in="SourceGraphic" in2="effect1_dropShadow" result="shape"/>
</filter>
<clipPath id="clip0">
<rect width="20" height="20" fill="white" transform="translate(4)"/>
</clipPath>
</defs>
</svg>
