<svg width="20" height="20" viewBox="0 0 20 20" fill="none" xmlns="http://www.w3.org/2000/svg">
<g clip-path="url(#clip0)">
<path d="M9.99869 2.49999C9.7687 2.49999 9.58203 2.31333 9.58203 2.08333V0.416659C9.58203 0.186659 9.7687 -7.62939e-06 9.99869 -7.62939e-06C10.2287 -7.62939e-06 10.4154 0.186659 10.4154 0.416659V2.08333C10.4154 2.31333 10.2287 2.49999 9.99869 2.49999Z" fill="#B0B8C3"/>
<path d="M15.5985 4.81833C15.4918 4.81833 15.3852 4.77749 15.3035 4.69666C15.141 4.53416 15.141 4.26999 15.3035 4.10749L16.4818 2.92916C16.6443 2.76666 16.9085 2.76666 17.071 2.92916C17.2335 3.09166 17.2335 3.35583 17.071 3.51833L15.8927 4.69666C15.8118 4.77749 15.7052 4.81833 15.5985 4.81833Z" fill="#B0B8C3"/>
<path d="M19.5833 10.4167H17.9167C17.6867 10.4167 17.5 10.23 17.5 10C17.5 9.77 17.6867 9.58333 17.9167 9.58333H19.5833C19.8133 9.58333 20 9.77 20 10C20 10.23 19.8133 10.4167 19.5833 10.4167Z" fill="#B0B8C3"/>
<path d="M16.7768 17.1933C16.6702 17.1933 16.5635 17.1525 16.4818 17.0717L15.3035 15.8933C15.141 15.7308 15.141 15.4667 15.3035 15.3042C15.466 15.1417 15.7302 15.1417 15.8927 15.3042L17.071 16.4825C17.2335 16.645 17.2335 16.9092 17.071 17.0717C16.9902 17.1525 16.8835 17.1933 16.7768 17.1933Z" fill="#B0B8C3"/>
<path d="M9.99869 20C9.7687 20 9.58203 19.8133 9.58203 19.5833V17.9167C9.58203 17.6867 9.7687 17.5 9.99869 17.5C10.2287 17.5 10.4154 17.6867 10.4154 17.9167V19.5833C10.4154 19.8133 10.2287 20 9.99869 20Z" fill="#B0B8C3"/>
<path d="M3.22352 17.1933C3.11685 17.1933 3.01018 17.1525 2.92852 17.0717C2.76602 16.9092 2.76602 16.645 2.92852 16.4825L4.10685 15.3042C4.26935 15.1417 4.53352 15.1417 4.69602 15.3042C4.85852 15.4667 4.85852 15.7308 4.69602 15.8933L3.51768 17.0717C3.43685 17.1525 3.33018 17.1933 3.22352 17.1933Z" fill="#B0B8C3"/>
<path d="M2.08333 10.4167H0.416667C0.186667 10.4167 0 10.23 0 10C0 9.77 0.186667 9.58333 0.416667 9.58333H2.08333C2.31333 9.58333 2.5 9.77 2.5 10C2.5 10.23 2.31333 10.4167 2.08333 10.4167Z" fill="#B0B8C3"/>
<path d="M4.40101 4.81833C4.29435 4.81833 4.18768 4.77749 4.10601 4.69666L2.92852 3.51833C2.76602 3.35583 2.76602 3.09166 2.92852 2.92916C3.09102 2.76666 3.35518 2.76666 3.51768 2.92916L4.69601 4.10749C4.85851 4.26999 4.85851 4.53416 4.69601 4.69666C4.61435 4.77749 4.50768 4.81833 4.40101 4.81833Z" fill="#B0B8C3"/>
<path d="M8.81157 16.6667C8.76241 16.6667 8.71407 16.6583 8.66574 16.6408C8.48324 16.5725 8.37241 16.3875 8.39824 16.1958L9.10907 10.8333H6.25074C6.09324 10.8333 5.94908 10.7442 5.87824 10.6033C5.80741 10.4625 5.82241 10.2933 5.91741 10.1667L10.9174 3.5C11.0332 3.345 11.2391 3.29 11.4149 3.36667C11.5916 3.4425 11.6941 3.62833 11.6624 3.81833L10.9091 8.33333H13.7507C13.9041 8.33333 14.0449 8.4175 14.1174 8.5525C14.1899 8.6875 14.1824 8.85083 14.0991 8.98L9.15991 16.48C9.08074 16.5992 8.94824 16.6667 8.81157 16.6667ZM7.08408 10H9.58407C9.7049 10 9.81824 10.0525 9.8974 10.1425C9.97657 10.2317 10.0132 10.3525 9.9974 10.4717L9.46324 14.5033L12.9774 9.16667H10.4174C10.2949 9.16667 10.1791 9.11333 10.0991 9.01917C10.0199 8.92583 9.98574 8.80167 10.0066 8.68167L10.5591 5.36667L7.08408 10Z" fill="#B0B8C3"/>
</g>
<defs>
<clipPath id="clip0">
<rect width="20" height="20" fill="white"/>
</clipPath>
</defs>
</svg>
