<svg width="40" height="40" viewBox="0 0 40 40" fill="none" xmlns="http://www.w3.org/2000/svg">
<circle cx="20" cy="20" r="19.5" fill="#E9FBF9" stroke="#3FDDCB"/>
<path d="M24.8182 27.5455V25.8182C24.8182 24.902 24.4542 24.0233 23.8064 23.3754C23.1585 22.7276 22.2798 22.3636 21.3636 22.3636H14.4545C13.5383 22.3636 12.6597 22.7276 12.0118 23.3754C11.364 24.0233 11 24.902 11 25.8182V27.5455" stroke="#26D8C4" stroke-linecap="round" stroke-linejoin="round"/>
<path d="M17.9091 18.9091C19.817 18.9091 21.3636 17.3624 21.3636 15.4545C21.3636 13.5467 19.817 12 17.9091 12C16.0012 12 14.4545 13.5467 14.4545 15.4545C14.4545 17.3624 16.0012 18.9091 17.9091 18.9091Z" stroke="#26D8C4" stroke-linecap="round" stroke-linejoin="round"/>
<path d="M30 27.5455V25.8182C29.9994 25.0528 29.7447 24.3092 29.2757 23.7043C28.8068 23.0993 28.1502 22.6673 27.4091 22.4759" stroke="#26D8C4" stroke-linecap="round" stroke-linejoin="round"/>
<path d="M23.9546 12.1123C24.6976 12.3025 25.3563 12.7347 25.8266 13.3406C26.2969 13.9466 26.5522 14.6918 26.5522 15.4589C26.5522 16.2259 26.2969 16.9712 25.8266 17.5771C25.3563 18.183 24.6976 18.6152 23.9546 18.8055" stroke="#26D8C4" stroke-linecap="round" stroke-linejoin="round"/>
</svg>
