<svg width="20" height="20" viewBox="0 0 20 20" fill="none" xmlns="http://www.w3.org/2000/svg">
<path d="M0.333405 15.6667C0.517426 15.6667 0.666656 15.5174 0.666656 15.3334V14.6666C0.666656 14.4826 0.517426 14.3333 0.333405 14.3333C0.149231 14.3333 0 14.4826 0 14.6666V15.3334C0 15.5174 0.149231 15.6667 0.333405 15.6667Z" fill="#B0B8C3"/>
<path d="M1.66666 15.6667V14.3333C1.66666 14.1492 1.51743 13.9999 1.33325 13.9999C1.14923 13.9999 1 14.1492 1 14.3333V15.6667C1 15.8508 1.14923 16.0001 1.33325 16.0001C1.51743 16.0001 1.66666 15.8508 1.66666 15.6667Z" fill="#B0B8C3"/>
<path d="M5.66666 15.6667V14.3333C5.66666 14.1492 5.51743 13.9999 5.3334 13.9999C5.14923 13.9999 5 14.1492 5 14.3333V15.6667C5 15.8508 5.14923 16.0001 5.3334 16.0001C5.51743 16.0001 5.66666 15.8508 5.66666 15.6667Z" fill="#B0B8C3"/>
<path d="M3.00064 16.3333V13.6667C3.00064 13.4825 2.85141 13.3333 2.66724 13.3333C2.48322 13.3333 2.33398 13.4825 2.33398 13.6667V16.3333C2.33398 16.5175 2.48322 16.6667 2.66724 16.6667C2.85141 16.6667 3.00064 16.5175 3.00064 16.3333Z" fill="#B0B8C3"/>
<path d="M4.33267 16.3333V13.6667C4.33267 13.4825 4.18344 13.3333 3.99927 13.3333C3.81525 13.3333 3.66602 13.4825 3.66602 13.6667V16.3333C3.66602 16.5175 3.81525 16.6667 3.99927 16.6667C4.18344 16.6667 4.33267 16.5175 4.33267 16.3333Z" fill="#B0B8C3"/>
<path d="M7.00064 17V13C7.00064 12.8159 6.85141 12.6666 6.66739 12.6666C6.48322 12.6666 6.33398 12.8159 6.33398 13V17C6.33398 17.1841 6.48322 17.3334 6.66739 17.3334C6.85141 17.3334 7.00064 17.1841 7.00064 17Z" fill="#B0B8C3"/>
<path d="M8.33267 17.6666V12.3334C8.33267 12.1492 8.18344 12 7.99942 12C7.81525 12 7.66602 12.1492 7.66602 12.3334V17.6666C7.66602 17.8508 7.81525 18 7.99942 18C8.18344 18 8.33267 17.8508 8.33267 17.6666Z" fill="#B0B8C3"/>
<path d="M9.66666 19.6666V10.3334C9.66666 10.1492 9.51743 10 9.3334 10C9.14923 10 9 10.1492 9 10.3334V19.6666C9 19.8508 9.14923 20 9.3334 20C9.51743 20 9.66666 19.8508 9.66666 19.6666Z" fill="#B0B8C3"/>
<path d="M19.6672 14.3333C19.4832 14.3333 19.334 14.4826 19.334 14.6666V15.3334C19.334 15.5174 19.4832 15.6667 19.6672 15.6667C19.8514 15.6667 20.0006 15.5174 20.0006 15.3334V14.6666C20.0006 14.4826 19.8514 14.3333 19.6672 14.3333Z" fill="#B0B8C3"/>
<path d="M19.0006 15.6667V14.3333C19.0006 14.1492 18.8514 13.9999 18.6674 13.9999C18.4832 13.9999 18.334 14.1492 18.334 14.3333V15.6667C18.334 15.8508 18.4832 16.0001 18.6674 16.0001C18.8514 16.0001 19.0006 15.8508 19.0006 15.6667Z" fill="#B0B8C3"/>
<path d="M15.0006 15.6667V14.3333C15.0006 14.1492 14.8514 13.9999 14.6672 13.9999C14.4832 13.9999 14.334 14.1492 14.334 14.3333V15.6667C14.334 15.8508 14.4832 16.0001 14.6672 16.0001C14.8514 16.0001 15.0006 15.8508 15.0006 15.6667Z" fill="#B0B8C3"/>
<path d="M17.6667 16.3333V13.6667C17.6667 13.4825 17.5174 13.3333 17.3334 13.3333C17.1492 13.3333 17 13.4825 17 13.6667V16.3333C17 16.5175 17.1492 16.6667 17.3334 16.6667C17.5174 16.6667 17.6667 16.5175 17.6667 16.3333Z" fill="#B0B8C3"/>
<path d="M16.3327 16.3333V13.6667C16.3327 13.4825 16.1834 13.3333 15.9994 13.3333C15.8152 13.3333 15.666 13.4825 15.666 13.6667V16.3333C15.666 16.5175 15.8152 16.6667 15.9994 16.6667C16.1834 16.6667 16.3327 16.5175 16.3327 16.3333Z" fill="#B0B8C3"/>
<path d="M13.6667 17V13C13.6667 12.8159 13.5174 12.6666 13.3333 12.6666C13.1492 12.6666 13 12.8159 13 13V17C13 17.1841 13.1492 17.3334 13.3333 17.3334C13.5174 17.3334 13.6667 17.1841 13.6667 17Z" fill="#B0B8C3"/>
<path d="M12.3327 17.6666V12.3334C12.3327 12.1492 12.1834 12 11.9993 12C11.8152 12 11.666 12.1492 11.666 12.3334V17.6666C11.666 17.8508 11.8152 18 11.9993 18C12.1834 18 12.3327 17.8508 12.3327 17.6666Z" fill="#B0B8C3"/>
<path d="M11.0006 19.6666V10.3334C11.0006 10.1492 10.8514 10 10.6672 10C10.4832 10 10.334 10.1492 10.334 10.3334V19.6666C10.334 19.8508 10.4832 20 10.6672 20C10.8514 20 11.0006 19.8508 11.0006 19.6666Z" fill="#B0B8C3"/>
<path d="M18.0007 0H11.334C10.23 0.0012207 9.33521 0.895996 9.33398 1.99997V6.66672C9.33521 7.77069 10.23 8.66547 11.334 8.66669H11.9147L11.67 10.6253C11.6535 10.7571 11.7168 10.8862 11.8312 10.9537C11.9457 11.0213 12.0893 11.0144 12.1968 10.9361L15.3173 8.66669H18.0007C19.1046 8.66547 19.9994 7.77069 20.0006 6.66672V1.99997C19.9994 0.895996 19.1046 0.0012207 18.0007 0V0ZM19.334 6.66672C19.3332 7.4028 18.7368 7.99927 18.0007 8.00003H15.9948C15.997 7.93015 15.9767 7.86148 15.9368 7.80411C15.8849 7.73239 15.8066 7.68433 15.7193 7.67059C15.6319 7.65671 15.5426 7.67838 15.4712 7.73041L12.4269 9.94461L12.6647 8.04138C12.6812 7.92236 12.6323 7.8038 12.5368 7.73087C12.4413 7.65793 12.314 7.64206 12.2036 7.68921C12.0932 7.73636 12.0166 7.83936 12.0032 7.95868L11.998 8.00003H11.334C10.5979 7.99927 10.0014 7.4028 10.0006 6.66672V1.99997C10.0014 1.26389 10.5979 0.667419 11.334 0.666656H18.0007C18.7368 0.667419 19.3332 1.26389 19.334 1.99997V6.66672Z" fill="#B0B8C3"/>
<path d="M11.9999 3.33328C11.4477 3.33328 11 3.78098 11 4.33334C11 4.88556 11.4477 5.3334 11.9999 5.3334C12.5523 5.3334 13 4.88556 13 4.33334C12.9994 3.78128 12.552 3.33389 11.9999 3.33328ZM11.9999 4.6666C11.8159 4.6666 11.6667 4.51736 11.6667 4.33334C11.6667 4.14917 11.8159 3.99994 11.9999 3.99994C12.1841 3.99994 12.3333 4.14917 12.3333 4.33334C12.3332 4.51736 12.1839 4.66644 11.9999 4.6666Z" fill="#B0B8C3"/>
<path d="M14.6659 3.33328C14.1137 3.33328 13.666 3.78098 13.666 4.33334C13.666 4.88556 14.1137 5.3334 14.6659 5.3334C15.2183 5.3334 15.666 4.88556 15.666 4.33334C15.6654 3.78128 15.218 3.33389 14.6659 3.33328ZM14.6659 4.6666C14.4819 4.6666 14.3327 4.51736 14.3327 4.33334C14.3327 4.14917 14.4819 3.99994 14.6659 3.99994C14.8501 3.99994 14.9993 4.14917 14.9993 4.33334C14.9992 4.51736 14.8501 4.66644 14.6659 4.6666Z" fill="#B0B8C3"/>
<path d="M17.334 3.33328C16.7817 3.33328 16.334 3.78098 16.334 4.33334C16.334 4.88556 16.7817 5.3334 17.334 5.3334C17.8863 5.3334 18.334 4.88556 18.334 4.33334C18.3333 3.78128 17.8861 3.33389 17.334 3.33328ZM17.334 4.6666C17.1499 4.6666 17.0006 4.51736 17.0006 4.33334C17.0006 4.14917 17.1499 3.99994 17.334 3.99994C17.5181 3.99994 17.6673 4.14917 17.6673 4.33334C17.6671 4.51736 17.5181 4.66644 17.334 4.6666Z" fill="#B0B8C3"/>
</svg>
